<svg id="圖層_1" data-name="圖層 1" xmlns="http://www.w3.org/2000/svg" xmlns:xlink="http://www.w3.org/1999/xlink" viewBox="0 0 825.37 228.59"><defs><style>.cls-1{fill:#f89696;}.cls-2{fill:#fff;}.cls-3{fill:#fff9d0;}.cls-4{fill:url(#未命名漸層_12);}.cls-5{fill:url(#未命名漸層_11);}.cls-6{fill:url(#未命名漸層_11-2);}.cls-7{fill:url(#未命名漸層_11-3);}.cls-8{fill:url(#未命名漸層_11-4);}.cls-9{fill:url(#未命名漸層_11-5);}.cls-10{fill:url(#未命名漸層_11-6);}.cls-11{fill:url(#未命名漸層_11-7);}.cls-12,.cls-13,.cls-14{stroke:#000;stroke-width:0.5px;}.cls-12{fill:url(#未命名漸層_20);}.cls-13{fill:url(#未命名漸層_20-2);}.cls-14{fill:#cfb8e7;stroke-miterlimit:10;}.cls-15{fill:#f8eca0;}.cls-15,.cls-16{stroke:#2f1d23;stroke-width:0.75px;}.cls-16{fill:#f75573;}</style><linearGradient id="未命名漸層_12" x1="333.52" y1="282.68" x2="940.41" y2="373.49" gradientUnits="userSpaceOnUse"><stop offset="0" stop-color="#f85270"/><stop offset="1" stop-color="#74579a"/></linearGradient><linearGradient id="未命名漸層_11" x1="334.08" y1="278.93" x2="940.98" y2="369.73" xlink:href="#未命名漸層_12"/><linearGradient id="未命名漸層_11-2" x1="335.49" y1="269.48" x2="942.39" y2="360.28" xlink:href="#未命名漸層_12"/><linearGradient id="未命名漸層_11-3" x1="338.3" y1="250.71" x2="945.2" y2="341.52" xlink:href="#未命名漸層_12"/><linearGradient id="未命名漸層_11-4" x1="338.47" y1="249.58" x2="945.37" y2="340.39" xlink:href="#未命名漸層_12"/><linearGradient id="未命名漸層_11-5" x1="338.45" y1="249.68" x2="945.35" y2="340.49" xlink:href="#未命名漸層_12"/><linearGradient id="未命名漸層_11-6" x1="341.37" y1="230.19" x2="948.27" y2="321" xlink:href="#未命名漸層_12"/><linearGradient id="未命名漸層_11-7" x1="342.88" y1="220.11" x2="949.78" y2="310.92" xlink:href="#未命名漸層_12"/><linearGradient id="未命名漸層_20" x1="95.1" y1="77.82" x2="57.93" y2="128.61" gradientTransform="matrix(0.49, -0.87, 0.87, 0.49, 145.13, 212.47)" gradientUnits="userSpaceOnUse"><stop offset="0" stop-color="#f2aec6"/><stop offset="1" stop-color="#fcc6b2"/></linearGradient><linearGradient id="未命名漸層_20-2" x1="115.74" y1="40.44" x2="103.26" y2="57.51" gradientTransform="matrix(1, 0, 0, 1, 0, 0)" xlink:href="#未命名漸層_20"/></defs><path class="cls-1" d="M314.35,392.44a223,223,0,0,1,28.25-26l-6.07,4.69a250.94,250.94,0,0,1,54.8-31.65l-7.16,3a300.42,300.42,0,0,1,75.13-20.31l-8,1.08c37.81-5.08,76.1-3.75,113.84,1.27l-8-1.07c36.59,5,72.29,13.74,108.13,22.4,35.06,8.48,70.55,15.39,106.68,16.8,66.59,2.62,132.83-11.84,193.38-39.2,34-15.34,65.11-35.6,93.83-59.26,5.6-4.6,8.79-14.26,8.79-21.21,0-7.36-3.27-16.15-8.79-21.21-5.71-5.25-13.22-9.15-21.21-8.79-8.38.38-14.76,3.47-21.21,8.79q-4.72,3.89-9.55,7.63l6.07-4.69a396.42,396.42,0,0,1-87.13,50.83l7.17-3a404.44,404.44,0,0,1-102.8,28.07l8-1.08a388.41,388.41,0,0,1-101.56.15l8,1.07c-32.85-4.44-64.87-13.2-97.07-20.85-34.49-8.2-69.45-14.59-104.78-17.86a428.76,428.76,0,0,0-104.47,3,318.13,318.13,0,0,0-85.79,26.28c-30.26,14-58.41,34.06-80.89,58.72-5.34,5.85-8.79,13.15-8.79,21.21,0,7.36,3.27,16.15,8.79,21.21,5.72,5.25,13.22,9.15,21.21,8.79,7.74-.35,15.83-2.89,21.21-8.79Z" transform="translate(-242.63 -172.66)"/><path class="cls-2" d="M422.89,356.1h-2c-6.88,0-12.66-1-17.18-3a42.14,42.14,0,0,1-11.18-7.23,34,34,0,0,1-16.28,4.1c-6.34,0-11.12-1-14.59-3.1-3.75-2.26-5.65-5.22-5.65-8.8a10.09,10.09,0,0,1,4.22-8.43c2.66-2,6.41-3,11.46-3a25.36,25.36,0,0,1,15.76,5.46q.84-3.14,1.47-6.69l.34-2.09h-4.69V316.7h5.84l8.83-50.42a44.88,44.88,0,0,1,.86-4.61c-14.74,1.43-26.33,4.77-34.47,9.94-8.46,5.38-12.58,12.19-12.58,20.81a12.32,12.32,0,0,0,3.74,9.15,17.48,17.48,0,0,0,7.09,3.88,34,34,0,0,0,7.63,1.6c1.27.07,2,.08,2.34.07l3-3v9.36h-2c-9.94,0-17.47-2.45-22.4-7.29-3.73-3.46-5.64-8.11-5.64-13.79,0-10.84,5.12-19.62,15.2-26.1,9.55-6.14,23.2-9.91,40.57-11.21,4.21-8.42,11.71-12.69,22.31-12.69h2v6.9l-1.76.21c-1.78.21-2.36.89-2.63,1.39a14.73,14.73,0,0,0-1.28,3.69,56.68,56.68,0,0,1,15.28,2.49c5,1.66,9,3.91,11.67,6.69a26,26,0,0,1,7.64,18.55,34.83,34.83,0,0,1-3,14.57,33,33,0,0,1-7.61,10.79,43,43,0,0,1-11.07,7.18,86.25,86.25,0,0,1-23.94,6.91,34.37,34.37,0,0,1-12,20.28,36.35,36.35,0,0,0,8.39,5c3.65,1.57,8.47,2.36,14.33,2.36h2Zm-33.56-17a14.14,14.14,0,0,1-3.75,5.37,30.31,30.31,0,0,0,6.21-2.82l.67-.39,1.36-1c6.85-4.82,11-11.45,12.59-20.27v-1.8l.38,0,.26-1.35c3.33-17.07,6.52-36.69,9.46-58.33v0h-.18l.43-2.33A24.06,24.06,0,0,1,419,249a6.11,6.11,0,0,1,2.31-2.35c-7.49.85-12.62,4.55-15.6,11.22l-.16.34-.76,2a30.44,30.44,0,0,0-1.57,6.74l-9.42,53.81h0l-.87,5.4a76.9,76.9,0,0,1-2.47,10.14l-.49,1.51h0l0,.08-.45,1.4Zm-17.58-6.21a12.85,12.85,0,0,0-6.85,1.55,3.8,3.8,0,0,0-2,3.47c0,.53,0,2.15,2.84,3.79A16.26,16.26,0,0,0,374,343.7a17.87,17.87,0,0,0,7.7-1.35,8.12,8.12,0,0,0,3.43-3.6,31.49,31.49,0,0,0-5.83-4.18h0A15.81,15.81,0,0,0,371.75,332.94Zm48.48-72.07c-2.72,19.84-5.65,38-8.71,54,25-4.21,37.13-14.86,37.13-32.51A18.48,18.48,0,0,0,441.43,267C436.77,263.28,429.65,261.22,420.23,260.87Z" transform="translate(-242.63 -172.66)"/><path class="cls-2" d="M392.81,343.42A31.88,31.88,0,0,1,376.25,348q-8.88,0-13.56-2.82T358,338.08a8.15,8.15,0,0,1,3.42-6.84q3.42-2.58,10.26-2.58a24,24,0,0,1,16.8,7,73.9,73.9,0,0,0,2.4-9.84l.72-4.44h-5V318.7h5.52l9.12-52.08a32,32,0,0,1,1.68-7.2q-24.84,1.92-38.34,10.5t-13.5,22.5A14.36,14.36,0,0,0,355.37,303a19.38,19.38,0,0,0,7.92,4.38,36,36,0,0,0,8.1,1.68q3.18.18,3.42-.06v2.52q-14.16,0-21-6.72-5-4.68-5-12.36,0-15.24,14.28-24.42t40.8-11q5.64-12.6,21-12.6v3.12a5.07,5.07,0,0,0-4.14,2.4,22.94,22.94,0,0,0-2,6.6,57.45,57.45,0,0,1,17.1,2.46q7.14,2.34,10.86,6.18a23.89,23.89,0,0,1,7.08,17.16A32.72,32.72,0,0,1,451,296.08a31,31,0,0,1-7.14,10.14,40.76,40.76,0,0,1-10.56,6.84,85.33,85.33,0,0,1-24.84,7v.24Q405.89,334.3,395,342a38.94,38.94,0,0,0,10.8,7q5.88,2.52,15.12,2.52v2.64q-10,0-16.38-2.82A40.38,40.38,0,0,1,392.81,343.42Zm-12.6-10.62a17.74,17.74,0,0,0-8.46-1.86,14.69,14.69,0,0,0-7.92,1.86,5.8,5.8,0,0,0-2.94,5.16q0,3.3,3.84,5.52A18.16,18.16,0,0,0,374,345.7a19.69,19.69,0,0,0,8.58-1.56,10.76,10.76,0,0,0,5-5.88A35.31,35.31,0,0,0,380.21,332.8Zm70.44-50.46a20.55,20.55,0,0,0-8-16.92q-8-6.36-24.18-6.6-4.44,32.64-9.48,58.44Q450.65,311.26,450.65,282.34Z" transform="translate(-242.63 -172.66)"/><path class="cls-2" d="M492.41,332.7c-7,0-12.37-1.73-16.06-5.15s-5.62-8.21-5.62-14.13c0-10,2.55-17.95,7.58-23.69s12-8.79,20.46-8.79c14.25,0,17.24,7.68,17.24,14.12,0,5.81-2.75,10.25-8.18,13.22-4.68,2.55-11.2,4-19.4,4.23-.09,2-.14,3.6-.14,4.87,0,3.06.64,5.28,1.91,6.6a6.2,6.2,0,0,0,4.73,2,13.81,13.81,0,0,0,5.93-1.25,13.29,13.29,0,0,0,4.23-2.95,26,26,0,0,0,2.9-3.84,17.69,17.69,0,0,0,2.1-4.07v-3l6.42,2.86-.29,1.55a20,20,0,0,1-2.39,5.72,24.11,24.11,0,0,1-4.33,5.69,22.58,22.58,0,0,1-7,4.17A26.3,26.3,0,0,1,492.41,332.7ZM497.29,285c-6.67.3-11.91,2.73-16,7.38-4.37,5-6.59,12.08-6.59,21.06,0,4.83,1.42,8.49,4.34,11.2,2.45,2.27,6,3.6,10.57,4a10.19,10.19,0,0,1-2.34-1.85c-2-2.09-3-5.24-3-9.36,0-1.72.08-4.06.24-6.95l.11-1.87h.13l.14-1c1-7.53,3.1-13.35,6.24-17.3A17.9,17.9,0,0,1,497.29,285Zm12.8,28.92Zm-8.38-26c-2.42,0-4.92,1.61-7.43,4.77-2.37,3-4.06,7.36-5,13,13.13-.43,19.78-4,19.78-10.68a7.34,7.34,0,0,0-1.82-5.19C506,288.57,504.22,287.94,501.71,287.94Z" transform="translate(-242.63 -172.66)"/><path class="cls-2" d="M498.77,282.94q15.24,0,15.24,12.12,0,7.56-7.14,11.46t-20.34,4q-.24,4.32-.24,6.84,0,5.4,2.46,8a8.18,8.18,0,0,0,6.18,2.58,15.72,15.72,0,0,0,6.78-1.44,15.23,15.23,0,0,0,4.86-3.42,27.39,27.39,0,0,0,3.12-4.14q2.4-4,2.4-5l2.16,1a18,18,0,0,1-2.16,5.1,22.06,22.06,0,0,1-4,5.22,21,21,0,0,1-6.36,3.78,24.24,24.24,0,0,1-9.36,1.74q-9.72,0-14.7-4.62t-5-12.66q0-14.28,7.08-22.38T498.77,282.94Zm9.9,5.58q-2.34-2.58-7-2.58t-9,5.52q-4.38,5.52-5.82,16.32Q511,307.66,511,295.06A9.36,9.36,0,0,0,508.67,288.52Z" transform="translate(-242.63 -172.66)"/><path class="cls-2" d="M579.05,332.7c-8.33,0-12.92-4.2-12.92-11.84,0-3,.72-8,2.2-15.39,1.41-7,2.12-11.67,2.12-13.77,0-2.64-1.07-3.16-2.92-3.16s-4,1.46-6,4.32c-2.28,3.21-4.21,7.74-5.74,13.44l-3.48,19.16a7.24,7.24,0,0,0,2-1.77l1.25-1.56,4.95,4-1.3,1.56a13.2,13.2,0,0,1-10.54,5c-4.09,0-7.39-1.1-9.8-3.27a11.21,11.21,0,0,1-3.72-8.69c0-.79.2-3.06,2-13.53l3.38-19a7.54,7.54,0,0,0-1.89,1.71l-1.25,1.56-5-4,1.3-1.57a13.3,13.3,0,0,1,10.6-5c4.14,0,7.44,1.11,9.81,3.29a10.68,10.68,0,0,1,2.74,4,16.82,16.82,0,0,1,14.27-7.3c5.25,0,9.45,1.56,12.47,4.62s4.53,7.26,4.53,12.5c0,2.64-.76,7.47-2.32,14.76-1.13,5.24-1.88,9.5-2.25,12.74a11.24,11.24,0,0,0,2.3-2l1.27-1.36,4.51,3.61-.72,1.45a9.15,9.15,0,0,1-4.68,3.92A17,17,0,0,1,579.05,332.7ZM570.3,285c2.67.91,4.15,3.26,4.15,6.74,0,2.4-.72,7.16-2.2,14.56-1.41,7-2.12,11.95-2.12,14.6,0,5.43,2.75,7.84,8.92,7.84h.26l0-.49A108,108,0,0,1,581.9,312c1.48-6.91,2.23-11.6,2.23-13.92,0-4.21-1.11-7.38-3.38-9.69s-5.42-3.43-9.62-3.43Zm-25.15,0-4.09,22.93c-1.64,9.85-1.89,12.28-1.89,12.85a7.29,7.29,0,0,0,2.4,5.72,9.68,9.68,0,0,0,6.1,2.21l4.25-23.32q.84-3.17,1.85-5.9V293.5c0-2.8-.77-4.87-2.35-6.33A9.73,9.73,0,0,0,545.15,285Z" transform="translate(-242.63 -172.66)"/><path class="cls-2" d="M581.33,328.3q2.88,0,6-3.36l1.8,1.44a7.37,7.37,0,0,1-3.72,3,15.08,15.08,0,0,1-6.36,1.32q-10.92,0-10.92-9.84,0-4.2,2.16-15t2.16-14.16q0-5.16-4.92-5.16-4,0-7.62,5.16t-6.06,14.16l-4.08,22.44a8.63,8.63,0,0,0,6.12-3.36l1.8,1.44a11.25,11.25,0,0,1-9,4.32q-5.4,0-8.46-2.76a9.24,9.24,0,0,1-3.06-7.2q0-1.68,1.92-13.2l4-22.2a8.54,8.54,0,0,0-6,3.36l-1.8-1.44a11.3,11.3,0,0,1,9.06-4.32q5.46,0,8.46,2.76t3,7.8v.72q4.92-11.28,15.36-11.28,7.08,0,11,4t4,11.1q0,3.72-2.28,14.34A106.75,106.75,0,0,0,581.33,328.3Z" transform="translate(-242.63 -172.66)"/><path class="cls-2" d="M624.65,332.7a16.55,16.55,0,0,1-10.88-3.64,12.86,12.86,0,0,1-4.56-10.42c0-3.79,1.48-13.76,4.52-30.46H608l.68-6.16h6.24l3.24-17.76h1.67a87.75,87.75,0,0,0,12.81-.68l4.52-1-.61,3Q635.09,273,633.32,282H648l-.68,6.16H632.18c-3.75,19.45-5.65,31.33-5.65,35.32,0,1.3.29,1.84,2.08,1.84,2,0,3.93-1.43,5.76-4.25a33.5,33.5,0,0,0,4.53-10.53l.51-2.12,6,2L645,312.2C641.77,325.8,634.94,332.7,624.65,332.7ZM618.19,286l-.09.52c-3.25,17.64-4.89,28.44-4.89,32.1a8.92,8.92,0,0,0,3.11,7.34,12.54,12.54,0,0,0,8.33,2.72h.78a5.36,5.36,0,0,1-2.9-5.19c0-4.4,2-16.66,6-37.48h-.06l.47-2.38q1.7-8.67,3.14-15.93a95.28,95.28,0,0,1-10.55.55L618.28,286Z" transform="translate(-242.63 -172.66)"/><path class="cls-2" d="M616.61,284l3.24-17.76a87.83,87.83,0,0,0,13.2-.72l1.56-.36q-1.68,8.4-3.72,18.84h14.88l-.24,2.16h-15q-6,31-6,37.32,0,3.84,4.08,3.84t7.44-5.16a35.47,35.47,0,0,0,4.8-11.16l2.16.72q-4.44,19-18.36,19a14.55,14.55,0,0,1-9.6-3.18,10.89,10.89,0,0,1-3.84-8.88q0-5.7,4.92-32.46h-5.88l.24-2.16Z" transform="translate(-242.63 -172.66)"/><path class="cls-2" d="M704.57,332.7c-7.19,0-10.7-3-12.32-6.49-3.47,4.31-7.67,6.49-12.52,6.49-5.9,0-10.68-1.84-14.21-5.46s-5.31-8.66-5.31-15c0-9.57,2.42-17.23,7.2-22.78a23.91,23.91,0,0,1,18.92-8.5c4.51,0,8.11,1.53,10.65,4.47.11-.59.23-1.19.35-1.78l.32-1.61h1.64a87.75,87.75,0,0,0,12.81-.68l4.46-1-8.23,45.08a7.27,7.27,0,0,0,1.88-1.7l1.25-1.56,4.95,4-1.3,1.56A13.21,13.21,0,0,1,704.57,332.7Zm-9.94-15.36.41,3.92c.51,4.88,3.18,7.2,8.63,7.43l7.89-43.23a93.59,93.59,0,0,1-10.62.56c-.36,1.85-.69,3.7-1,5.53l-1.29,7.73-.15-.44c-.44,2.4-.94,5.25-1.5,8.5-.7,4.05-1.15,6.54-1.4,7.61l-.09.27C695.24,316,694.94,316.65,694.63,317.34ZM684.82,285a19.57,19.57,0,0,0-14.38,7.06c-4.13,4.8-6.23,11.59-6.23,20.17,0,5.35,1.36,9.35,4.17,12.23a14,14,0,0,0,8.56,4.08,6.29,6.29,0,0,1-1.46-1.59c-1.15-1.75-1.71-4.56-1.71-8.6a69.42,69.42,0,0,1,3.71-22.55C679.38,290.25,681.84,286.64,684.82,285Zm4,2.95c-3,0-5.51,3.08-7.59,9.15a65.3,65.3,0,0,0-3.49,21.25c0,4.18.66,5.81,1.05,6.4h0a2.74,2.74,0,0,0,2.59,1.19c1.35,0,2.84-.84,4.44-2.5a28.29,28.29,0,0,0,5.88-9.52c.24-1.07.68-3.51,1.33-7.26s1.21-6.93,1.69-9.54a14.93,14.93,0,0,0-2.18-6.74C691.16,288.2,689.77,287.94,688.85,287.94Z" transform="translate(-242.63 -172.66)"/><path class="cls-2" d="M704.57,330.7q-10.56,0-11.52-9.24-5.28,9.24-13.32,9.24T667,325.84q-4.74-4.86-4.74-13.62,0-13.68,6.72-21.48a21.9,21.9,0,0,1,17.4-7.8q8.76,0,11.64,8.28.6-3.6,1.32-7.2a87.83,87.83,0,0,0,13.2-.72l1.56-.36-8.28,45.36a8.54,8.54,0,0,0,6-3.36l1.8,1.44A11.25,11.25,0,0,1,704.57,330.7Zm-27.42-4.86a4.74,4.74,0,0,0,4.26,2.1q2.88,0,5.88-3.12a30.11,30.11,0,0,0,6.36-10.32q.36-1.56,1.38-7.5t1.74-9.78a16.85,16.85,0,0,0-2.52-7.92q-2.16-3.36-5.4-3.36-5.88,0-9.48,10.5a67.05,67.05,0,0,0-3.6,21.9Q675.77,323.74,677.15,325.84Z" transform="translate(-242.63 -172.66)"/><path class="cls-2" d="M747.89,353.7c-5.4,0-9.69-1-12.76-2.88-4.2-2.62-5.08-6-5.08-8.42a10.63,10.63,0,0,1,3.2-8c2.12-2,5.58-3,10.56-3,4.25,0,9.47,1.47,15.91,4.46l1.7-9.09A15.15,15.15,0,0,1,751,330.78c-12,0-18.32-6.25-18.32-18.08,0-9.39,2.43-17.09,7.24-22.87a23.55,23.55,0,0,1,18.88-8.89c4.28,0,7.75,1.25,10.33,3.73l.48-2.65h1.67a82.38,82.38,0,0,0,12.56-.68l4.46-1-8.45,47.27a33.91,33.91,0,0,1-5.27,13.11,7.84,7.84,0,0,0,5.55-2.71l1.31-1.41,4.52,3.88-1.05,1.49c-2.31,3.27-5.93,4.92-10.75,4.92a27.61,27.61,0,0,1-4.82-.44C763.66,351.25,756.45,353.7,747.89,353.7Zm14.43-12.16-.1.24a15,15,0,0,1-5.08,6.7,25.49,25.49,0,0,0,10.28-5.7l.76-.69,1.05-1.11a28,28,0,0,0,6.69-14.13l7.4-41.38A90.07,90.07,0,0,1,773,286L771,296.62l-.12-.27,0,1.11-1.72,9.4.09-.16-6.54,35Zm-20.07-3.92a6.8,6.8,0,0,0-4.33,1.24,3.87,3.87,0,0,0-1.35,3.36c0,.89.25,2.2,2.44,3.41a17.62,17.62,0,0,0,8.4,1.67c4.86,0,8.25-1.76,10.3-5.37-1.27-.64-1.62-.83-1.79-.93,0,0-.27-.16-1.42-.68a13.4,13.4,0,0,0-1.67-.68c-.42-.13-1-.35-2-.71a12.91,12.91,0,0,0-1.81-.57l-1.93-.42A26.9,26.9,0,0,0,742.25,337.62Zm12.28-52.29A19.36,19.36,0,0,0,743,292.38c-4.2,5.05-6.32,11.89-6.32,20.32,0,9.11,4.09,13.61,12.85,14.05a5.34,5.34,0,0,1-1.94-1.94h0c-.92-1.59-1.35-4.25-1.35-8.39a69.89,69.89,0,0,1,3.45-21.37C751.19,290.44,752.77,287.23,754.53,285.33Zm-3.47,37.47c.12.21.5.86,2.35.86,1.42,0,3-.88,4.68-2.62a22.89,22.89,0,0,0,4.14-5.56,52.69,52.69,0,0,0,2.2-5.1l2.46-13.46v-.66c0-6.25-2.49-9-8.08-9-.25,0-2.47.26-5.3,9.06a65.85,65.85,0,0,0-3.26,20.14c0,4.5.56,6,.81,6.38Z" transform="translate(-242.63 -172.66)"/><path class="cls-2" d="M774.17,342.7a9.81,9.81,0,0,0,7.44-3.36l1.68,1.44q-2.88,4.08-9.12,4.08a25.38,25.38,0,0,1-5.4-.6q-8.16,7.44-20.88,7.44-7.56,0-11.7-2.58t-4.14-6.72a8.69,8.69,0,0,1,2.58-6.6q2.58-2.46,9.18-2.46t17.4,5.4l3.72-19.92q-5.4,10-13.92,10-16.32,0-16.32-16.08,0-13.44,6.78-21.6a21.54,21.54,0,0,1,17.34-8.16q6.12,0,9.48,3.72a12.76,12.76,0,0,1,1.92,3.24l1.08-5.88a82.78,82.78,0,0,0,13-.72l1.56-.36-7.92,44.28q-1.8,9.36-7.2,15.12A15.51,15.51,0,0,0,774.17,342.7Zm-26.76,6.6q9.6,0,13-8.28l-1.68-.84q-1.44-.72-1.74-.9t-1.62-.78a17.47,17.47,0,0,0-1.92-.78q-.6-.18-1.86-.66a15,15,0,0,0-2.1-.66l-1.92-.42a28.92,28.92,0,0,0-5.28-.36,8.67,8.67,0,0,0-5.58,1.68,5.93,5.93,0,0,0-2.1,4.92q0,3.24,3.48,5.16A19.41,19.41,0,0,0,747.41,349.3Zm1.92-25.5q1.08,1.86,4.08,1.86t6.12-3.24a24.78,24.78,0,0,0,4.5-6.06,56,56,0,0,0,2.34-5.46l2.52-13.8v-.84q0-11-10.08-11-3.84,0-7.2,10.44a67.45,67.45,0,0,0-3.36,20.76Q748.25,321.94,749.33,323.8Z" transform="translate(-242.63 -172.66)"/><path class="cls-2" d="M823.73,332.7c-6.67,0-11.86-1.74-15.43-5.18a17.45,17.45,0,0,1-5.41-13.08A51.61,51.61,0,0,1,804.21,302a36,36,0,0,1,4.38-10.16,21.27,21.27,0,0,1,9.57-8,37.31,37.31,0,0,1,15.35-2.82c6.3,0,11.32,1.74,14.94,5.17s5.48,8.21,5.48,14.11c0,9.57-2.61,17.44-7.75,23.39S833.41,332.7,823.73,332.7Zm3.42-47.33a27.45,27.45,0,0,0-7.34,2,17.41,17.41,0,0,0-7.82,6.5,31.53,31.53,0,0,0-3.9,9,47.63,47.63,0,0,0-1.2,11.51,13.45,13.45,0,0,0,4.18,10.2h0a15.13,15.13,0,0,0,8.55,3.79c-1.82-1.57-3.18-4.57-3.18-10.09,0-10.1,1.58-18.45,4.7-24.82A23.32,23.32,0,0,1,827.15,285.37Zm10.56-.09c1.54,1.73,2.66,4.79,2.66,10,0,9.13-1.54,17.14-4.56,23.81-2,4.44-4.3,7.52-6.82,9.24A22.08,22.08,0,0,0,843.16,321c4.49-5.21,6.77-12.19,6.77-20.78,0-4.83-1.39-8.5-4.24-11.21A14.87,14.87,0,0,0,837.71,285.28Zm-4.8,1.94c-2.8,0-5.54,2.72-8.17,8.06-2.85,5.82-4.29,13.58-4.29,23.06,0,7.6,2.69,7.6,3.58,7.6,2.84,0,5.58-2.85,8.14-8.48,2.78-6.15,4.2-13.6,4.2-22.16C836.37,289.94,835.2,287.22,832.91,287.22Z" transform="translate(-242.63 -172.66)"/><path class="cls-2" d="M809.69,326.08a15.47,15.47,0,0,1-4.8-11.64,49.53,49.53,0,0,1,1.26-12,33.72,33.72,0,0,1,4.14-9.6,19.25,19.25,0,0,1,8.7-7.26q5.82-2.64,14.52-2.64t13.56,4.62q4.86,4.62,4.86,12.66,0,13.68-7.26,22.08t-20.94,8.4Q814.49,330.7,809.69,326.08Zm8.76-7.74q0,9.6,5.58,9.6t10-9.66q4.38-9.66,4.38-23,0-10.08-5.46-10.08t-10,9.18Q818.45,303.58,818.45,318.34Z" transform="translate(-242.63 -172.66)"/><path class="cls-2" d="M916.37,332.7c-8.33,0-12.92-4.2-12.92-11.84,0-3,.72-8,2.2-15.39,1.4-7,2.12-11.67,2.12-13.77,0-2.64-1.07-3.16-2.92-3.16s-4,1.46-6,4.32c-2.28,3.21-4.21,7.74-5.74,13.44l-3.48,19.16a7.24,7.24,0,0,0,2-1.77l1.25-1.56,5,4-1.31,1.56a13.18,13.18,0,0,1-10.53,5c-4.09,0-7.39-1.1-9.8-3.27a11.21,11.21,0,0,1-3.72-8.69c0-.79.2-3.06,1.94-13.53l3.39-19a7.38,7.38,0,0,0-1.89,1.71l-1.25,1.56-5-4L871,286a13.29,13.29,0,0,1,10.6-5c4.14,0,7.44,1.11,9.81,3.29a10.65,10.65,0,0,1,2.73,4,16.83,16.83,0,0,1,14.28-7.3c5.25,0,9.44,1.56,12.46,4.62s4.54,7.26,4.54,12.5c0,2.64-.76,7.47-2.33,14.76-1.12,5.24-1.87,9.5-2.24,12.74a11.24,11.24,0,0,0,2.3-2l1.27-1.36,4.51,3.61-.72,1.45a9.15,9.15,0,0,1-4.68,3.92A17.11,17.11,0,0,1,916.37,332.7ZM907.62,285c2.67.91,4.15,3.26,4.15,6.74,0,2.4-.72,7.16-2.2,14.56-1.41,7-2.12,11.95-2.12,14.6,0,5.43,2.75,7.84,8.92,7.84h.26l0-.49A107.68,107.68,0,0,1,919.21,312c1.49-6.91,2.24-11.6,2.24-13.92,0-4.21-1.11-7.38-3.39-9.69s-5.41-3.43-9.61-3.43Zm-25.15,0-4.09,22.93c-1.65,9.85-1.89,12.28-1.89,12.85a7.26,7.26,0,0,0,2.4,5.72,9.68,9.68,0,0,0,6.1,2.21l4.24-23.32q.85-3.17,1.86-5.9V293.5c0-2.8-.77-4.87-2.36-6.33A9.68,9.68,0,0,0,882.47,285Z" transform="translate(-242.63 -172.66)"/><path class="cls-2" d="M918.65,328.3q2.88,0,6-3.36l1.8,1.44a7.37,7.37,0,0,1-3.72,3,15.08,15.08,0,0,1-6.36,1.32q-10.92,0-10.92-9.84,0-4.2,2.16-15t2.16-14.16q0-5.16-4.92-5.16-4,0-7.62,5.16t-6.06,14.16l-4.08,22.44a8.63,8.63,0,0,0,6.12-3.36l1.8,1.44a11.25,11.25,0,0,1-9,4.32q-5.4,0-8.46-2.76a9.24,9.24,0,0,1-3.06-7.2q0-1.68,1.92-13.2l4-22.2a8.54,8.54,0,0,0-6,3.36l-1.8-1.44a11.3,11.3,0,0,1,9.06-4.32q5.46,0,8.46,2.76t3,7.8v.72q4.92-11.28,15.36-11.28,7.08,0,11,4t4,11.1q0,3.72-2.28,14.34A106.75,106.75,0,0,0,918.65,328.3Z" transform="translate(-242.63 -172.66)"/><path class="cls-3" d="M427.89,353.1h-2c-6.88,0-12.66-1-17.18-3a42.14,42.14,0,0,1-11.18-7.23,34,34,0,0,1-16.28,4.1c-6.34,0-11.12-1-14.59-3.1-3.75-2.26-5.65-5.22-5.65-8.8a10.09,10.09,0,0,1,4.22-8.43c2.66-2,6.41-3,11.46-3a25.36,25.36,0,0,1,15.76,5.46q.84-3.14,1.47-6.69l.34-2.09h-4.69V313.7h5.84l8.83-50.42a44.88,44.88,0,0,1,.86-4.61c-14.74,1.43-26.33,4.77-34.47,9.94-8.46,5.38-12.58,12.19-12.58,20.81a12.32,12.32,0,0,0,3.74,9.15,17.48,17.48,0,0,0,7.09,3.88,34,34,0,0,0,7.63,1.6c1.27.07,2,.08,2.34.07l3-3v9.36h-2c-9.94,0-17.47-2.45-22.4-7.29-3.73-3.46-5.64-8.11-5.64-13.79,0-10.84,5.12-19.62,15.2-26.1,9.55-6.14,23.2-9.91,40.57-11.21,4.21-8.42,11.71-12.69,22.31-12.69h2v6.9l-1.76.21c-1.78.21-2.36.89-2.63,1.39a14.73,14.73,0,0,0-1.28,3.69,56.68,56.68,0,0,1,15.28,2.49c5,1.66,9,3.91,11.67,6.69a26,26,0,0,1,7.64,18.55,34.83,34.83,0,0,1-3,14.57,33,33,0,0,1-7.61,10.79,43,43,0,0,1-11.07,7.18,86.25,86.25,0,0,1-23.94,6.91,34.37,34.37,0,0,1-12,20.28,36.35,36.35,0,0,0,8.39,5c3.65,1.57,8.47,2.36,14.33,2.36h2Zm-33.56-17a14.14,14.14,0,0,1-3.75,5.37,30.31,30.31,0,0,0,6.21-2.82l.67-.39,1.36-1c6.85-4.82,11-11.45,12.59-20.27v-1.8l.38,0,.26-1.35c3.33-17.07,6.52-36.69,9.46-58.33v0h-.18l.43-2.33A24.06,24.06,0,0,1,424,246a6.11,6.11,0,0,1,2.31-2.35c-7.49.85-12.62,4.55-15.6,11.22l-.16.34-.76,2a30.44,30.44,0,0,0-1.57,6.74l-9.42,53.81h0l-.87,5.4a76.9,76.9,0,0,1-2.47,10.14l-.49,1.51h0l0,.08-.45,1.4Zm-17.58-6.21a12.85,12.85,0,0,0-6.85,1.55,3.8,3.8,0,0,0-2,3.47c0,.53,0,2.15,2.84,3.79A16.26,16.26,0,0,0,379,340.7a17.87,17.87,0,0,0,7.7-1.35,8.12,8.12,0,0,0,3.43-3.6,31.49,31.49,0,0,0-5.83-4.18h0A15.81,15.81,0,0,0,376.75,329.94Zm48.48-72.07c-2.72,19.84-5.65,38-8.71,54,25-4.21,37.13-14.86,37.13-32.51A18.48,18.48,0,0,0,446.43,264C441.77,260.28,434.65,258.22,425.23,257.87Z" transform="translate(-242.63 -172.66)"/><path class="cls-4" d="M397.81,340.42A31.88,31.88,0,0,1,381.25,345q-8.88,0-13.56-2.82T363,335.08a8.15,8.15,0,0,1,3.42-6.84q3.42-2.58,10.26-2.58a24,24,0,0,1,16.8,7,73.9,73.9,0,0,0,2.4-9.84l.72-4.44h-5V315.7h5.52l9.12-52.08a32,32,0,0,1,1.68-7.2q-24.84,1.92-38.34,10.5t-13.5,22.5A14.36,14.36,0,0,0,360.37,300a19.38,19.38,0,0,0,7.92,4.38,36,36,0,0,0,8.1,1.68q3.18.18,3.42-.06v2.52q-14.16,0-21-6.72-5-4.68-5-12.36,0-15.24,14.28-24.42t40.8-11q5.64-12.6,21-12.6v3.12a5.07,5.07,0,0,0-4.14,2.4,22.94,22.94,0,0,0-2,6.6,57.45,57.45,0,0,1,17.1,2.46q7.14,2.34,10.86,6.18a23.89,23.89,0,0,1,7.08,17.16A32.72,32.72,0,0,1,456,293.08a31,31,0,0,1-7.14,10.14,40.76,40.76,0,0,1-10.56,6.84,85.33,85.33,0,0,1-24.84,7v.24Q410.89,331.3,400,339a38.94,38.94,0,0,0,10.8,7q5.88,2.52,15.12,2.52v2.64q-10,0-16.38-2.82A40.38,40.38,0,0,1,397.81,340.42Zm-12.6-10.62a17.74,17.74,0,0,0-8.46-1.86,14.69,14.69,0,0,0-7.92,1.86,5.8,5.8,0,0,0-2.94,5.16q0,3.3,3.84,5.52A18.16,18.16,0,0,0,379,342.7a19.69,19.69,0,0,0,8.58-1.56,10.76,10.76,0,0,0,5-5.88A35.31,35.31,0,0,0,385.21,329.8Zm70.44-50.46a20.55,20.55,0,0,0-8-16.92q-8-6.36-24.18-6.6-4.44,32.64-9.48,58.44Q455.65,308.26,455.65,279.34Z" transform="translate(-242.63 -172.66)"/><path class="cls-3" d="M497.41,329.7c-7,0-12.37-1.73-16.06-5.15s-5.62-8.21-5.62-14.13c0-10,2.55-17.95,7.58-23.69s12-8.79,20.46-8.79c14.25,0,17.24,7.68,17.24,14.12,0,5.81-2.75,10.25-8.18,13.22-4.68,2.55-11.2,4-19.4,4.23-.09,2-.14,3.6-.14,4.87,0,3.06.64,5.28,1.91,6.6a6.2,6.2,0,0,0,4.73,2,13.81,13.81,0,0,0,5.93-1.25,13.29,13.29,0,0,0,4.23-2.95,26,26,0,0,0,2.9-3.84,17.69,17.69,0,0,0,2.1-4.07v-3l6.42,2.86-.29,1.55a20,20,0,0,1-2.39,5.72,24.11,24.11,0,0,1-4.33,5.69,22.58,22.58,0,0,1-7,4.17A26.3,26.3,0,0,1,497.41,329.7ZM502.29,282c-6.67.3-11.91,2.73-16,7.38-4.37,5-6.59,12.08-6.59,21.06,0,4.83,1.42,8.49,4.34,11.2,2.45,2.27,6,3.6,10.57,4a10.19,10.19,0,0,1-2.34-1.85c-2-2.09-3-5.24-3-9.36,0-1.72.08-4.06.24-6.95l.11-1.87h.13l.14-1c1-7.53,3.1-13.35,6.24-17.3A17.9,17.9,0,0,1,502.29,282Zm12.8,28.92Zm-8.38-26c-2.42,0-4.92,1.61-7.43,4.77-2.37,3-4.06,7.36-5,13,13.13-.43,19.78-4,19.78-10.68a7.34,7.34,0,0,0-1.82-5.19C511,285.57,509.22,284.94,506.71,284.94Z" transform="translate(-242.63 -172.66)"/><path class="cls-5" d="M503.77,279.94q15.24,0,15.24,12.12,0,7.56-7.14,11.46t-20.34,4q-.24,4.32-.24,6.84,0,5.4,2.46,8a8.18,8.18,0,0,0,6.18,2.58,15.72,15.72,0,0,0,6.78-1.44,15.23,15.23,0,0,0,4.86-3.42,27.39,27.39,0,0,0,3.12-4.14q2.4-4,2.4-5l2.16,1a18,18,0,0,1-2.16,5.1,22.06,22.06,0,0,1-4,5.22,21,21,0,0,1-6.36,3.78,24.24,24.24,0,0,1-9.36,1.74q-9.72,0-14.7-4.62t-5-12.66q0-14.28,7.08-22.38T503.77,279.94Zm9.9,5.58q-2.34-2.58-7-2.58t-9,5.52q-4.38,5.52-5.82,16.32Q516,304.66,516,292.06A9.36,9.36,0,0,0,513.67,285.52Z" transform="translate(-242.63 -172.66)"/><path class="cls-3" d="M584.05,329.7c-8.33,0-12.92-4.2-12.92-11.84,0-3,.72-8,2.2-15.39,1.41-7,2.12-11.67,2.12-13.77,0-2.64-1.07-3.16-2.92-3.16s-4,1.46-6,4.32c-2.28,3.21-4.21,7.74-5.74,13.44l-3.48,19.16a7.24,7.24,0,0,0,2-1.77l1.25-1.56,4.95,4-1.3,1.56a13.2,13.2,0,0,1-10.54,5c-4.09,0-7.39-1.1-9.8-3.27a11.21,11.21,0,0,1-3.72-8.69c0-.79.2-3.06,2-13.53l3.38-19a7.54,7.54,0,0,0-1.89,1.71l-1.25,1.56-5-4,1.3-1.57a13.3,13.3,0,0,1,10.6-5c4.14,0,7.44,1.11,9.81,3.29a10.68,10.68,0,0,1,2.74,4,16.82,16.82,0,0,1,14.27-7.3c5.25,0,9.45,1.56,12.47,4.62s4.53,7.26,4.53,12.5c0,2.64-.76,7.47-2.32,14.76-1.13,5.24-1.88,9.5-2.25,12.74a11.24,11.24,0,0,0,2.3-2l1.27-1.36,4.51,3.61-.72,1.45a9.15,9.15,0,0,1-4.68,3.92A17,17,0,0,1,584.05,329.7ZM575.3,282c2.67.91,4.15,3.26,4.15,6.74,0,2.4-.72,7.16-2.2,14.56-1.41,7-2.12,11.95-2.12,14.6,0,5.43,2.75,7.84,8.92,7.84h.26l0-.49A108,108,0,0,1,586.9,309c1.48-6.91,2.23-11.6,2.23-13.92,0-4.21-1.11-7.38-3.38-9.69s-5.42-3.43-9.62-3.43Zm-25.15,0-4.09,22.93c-1.64,9.85-1.89,12.28-1.89,12.85a7.29,7.29,0,0,0,2.4,5.72,9.68,9.68,0,0,0,6.1,2.21l4.25-23.32q.84-3.17,1.85-5.9V290.5c0-2.8-.77-4.87-2.35-6.33A9.73,9.73,0,0,0,550.15,282Z" transform="translate(-242.63 -172.66)"/><path class="cls-6" d="M586.33,325.3q2.88,0,6-3.36l1.8,1.44a7.37,7.37,0,0,1-3.72,3,15.08,15.08,0,0,1-6.36,1.32q-10.92,0-10.92-9.84,0-4.2,2.16-15t2.16-14.16q0-5.16-4.92-5.16-4,0-7.62,5.16t-6.06,14.16l-4.08,22.44a8.63,8.63,0,0,0,6.12-3.36l1.8,1.44a11.25,11.25,0,0,1-9,4.32q-5.4,0-8.46-2.76a9.24,9.24,0,0,1-3.06-7.2q0-1.68,1.92-13.2l4-22.2a8.54,8.54,0,0,0-6,3.36l-1.8-1.44a11.3,11.3,0,0,1,9.06-4.32q5.46,0,8.46,2.76t3,7.8v.72q4.92-11.28,15.36-11.28,7.08,0,11,4t4,11.1q0,3.72-2.28,14.34A106.75,106.75,0,0,0,586.33,325.3Z" transform="translate(-242.63 -172.66)"/><path class="cls-3" d="M629.65,329.7a16.55,16.55,0,0,1-10.88-3.64,12.86,12.86,0,0,1-4.56-10.42c0-3.79,1.48-13.76,4.52-30.46H613l.68-6.16h6.24l3.24-17.76h1.67a87.75,87.75,0,0,0,12.81-.68l4.52-1-.61,3Q640.09,270,638.32,279H653l-.68,6.16H637.18c-3.75,19.45-5.65,31.33-5.65,35.32,0,1.3.29,1.84,2.08,1.84,2,0,3.93-1.43,5.76-4.25a33.5,33.5,0,0,0,4.53-10.53l.51-2.12,6,2L650,309.2C646.77,322.8,639.94,329.7,629.65,329.7ZM623.19,283l-.09.52c-3.25,17.64-4.89,28.44-4.89,32.1a8.92,8.92,0,0,0,3.11,7.34,12.54,12.54,0,0,0,8.33,2.72h.78a5.36,5.36,0,0,1-2.9-5.19c0-4.4,2-16.66,6-37.48h-.06l.47-2.38q1.7-8.67,3.14-15.93a95.28,95.28,0,0,1-10.55.55L623.28,283Z" transform="translate(-242.63 -172.66)"/><path class="cls-7" d="M621.61,281l3.24-17.76a87.83,87.83,0,0,0,13.2-.72l1.56-.36q-1.68,8.4-3.72,18.84h14.88l-.24,2.16h-15q-6,31-6,37.32,0,3.84,4.08,3.84t7.44-5.16a35.47,35.47,0,0,0,4.8-11.16l2.16.72q-4.44,19-18.36,19a14.55,14.55,0,0,1-9.6-3.18,10.89,10.89,0,0,1-3.84-8.88q0-5.7,4.92-32.46h-5.88l.24-2.16Z" transform="translate(-242.63 -172.66)"/><path class="cls-3" d="M709.57,329.7c-7.19,0-10.7-3-12.32-6.49-3.47,4.31-7.67,6.49-12.52,6.49-5.9,0-10.68-1.84-14.21-5.46s-5.31-8.66-5.31-15c0-9.57,2.42-17.23,7.2-22.78a23.91,23.91,0,0,1,18.92-8.5c4.51,0,8.11,1.53,10.65,4.47.11-.59.23-1.19.35-1.78l.32-1.61h1.64a87.75,87.75,0,0,0,12.81-.68l4.46-1-8.23,45.08a7.27,7.27,0,0,0,1.88-1.7l1.25-1.56,4.95,4-1.3,1.56A13.21,13.21,0,0,1,709.57,329.7Zm-9.94-15.36.41,3.92c.51,4.88,3.18,7.2,8.63,7.43l7.89-43.23a93.59,93.59,0,0,1-10.62.56c-.36,1.85-.69,3.7-1,5.53l-1.29,7.73-.15-.44c-.44,2.4-.94,5.25-1.5,8.5-.7,4.05-1.15,6.54-1.4,7.61l-.09.27C700.24,313,699.94,313.65,699.63,314.34ZM689.82,282a19.57,19.57,0,0,0-14.38,7.06c-4.13,4.8-6.23,11.59-6.23,20.17,0,5.35,1.36,9.35,4.17,12.23a14,14,0,0,0,8.56,4.08,6.29,6.29,0,0,1-1.46-1.59c-1.15-1.75-1.71-4.56-1.71-8.6a69.42,69.42,0,0,1,3.71-22.55C684.38,287.25,686.84,283.64,689.82,282Zm4,2.95c-3,0-5.51,3.08-7.59,9.15a65.3,65.3,0,0,0-3.49,21.25c0,4.18.66,5.81,1.05,6.4h0a2.74,2.74,0,0,0,2.59,1.19c1.35,0,2.84-.84,4.44-2.5a28.29,28.29,0,0,0,5.88-9.52c.24-1.07.68-3.51,1.33-7.26s1.21-6.93,1.69-9.54a14.93,14.93,0,0,0-2.18-6.74C696.16,285.2,694.77,284.94,693.85,284.94Z" transform="translate(-242.63 -172.66)"/><path class="cls-8" d="M709.57,327.7q-10.56,0-11.52-9.24-5.28,9.24-13.32,9.24T672,322.84q-4.74-4.86-4.74-13.62,0-13.68,6.72-21.48a21.9,21.9,0,0,1,17.4-7.8q8.76,0,11.64,8.28.6-3.6,1.32-7.2a87.83,87.83,0,0,0,13.2-.72l1.56-.36-8.28,45.36a8.54,8.54,0,0,0,6-3.36l1.8,1.44A11.25,11.25,0,0,1,709.57,327.7Zm-27.42-4.86a4.74,4.74,0,0,0,4.26,2.1q2.88,0,5.88-3.12a30.11,30.11,0,0,0,6.36-10.32q.36-1.56,1.38-7.5t1.74-9.78a16.85,16.85,0,0,0-2.52-7.92q-2.16-3.36-5.4-3.36-5.88,0-9.48,10.5a67.05,67.05,0,0,0-3.6,21.9Q680.77,320.74,682.15,322.84Z" transform="translate(-242.63 -172.66)"/><path class="cls-3" d="M752.89,350.7c-5.4,0-9.69-1-12.76-2.88-4.2-2.62-5.08-6-5.08-8.42a10.63,10.63,0,0,1,3.2-8c2.12-2,5.58-3,10.56-3,4.25,0,9.47,1.47,15.91,4.46l1.7-9.09A15.15,15.15,0,0,1,756,327.78c-12,0-18.32-6.25-18.32-18.08,0-9.39,2.43-17.09,7.24-22.87a23.55,23.55,0,0,1,18.88-8.89c4.28,0,7.75,1.25,10.33,3.73l.48-2.65h1.67a82.38,82.38,0,0,0,12.56-.68l4.46-1-8.45,47.27a33.91,33.91,0,0,1-5.27,13.11,7.84,7.84,0,0,0,5.55-2.71l1.31-1.41,4.52,3.88-1.05,1.49c-2.31,3.27-5.93,4.92-10.75,4.92a27.61,27.61,0,0,1-4.82-.44C768.66,348.25,761.45,350.7,752.89,350.7Zm14.43-12.16-.1.24a15,15,0,0,1-5.08,6.7,25.49,25.49,0,0,0,10.28-5.7l.76-.69,1.05-1.11a28,28,0,0,0,6.69-14.13l7.4-41.38A90.07,90.07,0,0,1,778,283L776,293.62l-.12-.27,0,1.11-1.72,9.4.09-.16-6.54,35Zm-20.07-3.92a6.8,6.8,0,0,0-4.33,1.24,3.87,3.87,0,0,0-1.35,3.36c0,.89.25,2.2,2.44,3.41a17.62,17.62,0,0,0,8.4,1.67c4.86,0,8.25-1.76,10.3-5.37-1.27-.64-1.62-.83-1.79-.93,0,0-.27-.16-1.42-.68a13.4,13.4,0,0,0-1.67-.68c-.42-.13-1-.35-2-.71a12.91,12.91,0,0,0-1.81-.57l-1.93-.42A26.9,26.9,0,0,0,747.25,334.62Zm12.28-52.29A19.36,19.36,0,0,0,748,289.38c-4.2,5.05-6.32,11.89-6.32,20.32,0,9.11,4.09,13.61,12.85,14.05a5.34,5.34,0,0,1-1.94-1.94h0c-.92-1.59-1.35-4.25-1.35-8.39a69.89,69.89,0,0,1,3.45-21.37C756.19,287.44,757.77,284.23,759.53,282.33Zm-3.47,37.47c.12.21.5.86,2.35.86,1.42,0,3-.88,4.68-2.62a22.89,22.89,0,0,0,4.14-5.56,52.69,52.69,0,0,0,2.2-5.1l2.46-13.46v-.66c0-6.25-2.49-9-8.08-9-.25,0-2.47.26-5.3,9.06a65.85,65.85,0,0,0-3.26,20.14c0,4.5.56,6,.81,6.38Z" transform="translate(-242.63 -172.66)"/><path class="cls-9" d="M779.17,339.7a9.81,9.81,0,0,0,7.44-3.36l1.68,1.44q-2.88,4.08-9.12,4.08a25.38,25.38,0,0,1-5.4-.6q-8.16,7.44-20.88,7.44-7.56,0-11.7-2.58t-4.14-6.72a8.69,8.69,0,0,1,2.58-6.6q2.58-2.46,9.18-2.46t17.4,5.4l3.72-19.92q-5.4,10-13.92,10-16.32,0-16.32-16.08,0-13.44,6.78-21.6a21.54,21.54,0,0,1,17.34-8.16q6.12,0,9.48,3.72a12.76,12.76,0,0,1,1.92,3.24l1.08-5.88a82.78,82.78,0,0,0,13-.72l1.56-.36-7.92,44.28q-1.8,9.36-7.2,15.12A15.51,15.51,0,0,0,779.17,339.7Zm-26.76,6.6q9.6,0,13-8.28l-1.68-.84q-1.44-.72-1.74-.9t-1.62-.78a17.47,17.47,0,0,0-1.92-.78q-.6-.18-1.86-.66a15,15,0,0,0-2.1-.66l-1.92-.42a28.92,28.92,0,0,0-5.28-.36,8.67,8.67,0,0,0-5.58,1.68,5.93,5.93,0,0,0-2.1,4.92q0,3.24,3.48,5.16A19.41,19.41,0,0,0,752.41,346.3Zm1.92-25.5q1.08,1.86,4.08,1.86t6.12-3.24a24.78,24.78,0,0,0,4.5-6.06,56,56,0,0,0,2.34-5.46l2.52-13.8v-.84q0-11-10.08-11-3.84,0-7.2,10.44a67.45,67.45,0,0,0-3.36,20.76Q753.25,318.94,754.33,320.8Z" transform="translate(-242.63 -172.66)"/><path class="cls-3" d="M828.73,329.7c-6.67,0-11.86-1.74-15.43-5.18a17.45,17.45,0,0,1-5.41-13.08A51.61,51.61,0,0,1,809.21,299a36,36,0,0,1,4.38-10.16,21.27,21.27,0,0,1,9.57-8,37.31,37.31,0,0,1,15.35-2.82c6.3,0,11.32,1.74,14.94,5.17s5.48,8.21,5.48,14.11c0,9.57-2.61,17.44-7.75,23.39S838.41,329.7,828.73,329.7Zm3.42-47.33a27.45,27.45,0,0,0-7.34,2,17.41,17.41,0,0,0-7.82,6.5,31.53,31.53,0,0,0-3.9,9,47.63,47.63,0,0,0-1.2,11.51,13.45,13.45,0,0,0,4.18,10.2h0a15.13,15.13,0,0,0,8.55,3.79c-1.82-1.57-3.18-4.57-3.18-10.09,0-10.1,1.58-18.45,4.7-24.82A23.32,23.32,0,0,1,832.15,282.37Zm10.56-.09c1.54,1.73,2.66,4.79,2.66,10,0,9.13-1.54,17.14-4.56,23.81-2,4.44-4.3,7.52-6.82,9.24A22.08,22.08,0,0,0,848.16,318c4.49-5.21,6.77-12.19,6.77-20.78,0-4.83-1.39-8.5-4.24-11.21A14.87,14.87,0,0,0,842.71,282.28Zm-4.8,1.94c-2.8,0-5.54,2.72-8.17,8.06-2.85,5.82-4.29,13.58-4.29,23.06,0,7.6,2.69,7.6,3.58,7.6,2.84,0,5.58-2.85,8.14-8.48,2.78-6.15,4.2-13.6,4.2-22.16C841.37,286.94,840.2,284.22,837.91,284.22Z" transform="translate(-242.63 -172.66)"/><path class="cls-10" d="M814.69,323.08a15.47,15.47,0,0,1-4.8-11.64,49.53,49.53,0,0,1,1.26-12,33.72,33.72,0,0,1,4.14-9.6,19.25,19.25,0,0,1,8.7-7.26q5.82-2.64,14.52-2.64t13.56,4.62q4.86,4.62,4.86,12.66,0,13.68-7.26,22.08t-20.94,8.4Q819.49,327.7,814.69,323.08Zm8.76-7.74q0,9.6,5.58,9.6t10-9.66q4.38-9.66,4.38-23,0-10.08-5.46-10.08t-10,9.18Q823.45,300.58,823.45,315.34Z" transform="translate(-242.63 -172.66)"/><path class="cls-3" d="M921.37,329.7c-8.33,0-12.92-4.2-12.92-11.84,0-3,.72-8,2.2-15.39,1.4-7,2.12-11.67,2.12-13.77,0-2.64-1.07-3.16-2.92-3.16s-4,1.46-6,4.32c-2.28,3.21-4.21,7.74-5.74,13.44l-3.48,19.16a7.24,7.24,0,0,0,2-1.77l1.25-1.56,5,4-1.31,1.56a13.18,13.18,0,0,1-10.53,5c-4.09,0-7.39-1.1-9.8-3.27a11.21,11.21,0,0,1-3.72-8.69c0-.79.2-3.06,1.94-13.53l3.39-19a7.38,7.38,0,0,0-1.89,1.71l-1.25,1.56-5-4L876,283a13.29,13.29,0,0,1,10.6-5c4.14,0,7.44,1.11,9.81,3.29a10.65,10.65,0,0,1,2.73,4,16.83,16.83,0,0,1,14.28-7.3c5.25,0,9.44,1.56,12.46,4.62s4.54,7.26,4.54,12.5c0,2.64-.76,7.47-2.33,14.76-1.12,5.24-1.87,9.5-2.24,12.74a11.24,11.24,0,0,0,2.3-2l1.27-1.36,4.51,3.61-.72,1.45a9.15,9.15,0,0,1-4.68,3.92A17.11,17.11,0,0,1,921.37,329.7ZM912.62,282c2.67.91,4.15,3.26,4.15,6.74,0,2.4-.72,7.16-2.2,14.56-1.41,7-2.12,11.95-2.12,14.6,0,5.43,2.75,7.84,8.92,7.84h.26l0-.49A107.68,107.68,0,0,1,924.21,309c1.49-6.91,2.24-11.6,2.24-13.92,0-4.21-1.11-7.38-3.39-9.69s-5.41-3.43-9.61-3.43Zm-25.15,0-4.09,22.93c-1.65,9.85-1.89,12.28-1.89,12.85a7.26,7.26,0,0,0,2.4,5.72,9.68,9.68,0,0,0,6.1,2.21l4.24-23.32q.85-3.17,1.86-5.9V290.5c0-2.8-.77-4.87-2.36-6.33A9.68,9.68,0,0,0,887.47,282Z" transform="translate(-242.63 -172.66)"/><path class="cls-11" d="M923.65,325.3q2.88,0,6-3.36l1.8,1.44a7.37,7.37,0,0,1-3.72,3,15.08,15.08,0,0,1-6.36,1.32q-10.92,0-10.92-9.84,0-4.2,2.16-15t2.16-14.16q0-5.16-4.92-5.16-4,0-7.62,5.16t-6.06,14.16l-4.08,22.44a8.63,8.63,0,0,0,6.12-3.36l1.8,1.44a11.25,11.25,0,0,1-9,4.32q-5.4,0-8.46-2.76a9.24,9.24,0,0,1-3.06-7.2q0-1.68,1.92-13.2l4-22.2a8.54,8.54,0,0,0-6,3.36l-1.8-1.44a11.3,11.3,0,0,1,9.06-4.32q5.46,0,8.46,2.76t3,7.8v.72q4.92-11.28,15.36-11.28,7.08,0,11,4t4,11.1q0,3.72-2.28,14.34A106.75,106.75,0,0,0,923.65,325.3Z" transform="translate(-242.63 -172.66)"/><path class="cls-12" d="M269,183.18a20.13,20.13,0,0,0-2.43,12.63A16.6,16.6,0,1,0,276,210.34c.21.13.43.27.65.39A20.22,20.22,0,1,0,269,183.18Z" transform="translate(-242.63 -172.66)"/><circle class="cls-13" cx="108.87" cy="49.84" r="7"/><circle class="cls-14" cx="734.37" cy="191.34" r="16.5"/><circle class="cls-14" cx="775.37" cy="157.34" r="11.5"/><circle class="cls-14" cx="781.87" cy="190.84" r="6"/><path class="cls-15" d="M965.7,271.06a51.08,51.08,0,0,0,28.24,8.18c24.47,0,44.5-16,44.5-36s-20-36-44.5-36-44.5,16-44.5,36c0,9.14,4.2,17.46,11.09,23.79l-2.36,5.32-.43,1,1-.29Z" transform="translate(-242.63 -172.66)"/><path class="cls-16" d="M973.69,235.07c6-14.55,20.5-7,20.5,0,0-7,16-14.55,19.5,0,3.2,13.2-11.66,22.17-19.5,25C987.36,257.9,969,249.11,973.69,235.07Z" transform="translate(-242.63 -172.66)"/></svg>