<svg id="圖層_1" data-name="圖層 1" xmlns="http://www.w3.org/2000/svg" xmlns:xlink="http://www.w3.org/1999/xlink" viewBox="0 0 1052 605"><defs><style>.cls-1,.cls-11,.cls-13,.cls-14,.cls-15,.cls-17,.cls-8{fill:none;}.cls-2{fill:#fff;}.cls-11,.cls-14,.cls-17,.cls-19,.cls-2,.cls-20,.cls-21,.cls-22,.cls-25,.cls-26,.cls-8{stroke:#000;}.cls-3{clip-path:url(#clip-path);}.cls-4{fill:#ffeaef;}.cls-5{clip-path:url(#clip-path-2);}.cls-6{clip-path:url(#clip-path-3);}.cls-7{fill:#75589b;}.cls-11,.cls-13,.cls-15,.cls-8{stroke-linecap:round;stroke-linejoin:round;}.cls-8{stroke-width:27px;}.cls-9{clip-path:url(#clip-path-6);}.cls-10,.cls-24{fill:#f75573;}.cls-11{stroke-width:22px;}.cls-12{clip-path:url(#clip-path-7);}.cls-13,.cls-15{stroke:#f8eca0;}.cls-13{stroke-width:25px;}.cls-14,.cls-17,.cls-19,.cls-20,.cls-21,.cls-22{stroke-miterlimit:10;}.cls-15{stroke-width:20px;}.cls-16{clip-path:url(#clip-path-12);}.cls-17{stroke-width:0.5px;}.cls-18{clip-path:url(#clip-path-13);}.cls-19{fill:#81ebed;}.cls-20{fill:url(#未命名漸層_23);}.cls-21{fill:url(#未命名漸層_23-2);}.cls-22{fill:#fff7a9;}.cls-23{fill:#f8eca0;}.cls-23,.cls-24{stroke:#2f1d23;}.cls-25{fill:url(#未命名漸層_20);}.cls-26{fill:url(#未命名漸層_20-2);}</style><clipPath id="clip-path" transform="translate(-97 -69)"><rect class="cls-1" x="120" y="-131" width="994" height="994"/></clipPath><clipPath id="clip-path-2" transform="translate(-97 -69)"><rect class="cls-1" x="576.41" y="343.85" width="76.62" height="78.28"/></clipPath><clipPath id="clip-path-3" transform="translate(-97 -69)"><rect class="cls-1" x="642.26" y="342.19" width="48.04" height="79.93"/></clipPath><clipPath id="clip-path-6" transform="translate(-97 -69)"><rect class="cls-1" x="568.96" y="338.46" width="76.62" height="78.28"/></clipPath><clipPath id="clip-path-7" transform="translate(-97 -69)"><rect class="cls-1" x="634.81" y="336.81" width="48.04" height="79.93"/></clipPath><clipPath id="clip-path-12" transform="translate(-97 -69)"><rect class="cls-1" x="634.4" y="345.5" width="36.45" height="59.23"/></clipPath><clipPath id="clip-path-13" transform="translate(-97 -69)"><rect class="cls-1" x="576.83" y="345.5" width="57.57" height="61.71"/></clipPath><linearGradient id="未命名漸層_23" x1="975.01" y1="514.74" x2="966.68" y2="563.04" gradientUnits="userSpaceOnUse"><stop offset="0" stop-color="#eeadcb"/><stop offset="1" stop-color="#d2b7e5"/></linearGradient><linearGradient id="未命名漸層_23-2" x1="1010.46" y1="467.11" x2="1006.39" y2="490.76" xlink:href="#未命名漸層_23"/><linearGradient id="未命名漸層_20" x1="242.21" y1="579.17" x2="196.25" y2="641.98" gradientTransform="translate(75.65 -21.49) rotate(6.9)" gradientUnits="userSpaceOnUse"><stop offset="0" stop-color="#f2aec6"/><stop offset="1" stop-color="#fcc6b2"/></linearGradient><linearGradient id="未命名漸層_20-2" x1="187.38" y1="588.1" x2="174.89" y2="605.17" gradientTransform="matrix(1, 0, 0, 1, 0, 0)" xlink:href="#未命名漸層_20"/></defs><path class="cls-2" d="M433.63,168a77.39,77.39,0,1,0-94.34,113.43,108.8,108.8,0,0,0-3.84,93.51,107.88,107.88,0,0,0-32.39,14,57.34,57.34,0,1,0-53.72,77.39c1.61,0,3.22-.06,4.8-.19A108.62,108.62,0,0,0,395.58,583.45a134.76,134.76,0,0,0,234.47,19.24A118.61,118.61,0,0,0,798.94,631a45.11,45.11,0,0,0,67.32-15.66,104.72,104.72,0,0,0,125.23-137.6,72.94,72.94,0,0,0-27.16-140.52,44.54,44.54,0,0,0-14.57-64.41A77.94,77.94,0,0,0,840.58,162.13a57.34,57.34,0,0,0-81.31,1A172,172,0,0,0,483,184.44,77,77,0,0,0,435.26,168Z" transform="translate(-97 -69)"/><g class="cls-3"><path class="cls-4" d="M624,438.06h33.13V500c2.51-2.11,4.68-3.93,6.83-5.77,14.29-12.21,28.54-24.47,42.88-36.63,5.93-5,11.92-10,18.09-14.7a25.8,25.8,0,0,1,18.34-5.57c3.81.32,7.66.06,11.61.06v31.77h-7.64c-8.33,0-16.67,0-25,0a1.91,1.91,0,0,1-2.2-1.52c-1.47-4.07-3.15-8.05-5-12.55L681,483.49l83,109.35h-4.52c-3,0-5.93.11-8.87-.1a4.82,4.82,0,0,1-3.11-1.48c-4.47-5.57-8.76-11.29-13.15-16.92q-9.76-12.52-19.58-25Q698.85,529.16,682.91,509l-12.75-16.17c-2.82,2.33-5.24,4.88-8.16,6.58-4.59,2.68-5.07,6.51-5,11.29.2,26.45.1,52.9.11,79.34,0,3,0,3-2.9,3l-57.84,0h-1c-4,.11-4,.08-5.49-3.44-2.88-6.7-5.86-13.35-8.82-20q-4.93-11.13-9.89-22.25c-3.93-8.79-7.89-17.57-11.81-26.36-5.21-11.69-10.38-23.39-15.61-35.07q-7.44-16.58-15-33.13c-.11-.24-.27-.47-.66-1.14L480,562.73h32.24v31.06H501.07c-7,0-14.07-.18-21.09.06-4.3.14-6.87-2-8.52-6.65-1.95-5.44-.87-10.86,1.05-16,3.1-8.24,6.49-16.39,10-24.47,6.29-14.55,12.73-29,19.13-43.53q8.47-19.2,17-38.38c3.59-8.12,7.19-16.24,10.73-24.39.52-1.19,1-1.89,2.52-1.87q10.95.12,21.91,0a2.85,2.85,0,0,1,3.09,2q9.4,21.49,18.92,42.95,11.4,25.82,22.81,51.62,11.13,25.25,22.2,50.52A44.12,44.12,0,0,0,624,592Z" transform="translate(-97 -69)"/><path class="cls-4" d="M479.54,604c-5.19,0-13.76-1.91-17.91-13.51-2.49-6.94-2.12-14.5,1.11-23.12,2.75-7.31,6-15.24,10.18-24.94,4.84-11.17,9.84-22.47,14.68-33.4l4.5-10.18q5-11.28,10-22.55,3.51-7.9,7-15.81l1.27-2.86c3.12-7,6.34-14.3,9.45-21.46a12.7,12.7,0,0,1,12-8.1h.14c7.88.09,15,.1,21.67,0a13.15,13.15,0,0,1,12.71,8.21c5.69,13,11.53,26.21,17.18,39l1.73,3.92q4.49,10.15,9,20.3,6.93,15.64,13.84,31.29,2.82,6.39,5.63,12.77V438.06A10.35,10.35,0,0,1,624,427.71h33.13a10.36,10.36,0,0,1,10.36,10.35v39.09l3-2.53c9.73-8.34,19.8-17,29.74-25.41,5-4.24,11.64-9.79,18.5-15a36,36,0,0,1,25.47-7.66,66.86,66.86,0,0,0,6.86.08c1.24,0,2.53-.05,3.86-.05a10.35,10.35,0,0,1,10.36,10.35V468.7a10.36,10.36,0,0,1-10.33,10.37h-13.8c-6.16,0-12.53,0-18.79,0a12.15,12.15,0,0,1-11.55-7.34l-15.55,13,77,101.55A10.37,10.37,0,0,1,764,602.9h-1.69s-2,.12-3,.12c-.79,0-1.57,0-2.36,0-2.31,0-4.69,0-7.23-.14a15.13,15.13,0,0,1-10.45-5.31c-2.93-3.64-5.79-7.36-8.56-11-1.57-2-3.13-4.06-4.71-6.08-6.91-8.85-13.32-17-19.59-24.94q-10.62-13.44-21.26-26.87L674.55,515.3c-2.08-2.63-4.15-5.26-6.25-7.9-.38.25-.78.5-1.18.74a19.55,19.55,0,0,0-.08,2.36c.14,19.64.13,39.6.12,58.89q0,10.25,0,20.49c0,2.42,0,6.44-3.31,9.83s-7.5,3.49-10,3.49c-15.09,0-45.28-.3-45.28-.3H594.73c-2.76.08-5.9.16-9.13-1.77-3.52-2.11-4.83-5.15-5.89-7.6l-.1-.23c-2.22-5.14-4.54-10.36-6.79-15.41q-1-2.16-1.93-4.32c-3.84-8.66-7-15.65-9.81-22l-5.47-12.18q-3.14-7-6.26-14-3.2-7.14-6.37-14.27c-3-6.71-6.07-13.65-9.13-20.45-1.94-4.32-3.91-8.68-5.87-13l-32.39,74.7h16.63a10.35,10.35,0,0,1,10.35,10.35v31.06a10.36,10.36,0,0,1-10.36,10.36H501.15l-6.36,0c-5,0-9.68-.07-14.4.09h-.71m3.14-31.13c-.23.59-.45,1.18-.67,1.76-1.42,3.79-1.77,6.47-1.09,8.62,4.66-.12,9.29-.09,13.79-.05l6.21,0h.8V573.08Zm151.58,9.51h11.91q0-6.57,0-13.11c0-19.26,0-39.17-.12-58.72a30.57,30.57,0,0,1,.7-7.68,10.33,10.33,0,0,1-.49-3.15V448.42h-12Zm-36.87,0H608.3l-5.57-12.68Q596,554.62,589.25,539.3q-6.88-15.63-13.82-31.26l-9-20.31-1.73-3.92c-5-11.41-10.24-23.16-15.35-34.82-3.68,0-7.49,0-11.49,0l3.86,8.49c3.58,7.91,7.3,16.08,10.92,24.14,3.09,6.9,6.22,13.91,9.24,20.7q3.2,7.19,6.4,14.36l6.3,14q2.77,6.16,5.53,12.32c2.89,6.45,6,13.52,9.93,22.27.64,1.44,1.29,2.89,1.93,4.34,1.89,4.24,3.83,8.6,5.73,13m136.11-124h10.75v-11c-.7,0-1.41-.07-2.13-.13A15.55,15.55,0,0,0,731.19,451c-1.69,1.29-3.36,2.6-5,3.89.52,1.28,1,2.53,1.52,3.77h6.1" transform="translate(-97 -69)"/><path class="cls-4" d="M796.75,554.86v34.68a16.49,16.49,0,0,0,1.89.15c16.35-.55,32.72-.78,49.05-1.79a74,74,0,0,0,30-8c1.45-.76,2.78-1.72,4.39-2.72v14.5H764V436.82H881.65v14.65c-3-1.52-6-3.2-9.17-4.62-7.43-3.34-15.33-4.92-23.35-6-17.24-2.22-34.57-1.61-51.87-1.63a8.7,8.7,0,0,0-1.14.22c0,4.3,0,8.68,0,13.07,0,7,0,13.94,0,20.91,0,1.77.48,2.44,2.39,2.64,9,1,18,1.82,26.86,3.32a112.25,112.25,0,0,1,31.36,10c6,3,11.61,6.3,16.24,11.17,9.17,9.63,7.73,21.26-.31,30-6,6.52-13.74,10.25-21.68,13.67-13.3,5.74-27.36,8.34-41.67,9.83-4.17.43-8.37.55-12.82.82m.3-78.29v77.28c4.33-.52,8.44-.92,12.53-1.53a172.65,172.65,0,0,0,37.77-9.61c8.57-3.37,16.68-7.52,23.28-14.18,7.74-7.82,8.08-17.46.69-25.63-7.15-7.91-16.53-12.24-26.27-15.85a168.08,168.08,0,0,0-35.43-8.8c-4.14-.58-8.29-1.07-12.57-1.62" transform="translate(-97 -69)"/><path class="cls-4" d="M881.65,602.08H764a10.36,10.36,0,0,1-10.36-10.36V436.82A10.35,10.35,0,0,1,764,426.47h118a10.35,10.35,0,0,1,10.35,10.35v14.33a10.54,10.54,0,0,1-2.85,7.32,10.4,10.4,0,0,1-12.22,2.1l-2.93-1.51c-2-1.05-3.94-2.05-5.83-2.9-6.91-3.1-14.57-4.37-20.48-5.13-13.53-1.74-27.08-1.66-41.42-1.58h0v3.1s0,3.65,0,5.48c0,2.8,0,5.65,0,8.51,6.76.72,13.69,1.51,20.57,2.67a122.76,122.76,0,0,1,34.24,10.91c6.07,3,13.09,6.94,19.14,13.3,12.3,12.92,12.22,30.66-.19,44.15-7.44,8.09-16.53,12.42-25.19,16.16-12.62,5.44-26.41,8.72-44.71,10.62-1.18.12-3.41.3-3.41.3v14.51l5.45-.15c11.34-.32,23.06-.65,34.48-1.36a63.85,63.85,0,0,0,25.83-6.8c.53-.28,1.23-.74,2-1.26q.69-.47,1.44-.93a10.55,10.55,0,0,1,8.34-1.39,10.36,10.36,0,0,1,7.75,10v14.5a10.35,10.35,0,0,1-10.35,10.36M774.38,581.37H786v-26.5a4.32,4.32,0,0,0,.41-1.36V477.09a15,15,0,0,1-.45-3.87c0-5.08,0-10.27,0-15.3V447.18h-11.6Zm32.72-92.78v53.6h0c13.95-2.05,25.77-5,36.16-9.11,9.06-3.56,15.14-7.21,19.71-11.83,3.91-4,4-7.35.37-11.39-5.82-6.44-14.1-10.1-22.19-13.1a159.83,159.83,0,0,0-33.26-8.25l-.79-.11m-9.68-38.74h0Z" transform="translate(-97 -69)"/><path class="cls-4" d="M447.61,593H415.3V441.14c-18.91,1.45-37.44,2.95-54.26,12.84V438.89H501.45v15c-16.62-9.86-35.16-11-53.84-12.61Z" transform="translate(-97 -69)"/><path class="cls-4" d="M447.61,603.32H415.3A10.35,10.35,0,0,1,405,593V452.39c-13.79,1.32-26.82,3.58-38.58,10.5a10.39,10.39,0,0,1-15.68-9.12V438.89A10.35,10.35,0,0,1,361,428.54H501.45a10.35,10.35,0,0,1,10.35,10.35v14.83a10.57,10.57,0,0,1-3.09,7.59,10.37,10.37,0,0,1-12.56,1.51C484.72,456,471.74,454,458,452.62V593.13a10.35,10.35,0,0,1-10.35,10.35m-22.37-20.87h12V449.25h-12Z" transform="translate(-97 -69)"/></g><g class="cls-5"><path class="cls-4" d="M637.46,390.23c3.79-1.46,5.08-3.24,5.08-6.78q0-10.14,0-20.27c0-.62.07-1.23.12-1.94h9.94v7.21a8.18,8.18,0,0,0,.68-.56c5-6.53,11.37-7.36,18.78-5.4,3.84,1,5.69,3.77,5.7,7.76,0,2.48,0,5,0,7.43a2.31,2.31,0,0,1-.16.54h-9c-.45-2.7-.34-5.28,1.38-7.73,2.05-2.94,1.13-5.28-2.29-6.33-7.18-2.19-14.33,3-14.84,11.08-.38,6-.15,12-.18,18,0,4.32,0,8.65,0,13.19h-9.94V388.82c-2,1.45-3.86,2.66-5.58,4a6.09,6.09,0,0,0-1.49,1.91c-5,9.18-14.62,14-25.38,12.56a24.44,24.44,0,0,1-20.12-18.42c-2.94-12.11,5.11-25.37,17.2-28.35,12.63-3.11,24.22,2.43,29.3,14.11A22.53,22.53,0,0,1,638,387.41c-.14.87-.3,1.74-.46,2.68M624.8,394c1.31-.13,2.61-.32,3.91-.37,2-.08,3-1.05,3.55-3,1.84-7,1.82-13.78-1.34-20.37-2.76-5.73-7.17-9.2-13.72-9.34-7.82-.17-13.8,5.37-16.84,11.72a2.14,2.14,0,0,0-.09,1.18C602.21,385.05,613.14,394,624.8,394m-25.27-19.06a21.77,21.77,0,0,0-1,2.53,28.84,28.84,0,0,0,1.61,19.41c2.78,6,7.43,9.56,14.25,9.5,6.28-.05,13.23-5,15.4-10.73a25.67,25.67,0,0,1-19.44-3.83c-5.93-3.89-9.29-9.58-10.8-16.88" transform="translate(-97 -69)"/><path class="cls-4" d="M613.84,418a39.7,39.7,0,0,1-5.07-.33,34.67,34.67,0,0,1-28.84-26.25,34.49,34.49,0,0,1,24.79-40.84c10.77-2.66,21.17-.66,29.25,5a10.35,10.35,0,0,1,8.71-4.75h9.84a10.31,10.31,0,0,1,5.45,1.54c4.52-1.38,10.07-1.63,16.82.14,8.29,2.17,13.45,9,13.48,17.76,0,2.08,0,4.17,0,6.18l0,1.29a10.82,10.82,0,0,1-.7,3.75,10.34,10.34,0,0,1-9.79,7h-9.09a10.32,10.32,0,0,1-5.73-1.74c0,.34,0,.69,0,1,0,1.76,0,3.58,0,5.4,0,3,0,5.9,0,8.93v4.19a10.35,10.35,0,0,1-10.35,10.35h-10a10.34,10.34,0,0,1-8.83-4.95,34.91,34.91,0,0,1-19.89,6m-2.61-43.25a15.41,15.41,0,0,0,11.83,8.92,16.31,16.31,0,0,0-1.48-8.8c-1.52-3.16-2.92-3.43-4.61-3.47-2.53-.05-4.49,1.72-5.74,3.35m76.4,6.77h0" transform="translate(-97 -69)"/></g><g class="cls-6"><path class="cls-4" d="M637.4,389.81c3.79-1.45,5.08-3.23,5.08-6.77q0-10.14,0-20.28c0-.61.08-1.23.13-1.93h10v7.62a8.18,8.18,0,0,0,.68-.56c5-6.53,11.37-7.36,18.78-5.4,3.84,1,5.69,3.77,5.7,7.76,0,2.48,0,5,0,7.43a2.31,2.31,0,0,1-.16.54h-9c-.45-2.7-.34-5.28,1.38-7.73,2.05-2.94,1.13-5.28-2.29-6.33-7.18-2.19-14.33,3-14.84,11.08-.38,6-.15,12-.18,18,0,4.32,0,8.65,0,13.19h-9.94V388.71c-2,1.45-3.86,2.66-5.58,4a6,6,0,0,0-1.49,1.91c-5,9.18-14.62,14-25.38,12.56a24.44,24.44,0,0,1-20.12-18.42c-2.94-12.11,5.11-25.37,17.2-28.35,12.63-3.11,24.22,2.43,29.3,14.1A22.57,22.57,0,0,1,638,387.3c-.14.87-.3,1.73-.46,2.68m-12.84,3.88c1.31-.13,2.61-.33,3.91-.38,2-.07,3-1,3.55-3,1.84-7,1.82-13.78-1.35-20.38-2.75-5.72-7.16-9.19-13.71-9.34-7.82-.17-13.8,5.37-16.84,11.73a2.13,2.13,0,0,0-.09,1.18c1.94,11.26,12.86,20.21,24.53,20.18M599.47,374.8a21.06,21.06,0,0,0-1,2.52,28.86,28.86,0,0,0,1.6,19.42c2.79,6,7.44,9.55,14.25,9.5,6.29-.05,13.24-5,15.41-10.74a25.67,25.67,0,0,1-19.44-3.82c-5.93-3.9-9.29-9.58-10.8-16.88" transform="translate(-97 -69)"/><path class="cls-4" d="M613.78,417.62a38.25,38.25,0,0,1-5.08-.34A34.68,34.68,0,0,1,579.86,391a34.52,34.52,0,0,1,24.79-40.84c10.78-2.65,21.18-.66,29.26,5a10.34,10.34,0,0,1,8.71-4.76h9.9A10.34,10.34,0,0,1,658,352c4.52-1.38,10.07-1.64,16.82.13,8.29,2.18,13.45,9,13.48,17.77,0,2.08,0,4.16,0,6.18l0,1.7a10.82,10.82,0,0,1-.7,3.75,10.34,10.34,0,0,1-9.79,7h-9.09a10.32,10.32,0,0,1-5.73-1.74c0,.34,0,.69,0,1,0,1.76,0,3.58,0,5.4,0,3,0,5.9,0,8.93v4.19a10.35,10.35,0,0,1-10.35,10.35H642.5a10.35,10.35,0,0,1-8.84-4.95,34.86,34.86,0,0,1-19.88,6m-2.61-43.36A15.41,15.41,0,0,0,623,383.4a16.41,16.41,0,0,0-1.48-8.8c-1.52-3.16-2.92-3.44-4.61-3.47-2.53-.06-4.49,1.71-5.74,3.35m76.4,6.77h0" transform="translate(-97 -69)"/></g><g class="cls-3"><path class="cls-4" d="M749.12,211.1H716.4V180.17h7.51c8.12,0,16.26.27,24.37-.07,5-.21,7.39,3,8.62,6.25a19.61,19.61,0,0,1,.56,11.16c-1.52,7.27-4.61,14-7.54,20.69-5.61,12.92-11.32,25.8-17,38.69q-9.61,21.78-19.28,43.55-6.3,14.24-12.56,28.49c-.72,1.63-1.36,3.31-2.23,4.86A2.57,2.57,0,0,1,697,335c-7.71.07-15.44.07-23.15,0A2.71,2.71,0,0,1,672,333.5c-3-6.43-5.82-12.91-8.67-19.38q-7.25-16.41-14.46-32.84-7.67-17.36-15.39-34.69-9.69-21.89-19.38-43.76c-3.17-7.15-6.3-14.33-9.56-21.74.79-.08,1.36-.18,1.93-.18,9.79,0,19.58,0,29.37,0a2.45,2.45,0,0,1,2.68,1.63q6.59,15,13.3,30c5.66,12.61,11.38,25.18,17,37.79q10.39,23.24,20.73,46.5,5.13,11.49,10.3,22.95c.28.62.63,1.2,1.22,2.31L749.28,211.1" transform="translate(-97 -69)"/><path class="cls-4" d="M686.14,345.35c-4.32,0-8.49,0-12.57-.08-5.32-.07-9.5-3.91-11.12-7.46-3-6.45-5.83-12.91-8.74-19.52q-3.4-7.71-6.8-15.44-3.82-8.7-7.66-17.39-4.89-11.08-9.82-22.17-2.79-6.26-5.56-12.51l-3.16-7.14q-8.12-18.3-16.23-36.62c-2.18-4.93-4.34-9.86-6.54-14.88-1-2.23-2-4.48-3-6.74a10.62,10.62,0,0,1-.68-6.64,10.38,10.38,0,0,1,9.12-8l.51-.05a19.33,19.33,0,0,1,2.38-.17h9.18c6.61,0,13.44,0,20.14,0h.09a12.72,12.72,0,0,1,12.13,7.83c4,9.15,8.36,18.92,13.27,29.88q4,9,8.06,17.89c3,6.52,6,13.26,9,19.91,4.22,9.43,8.49,19,12.62,28.3l8.12,18.21c.61,1.35,1.21,2.71,1.82,4.06l32.64-75.13h-17a10.35,10.35,0,0,1-10.35-10.36v-31a10.37,10.37,0,0,1,10.38-10.37h7.34c2.47,0,5,0,7.35.05,5.74.06,11.16.11,16.59-.11,8.54-.36,15.54,4.47,18.73,12.93a29.57,29.57,0,0,1,1,16.94c-1.59,7.65-4.53,14.36-7.37,20.85l-.81,1.85c-5,11.55-10.19,23.25-15.19,34.56l-1.84,4.18q-5.36,12.12-10.72,24.21-4.29,9.68-8.57,19.35-4.07,9.18-8.1,18.37-2.22,5.06-4.45,10.1l-.5,1.16a43.06,43.06,0,0,1-2.18,4.6A12.88,12.88,0,0,1,697,345.17c-3.74,0-7.34.06-10.83.06m-6.95-20.71c3.7,0,7.49,0,11.43,0-.11-.22-.22-.44-.33-.68l-.12-.28c-3.35-7.44-6.8-15.13-10.19-22.71q-4.07-9.12-8.12-18.23c-4.13-9.27-8.4-18.85-12.61-28.26-3-6.62-6-13.34-8.94-19.85q-4-9-8.08-17.93c-4.13-9.2-7.85-17.58-11.33-25.45H620.17c1.08,2.47,2.17,4.93,3.25,7.39q8.1,18.3,16.22,36.6l3.16,7.14,5.55,12.5q4.93,11.1,9.84,22.21,3.85,8.7,7.68,17.42l6.78,15.42c2.19,5,4.36,9.84,6.54,14.68m47.56-123.77h19.11a47.75,47.75,0,0,0,1.46-5.35,10,10,0,0,0,.06-4.9c-5.53.18-11,.13-16.32.07l-4.31,0Z" transform="translate(-97 -69)"/><path class="cls-4" d="M882.48,321.27v14.5H764.86V180.87H882.48v15.19c-1.22-.77-2.21-1.44-3.23-2.06-8.37-5-17.64-7.26-27.16-8.66-13.69-2-27.47-2-41.26-2q-5.79,0-11.58,0h-2.11c0,4.15,0,8.05,0,12,0,7.44.07,14.87,0,22.3,0,1.72.37,2.36,2.23,2.46a176.6,176.6,0,0,1,39.32,6.13c11.53,3.26,22.61,7.57,32,15.31,6.61,5.46,10.48,12.22,9,21.11-1,6-4.29,10.64-8.85,14.48-8.91,7.52-19.45,11.85-30.46,15.15-13.2,3.95-26.76,5.75-40.5,6.41-.82,0-2.71.21-2.71.21v34.68c2.27,0,4.51,0,6.74,0,11.24-.24,22.48-.23,33.69-.86,11.42-.65,22.83-1.88,33.62-6.07,3.81-1.48,7.39-3.53,11.12-5.35m-85.17-23.74a3.11,3.11,0,0,0,.58.11c18.45-1.81,36.52-5.29,53.65-12.65,7-3,13.56-6.73,19-12.18,8.18-8.19,8.51-17.57.78-26.17-5.41-6-12.36-9.8-19.64-13a152.09,152.09,0,0,0-35.39-10.28c-6.23-1.08-12.51-1.85-19-2.79Z" transform="translate(-97 -69)"/><path class="cls-4" d="M882.48,346.12H764.86a10.36,10.36,0,0,1-10.36-10.35V180.87a10.36,10.36,0,0,1,10.36-10.36H882.48a10.35,10.35,0,0,1,10.35,10.36v15.19a10.44,10.44,0,0,1-5.38,9.16,10.25,10.25,0,0,1-10.55-.39l-1.2-.78c-.66-.44-1.23-.81-1.74-1.13-6-3.61-12.92-5.81-23.3-7.34-12.89-1.91-25.87-1.89-39.61-1.87h-3.68v1.56c0,2.09,0,4.17,0,6.26,0,2.85,0,5.76,0,8.68a179.75,179.75,0,0,1,34,6c10.51,3,24.08,7.62,35.81,17.29,12.93,10.64,14,22.62,12.66,30.78-1.31,7.92-5.48,14.88-12.4,20.71-11.28,9.5-24.22,14.16-34.23,17.15a170.47,170.47,0,0,1-35.77,6.38v14.57l6-.1c7.76-.11,15.78-.24,23.54-.67,10.1-.57,20.78-1.62,30.51-5.39a72.6,72.6,0,0,0,6.67-3.15c1.14-.59,2.33-1.19,3.55-1.79a10.55,10.55,0,0,1,7.76-.64,10.36,10.36,0,0,1,7.28,9.89v14.35a10.35,10.35,0,0,1-10.35,10.36M775.21,325.41h11.6V298.86a2.68,2.68,0,0,0,.15-.81c0-.18.26-.54.26-.54V220.77c0-.18,0-.37,0-.55a14.85,14.85,0,0,1-.18-2.53c.05-5.26,0-10.65,0-15.86q0-3.15,0-6.31v-3.88H775.21Zm32.31-92.77V286c15.36-2.17,28.2-5.6,39.79-10.57,6.91-3,11.92-6.14,15.76-10,4.32-4.32,4.43-7.45.4-11.92-4.42-4.92-10.61-8-16.09-10.43a141.52,141.52,0,0,0-33-9.56c-2.26-.39-4.54-.74-6.85-1.08" transform="translate(-97 -69)"/><path class="cls-4" d="M623.5,260.67c-.21,16.95-7,35.05-21,50.38-12.36,13.54-27.6,22.16-45.57,25.28-27.34,4.74-51.74-1.9-72.17-21a77.7,77.7,0,0,1-23.9-43.59,76.7,76.7,0,0,1,9.21-53.56c11-19.06,27.24-31.76,48.33-37.88A82.63,82.63,0,0,1,612.8,217.8c7.06,12.06,10.57,25.17,10.7,42.87m-15.87-9.47a87.06,87.06,0,0,0-4-26c-2.91-9.65-7-18.66-13.67-26.31-13-14.94-29.44-20.22-48.7-16.5-15.48,3-27.57,11.71-36.77,24.16-13.52,18.28-18.68,39.15-17.45,61.65.77,14.13,4.26,27.56,11.53,39.84,4.55,7.69,10.26,14.41,18.14,18.82,17.74,9.93,35.56,9.08,52.91-.84,14.19-8.12,23.68-20.54,30.05-35.42a101.84,101.84,0,0,0,7.92-39.39" transform="translate(-97 -69)"/><path class="cls-4" d="M540.44,348.15a90.79,90.79,0,0,1-25-3.43,92.3,92.3,0,0,1-37.71-21.83,87.8,87.8,0,0,1-27-49.31A86.92,86.92,0,0,1,461.12,213c12.36-21.41,30.67-35.75,54.42-42.65a93,93,0,0,1,106.2,42.23c8.24,14.08,12,28.89,12.12,48v.21c-.26,20.45-8.67,40.77-23.7,57.23-14.08,15.44-31.39,25-51.44,28.5a106.8,106.8,0,0,1-18.28,1.62m12.28-156.56a49.35,49.35,0,0,0-9.45,1c-12.19,2.34-22.13,8.94-30.42,20.15-11.55,15.63-16.6,33.6-15.43,54.93.73,13.39,4,24.88,10.1,35.12,4.27,7.21,8.81,12,14.28,15.07,14.06,7.86,28,7.6,42.71-.8,11.25-6.43,19.65-16.41,25.68-30.5a91,91,0,0,0,7.08-35.43,76.06,76.06,0,0,0-3.51-22.91c-2.9-9.61-6.58-16.76-11.58-22.51-8.19-9.42-17.9-14.08-29.46-14.08m-61.09,15.53a73.52,73.52,0,0,0-12.58,16.22,68.81,68.81,0,0,0,2.86,73,103.52,103.52,0,0,1-5.17-27.53c-1.26-23,3.74-43.73,14.89-61.64m116,44.16Z" transform="translate(-97 -69)"/><path class="cls-4" d="M399.56,332.64c4.67,0,9.09,0,13.51,0,15.26-.11,30.5-.71,45.62-2.87,8.78-1.25,17.5-2.91,25.54-6.91,1.65-.82,3.2-1.84,5.23-3-.76,3.93-1.41,7.47-2.13,11-.8,3.94-.82,4-5,4l-91.32,0c-7.21,0-14.42,0-21.63,0-.82,0-1.63,0-2.53,0V180h32.72Z" transform="translate(-97 -69)"/><path class="cls-4" d="M481.74,344.93l-90.78,0-14.56,0h-6.95l-1.64.41h-.93a10.38,10.38,0,0,1-10.39-10.37V180a10.35,10.35,0,0,1,10.35-10.35h32.72A10.35,10.35,0,0,1,409.92,180V322.39h3c12.11-.08,28.05-.47,43.94-2.75,8.74-1.26,15.87-2.75,22.22-5.93.72-.36,1.55-.86,2.59-1.5l1.82-1.09a10.56,10.56,0,0,1,9.53-.69,10.37,10.37,0,0,1,6.06,11.47c-.23,1.22-.46,2.4-.68,3.56-.49,2.59-.95,5-1.45,7.52-.57,2.81-1.35,6.66-4.94,9.51s-7.19,2.75-10.19,2.75M377.2,324.38l12,0v-134h-12Z" transform="translate(-97 -69)"/></g><g class="cls-3"><path class="cls-7" d="M616.59,432.68h32.72v61.9c2.5-2.12,4.67-3.94,6.82-5.78q21.43-18.32,42.88-36.62c5.93-5,11.92-10,18.09-14.71a25.8,25.8,0,0,1,18.34-5.56c3.81.31,7.67,0,11.61,0v31.78h-7.64c-8.33,0-16.67,0-25,0a1.91,1.91,0,0,1-2.2-1.52c-1.47-4.06-3.15-8.05-5-12.54l-34.11,28.42c27.6,36.38,55.1,72.62,83,109.34H751.6c-3,0-5.92.11-8.87-.1a4.86,4.86,0,0,1-3.11-1.47c-4.47-5.58-8.76-11.29-13.15-16.93q-9.76-12.51-19.58-25Q691,523.77,675,503.62l-12.75-16.16c-2.82,2.32-5.24,4.88-8.16,6.58-4.59,2.67-5.07,6.5-5,11.29.2,26.44.1,52.89.11,79.34,0,2.94,0,3-2.9,3l-57.84,0c-.34,0-.69,0-1,0-4.05.12-4,.08-5.48-3.44-2.89-6.7-5.87-13.35-8.83-20q-4.93-11.13-9.89-22.25c-3.93-8.79-7.89-17.57-11.81-26.37-5.21-11.68-10.38-23.39-15.61-35.06q-7.44-16.59-15-33.13c-.11-.25-.27-.47-.65-1.14-16.06,37.1-32,73.89-48.09,111.14h32.64v31H493.61c-7,0-14.07-.17-21.09.06-4.3.15-6.87-2-8.52-6.64-1.95-5.44-.87-10.87,1.06-16,3.09-8.25,6.49-16.39,10-24.48,6.29-14.55,12.74-29,19.14-43.53q8.47-19.19,17-38.37c3.59-8.12,7.19-16.25,10.74-24.39.51-1.19,1-1.9,2.51-1.88,7.31.08,14.61.1,21.92,0a2.83,2.83,0,0,1,3.08,2q9.4,21.51,18.92,43,11.4,25.82,22.81,51.61,11.13,25.25,22.2,50.52a45.36,45.36,0,0,0,3.25,6.3Z" transform="translate(-97 -69)"/><path class="cls-8" d="M616.59,432.68h32.72v61.9c2.5-2.12,4.67-3.94,6.82-5.78q21.43-18.32,42.88-36.62c5.93-5,11.92-10,18.09-14.71a25.8,25.8,0,0,1,18.34-5.56c3.81.31,7.67,0,11.61,0v31.78h-7.64c-8.33,0-16.67,0-25,0a1.91,1.91,0,0,1-2.2-1.52c-1.47-4.06-3.15-8.05-5-12.54l-34.11,28.42c27.6,36.38,55.1,72.62,83,109.34H751.6c-3,0-5.92.11-8.87-.1a4.86,4.86,0,0,1-3.11-1.47c-4.47-5.58-8.76-11.29-13.15-16.93q-9.76-12.51-19.58-25Q691,523.77,675,503.62l-12.75-16.16c-2.82,2.32-5.24,4.88-8.16,6.58-4.59,2.67-5.07,6.5-5,11.29.2,26.44.1,52.89.11,79.34,0,2.94,0,3-2.9,3l-57.84,0c-.34,0-.69,0-1,0-4.05.12-4,.08-5.48-3.44-2.89-6.7-5.87-13.35-8.83-20q-4.93-11.13-9.89-22.25c-3.93-8.79-7.89-17.57-11.81-26.37-5.21-11.68-10.38-23.39-15.61-35.06q-7.44-16.59-15-33.13c-.11-.25-.27-.47-.65-1.14-16.06,37.1-32,73.89-48.09,111.14h32.64v31H493.61c-7,0-14.07-.17-21.09.06-4.3.15-6.87-2-8.52-6.64-1.95-5.44-.87-10.87,1.06-16,3.09-8.25,6.49-16.39,10-24.48,6.29-14.55,12.74-29,19.14-43.53q8.47-19.19,17-38.37c3.59-8.12,7.19-16.25,10.74-24.39.51-1.19,1-1.9,2.51-1.88,7.31.08,14.61.1,21.92,0a2.83,2.83,0,0,1,3.08,2q9.4,21.51,18.92,43,11.4,25.82,22.81,51.61,11.13,25.25,22.2,50.52a45.36,45.36,0,0,0,3.25,6.3Z" transform="translate(-97 -69)"/><path class="cls-7" d="M788.88,549.48v34.68a16.66,16.66,0,0,0,1.89.15c16.35-.55,32.72-.78,49.05-1.79a74,74,0,0,0,30-8c1.45-.75,2.78-1.72,4.39-2.72v14.51H756.57V431.44H874.2v14.65c-3-1.53-6-3.21-9.18-4.62-7.42-3.34-15.33-4.93-23.35-6-17.23-2.22-34.56-1.62-51.87-1.63a10.24,10.24,0,0,0-1.13.21v13.07c0,7,0,13.94,0,20.91,0,1.77.48,2.44,2.39,2.65,9,1,18,1.81,26.85,3.31a112.17,112.17,0,0,1,31.36,10c6,3,11.61,6.29,16.25,11.16,9.16,9.63,7.72,21.27-.31,30-6,6.51-13.75,10.24-21.68,13.67-13.31,5.74-27.37,8.34-41.67,9.83-4.18.43-8.38.54-12.83.82m-.11-78.29v77.28c4.33-.52,8.45-.92,12.53-1.53a172.11,172.11,0,0,0,37.77-9.62c8.57-3.37,16.69-7.51,23.28-14.18,7.74-7.81,8.08-17.45.69-25.62-7.15-7.91-16.53-12.25-26.27-15.86a169.31,169.31,0,0,0-35.43-8.8c-4.13-.58-8.29-1.07-12.57-1.61" transform="translate(-97 -69)"/><path class="cls-8" d="M788.88,549.35v34.9c.7,0,1.29.16,1.89.14,16.35-.55,32.72-.77,49.05-1.79a74,74,0,0,0,30-8c1.45-.76,2.78-1.72,4.39-2.72v14.43h-118V431.44h118V446c-3-1.52-6-3.2-9.19-4.62-7.43-3.34-15.35-4.92-23.38-6-17.26-2.22-34.61-1.61-51.94-1.63a9,9,0,0,0-1.14.22V447c0,7,0,13.94,0,20.91,0,1.77.48,2.44,2.4,2.64,9,1,18,1.82,26.89,3.32a112.84,112.84,0,0,1,31.4,10c6,3,11.62,6.3,16.26,11.17,9.18,9.63,7.74,21.26-.3,30-6,6.51-13.77,10.24-21.71,13.66-13.33,5.74-27.41,8.35-41.73,9.83C797.54,549,793.33,549.08,788.88,549.35Zm0-78.09v77.22c4.33-.52,8.45-.92,12.53-1.53a172.11,172.11,0,0,0,37.77-9.62c8.57-3.37,16.69-7.51,23.28-14.18,7.74-7.81,8.08-17.45.69-25.62-7.15-7.91-16.53-12.25-26.27-15.86a169.31,169.31,0,0,0-35.43-8.8C797.32,472.29,793.16,471.8,788.88,471.26Z" transform="translate(-97 -69)"/><path class="cls-8" d="M440.15,587.58H407.43V435.76c-18.91,1.45-37.44,2.95-54.25,12.84V433.51H494v15c-16.61-9.87-35.16-11-53.84-12.61Z" transform="translate(-97 -69)"/></g><g class="cls-9"><path class="cls-10" d="M629.79,384.84c3.79-1.45,5.08-3.23,5.08-6.77q0-10.14,0-20.28c0-.61.08-1.23.13-1.93h9.74v7.21a6.66,6.66,0,0,0,.68-.56c5-6.53,11.37-7.36,18.78-5.41,3.84,1,5.69,3.78,5.71,7.77,0,2.47,0,4.95,0,7.43a2.45,2.45,0,0,1-.16.54h-9a9.91,9.91,0,0,1,1.27-7.57c1.75-2.63.83-5.58-2.19-6.49-7.18-2.18-14.32,3-14.83,11.08-.38,6-.15,12-.17,18,0,4.32,0,8.65,0,13.18h-9.94V383.44c-2,1.45-3.86,2.66-5.58,4a6,6,0,0,0-1.49,1.91c-5,9.18-14.62,14-25.38,12.56a24.44,24.44,0,0,1-20.12-18.42c-2.94-12.11,5.11-25.37,17.2-28.35,12.64-3.11,24.22,2.43,29.3,14.1A22.56,22.56,0,0,1,630.17,382c-.14.87-.3,1.73-.46,2.68m-12.58,3.88c1.31-.13,2.61-.33,3.91-.38,2-.07,3-1,3.55-3,1.84-7,1.82-13.79-1.35-20.38-2.75-5.72-7.16-9.19-13.71-9.34-7.82-.17-13.8,5.37-16.84,11.73a2.13,2.13,0,0,0-.09,1.18c1.94,11.26,12.86,20.21,24.53,20.18m-25.27-19.06a21.06,21.06,0,0,0-1,2.52,28.86,28.86,0,0,0,1.6,19.42c2.79,6,7.44,9.55,14.25,9.5,6.29-.05,13.24-5,15.41-10.74a25.63,25.63,0,0,1-19.44-3.83c-5.93-3.89-9.29-9.57-10.8-16.87" transform="translate(-97 -69)"/><path class="cls-11" d="M629.75,384.72c3.76-1.45,5-3.22,5-6.75q0-10.1,0-20.19c0-.61.08-1.22.12-1.92h9.83v7.21a5.61,5.61,0,0,0,.68-.56c5-6.53,11.45-7.36,18.91-5.41,3.86,1,5.73,3.78,5.74,7.77,0,2.47,0,4.95,0,7.43a2.67,2.67,0,0,1-.17.54h-9.08a9.84,9.84,0,0,1,1.26-7.56c1.77-2.63.85-5.59-2.19-6.5-7.23-2.18-14.42,3-14.93,11.08-.38,6-.15,12-.17,18,0,4.32,0,8.65,0,13.18h-9.94V383.46c-2,1.44-3.83,2.65-5.53,4a6,6,0,0,0-1.48,1.9c-4.93,9.14-14.49,13.91-25.16,12.51a24.28,24.28,0,0,1-19.94-18.34c-2.91-12.06,5.07-25.26,17-28.23,12.52-3.1,24,2.42,29,14a22.53,22.53,0,0,1,1.42,12.73C630.08,382.92,629.91,383.78,629.75,384.72Zm-12.62,3.87c1.31-.13,2.61-.33,3.91-.38,2-.07,3-1,3.55-3,1.84-7,1.82-13.79-1.35-20.38-2.75-5.72-7.16-9.19-13.71-9.34-7.82-.17-13.8,5.37-16.84,11.73a2.13,2.13,0,0,0-.09,1.18C594.54,379.67,605.46,388.62,617.13,388.59Zm-25.27-19.06a21.06,21.06,0,0,0-1,2.52,28.86,28.86,0,0,0,1.6,19.42c2.79,6,7.44,9.55,14.25,9.5,6.29-.05,13.24-5,15.41-10.74a25.63,25.63,0,0,1-19.44-3.83C596.73,382.51,593.37,376.83,591.86,369.53Z" transform="translate(-97 -69)"/></g><g class="cls-12"><path class="cls-7" d="M629.73,384.43c3.79-1.45,5.08-3.23,5.08-6.77q0-10.14,0-20.28c0-.62.08-1.23.13-1.94h9.8v7.63a6.66,6.66,0,0,0,.68-.56c5-6.53,11.37-7.36,18.78-5.41,3.84,1,5.69,3.78,5.71,7.77,0,2.47,0,4.95,0,7.43a2.45,2.45,0,0,1-.16.54h-9a9.91,9.91,0,0,1,1.27-7.57c1.75-2.63.83-5.58-2.19-6.49-7.18-2.18-14.32,3-14.83,11.08-.38,6-.15,12-.17,18,0,4.32,0,8.65,0,13.18h-9.94V383.33c-2,1.45-3.86,2.66-5.58,4a6.09,6.09,0,0,0-1.49,1.91c-5,9.19-14.62,14-25.38,12.57a24.45,24.45,0,0,1-20.12-18.42c-2.94-12.11,5.11-25.38,17.2-28.35,12.64-3.12,24.22,2.42,29.3,14.1a22.54,22.54,0,0,1,1.43,12.78c-.14.87-.3,1.74-.46,2.68m-12.64,3.89c1.3-.13,2.61-.33,3.91-.38,2-.07,3-1.05,3.55-3,1.84-7,1.82-13.79-1.35-20.38-2.75-5.73-7.16-9.2-13.71-9.34-7.83-.17-13.8,5.37-16.84,11.73a2.13,2.13,0,0,0-.09,1.18c1.94,11.26,12.86,20.21,24.53,20.18M591.8,369.41a21.77,21.77,0,0,0-1,2.53,28.86,28.86,0,0,0,1.6,19.42c2.79,6,7.44,9.55,14.25,9.5,6.29-.05,13.24-5,15.41-10.74a25.67,25.67,0,0,1-19.44-3.83c-5.93-3.89-9.29-9.57-10.8-16.88" transform="translate(-97 -69)"/><path class="cls-11" d="M629.75,384.72c3.76-1.45,5-3.22,5-6.75q0-10.1,0-20.19c0-.61.08-1.22.12-1.92h9.83v7.21a5.61,5.61,0,0,0,.68-.56c5-6.53,11.45-7.36,18.91-5.41,3.86,1,5.73,3.78,5.74,7.77,0,2.47,0,4.95,0,7.43a2.67,2.67,0,0,1-.17.54h-9.08a9.84,9.84,0,0,1,1.26-7.56c1.77-2.64.85-5.59-2.19-6.5-7.23-2.18-14.42,3-14.93,11.08-.38,6-.15,12-.17,18,0,4.32,0,8.65,0,13.18h-9.94V383.46c-2,1.44-3.83,2.65-5.53,4a6,6,0,0,0-1.48,1.9c-4.93,9.14-14.49,13.91-25.16,12.51a24.28,24.28,0,0,1-19.94-18.34c-2.91-12.06,5.07-25.26,17-28.23,12.52-3.1,24,2.42,29,14a22.53,22.53,0,0,1,1.42,12.73C630.08,382.92,629.91,383.78,629.75,384.72Zm-12.68,3.76c1.3-.13,2.61-.33,3.91-.38,2-.07,3-1.05,3.55-3,1.84-7,1.82-13.79-1.35-20.38-2.75-5.73-7.16-9.2-13.71-9.34-7.83-.17-13.8,5.37-16.84,11.73a2.13,2.13,0,0,0-.09,1.18C594.48,379.56,605.4,388.51,617.07,388.48ZM591.8,369.41a21.77,21.77,0,0,0-1,2.53,28.86,28.86,0,0,0,1.6,19.42c2.79,6,7.44,9.55,14.25,9.5,6.29-.05,13.24-5,15.41-10.74a25.67,25.67,0,0,1-19.44-3.83C596.67,382.4,593.31,376.72,591.8,369.41Z" transform="translate(-97 -69)"/></g><g class="cls-3"><path class="cls-10" d="M741.25,205.72H708.53V174.78H716c8.12,0,16.26.27,24.38-.06,4.94-.21,7.38,3,8.61,6.24a19.57,19.57,0,0,1,.56,11.17c-1.51,7.27-4.61,14-7.54,20.69q-8.41,19.37-17,38.68-9.62,21.79-19.28,43.56-6.3,14.24-12.56,28.48c-.72,1.63-1.36,3.32-2.23,4.87a2.56,2.56,0,0,1-1.82,1.15q-11.58.12-23.16,0a2.66,2.66,0,0,1-1.85-1.43c-3-6.43-5.82-12.9-8.68-19.38Q648.21,292.32,641,275.9q-7.66-17.37-15.38-34.7-9.71-21.87-19.39-43.75c-3.17-7.16-6.3-14.33-9.56-21.75.79-.07,1.36-.17,1.93-.17,9.79,0,19.58,0,29.37,0a2.44,2.44,0,0,1,2.68,1.63q6.58,15,13.31,30c5.65,12.6,11.37,25.18,17,37.78q10.39,23.24,20.73,46.5,5.13,11.49,10.3,23c.28.61.63,1.19,1.22,2.3l48.18-110.9" transform="translate(-97 -69)"/><path class="cls-8" d="M741.41,205.72H708.53V174.78H716c8.12,0,16.26.27,24.38-.06,4.94-.21,7.38,3,8.61,6.24a19.57,19.57,0,0,1,.56,11.17c-1.51,7.27-4.61,14-7.54,20.69q-8.41,19.37-17,38.68-9.62,21.79-19.28,43.56-6.3,14.24-12.56,28.48c-.72,1.63-1.36,3.32-2.23,4.87a2.56,2.56,0,0,1-1.82,1.15q-11.58.12-23.16,0a2.66,2.66,0,0,1-1.85-1.43c-3-6.43-5.82-12.9-8.68-19.38Q648.21,292.32,641,275.9q-7.66-17.37-15.38-34.7-9.71-21.87-19.39-43.75c-3.17-7.16-6.3-14.33-9.56-21.75.79-.07,1.36-.17,1.93-.17,9.79,0,19.58,0,29.37,0a2.44,2.44,0,0,1,2.68,1.63q6.58,15,13.31,30c5.65,12.6,11.37,25.18,17,37.78q10.39,23.24,20.73,46.5,5.13,11.49,10.3,23c.28.61.63,1.19,1.22,2.3Z" transform="translate(-97 -69)"/><path class="cls-10" d="M874.61,315.89v14.49H757V175.48H875v15.2c-1.45-.77-2.43-1.45-3.45-2.06-8.37-5-17.64-7.27-27.16-8.66-13.69-2-27.47-2-41.26-2q-5.79,0-11.58,0h-2.12c0,4.15,0,8.05,0,11.95,0,7.43.07,14.87,0,22.3,0,1.72.37,2.36,2.23,2.45A177.29,177.29,0,0,1,831,220.81c11.53,3.26,22.61,7.57,32,15.31,6.61,5.45,10.48,12.22,9,21.1-1,6-4.29,10.64-8.85,14.49-8.91,7.52-19.45,11.84-30.46,15.14-13.2,4-26.77,5.76-40.5,6.41-.82,0-2.49.21-2.49.21v34.69c2.26,0,4.5,0,6.74,0,11.23-.25,22.48-.23,33.69-.87,11.42-.64,22.83-1.88,33.62-6.07,3.8-1.48,7.38-3.53,11.11-5.34m-85.16-23.75a3.06,3.06,0,0,0,.57.11c18.46-1.81,36.52-5.29,53.66-12.64,7-3,13.55-6.73,19-12.18,8.18-8.19,8.5-17.57.78-26.17-5.41-6-12.36-9.8-19.64-13A153,153,0,0,0,808.68,218c-6.22-1.08-12.5-1.84-19-2.78Z" transform="translate(-97 -69)"/><path class="cls-8" d="M875,315.85v14.53H757V175.48H874.61v16.23c-1.2-.84-2.18-1.57-3.2-2.23-8.36-5.45-17.61-7.87-27.12-9.38-13.67-2.17-27.43-2.15-41.19-2.13H789.56V189.9c0,7.43.08,14.87,0,22.3,0,1.72.37,2.36,2.23,2.45a178,178,0,0,1,39.4,6.14c11.54,3.26,22.64,7.57,32,15.31,6.62,5.45,10.5,12.22,9,21.1-1,6-4.29,10.64-8.86,14.49-8.93,7.52-19.48,11.84-30.51,15.14-13.23,4-26.82,5.76-40.58,6.41-.82,0-1.63.13-2.59.21v34.69c2.27,0,4.51,0,6.75,0,11.25-.25,22.52-.23,33.75-.86,11.44-.65,22.87-1.89,33.68-6.08C867.7,319.72,871.29,317.66,875,315.85Zm-85.32-23.73a3.06,3.06,0,0,0,.57.11c18.46-1.81,36.52-5.29,53.66-12.64,7-3,13.55-6.73,19-12.18,8.18-8.19,8.5-17.57.78-26.17-5.41-6-12.36-9.8-19.64-13A153,153,0,0,0,808.68,218c-6.22-1.08-12.5-1.84-19-2.78Z" transform="translate(-97 -69)"/><path class="cls-10" d="M615.83,255.28c-.21,17-7,35.06-21,50.39-12.35,13.54-27.59,22.16-45.56,25.27-27.34,4.74-51.74-1.9-72.17-21a77.69,77.69,0,0,1-23.9-43.6,76.7,76.7,0,0,1,9.21-53.56,79.71,79.71,0,0,1,48.33-37.88,82.63,82.63,0,0,1,94.38,37.51c7.06,12.06,10.57,25.17,10.7,42.87M600,245.81a87,87,0,0,0-4-26c-2.91-9.65-7-18.66-13.67-26.32-13-14.94-29.44-20.21-48.7-16.5-15.49,3-27.57,11.71-36.78,24.17-13.51,18.28-18.67,39.14-17.44,61.65.77,14.13,4.26,27.55,11.53,39.83,4.55,7.7,10.26,14.42,18.14,18.83,17.73,9.93,35.56,9.08,52.9-.84,14.19-8.12,23.69-20.55,30.06-35.42a102,102,0,0,0,7.92-39.4" transform="translate(-97 -69)"/><path class="cls-8" d="M615.83,255.28c-.21,17-7,35.06-21,50.39-12.35,13.54-27.59,22.16-45.56,25.27-27.34,4.74-51.74-1.9-72.17-21a77.69,77.69,0,0,1-23.9-43.6,76.7,76.7,0,0,1,9.21-53.56,79.71,79.71,0,0,1,48.33-37.88,82.63,82.63,0,0,1,94.38,37.51C612.19,224.47,615.7,237.58,615.83,255.28ZM600,245.81a87,87,0,0,0-4-26c-2.91-9.65-7-18.66-13.67-26.32-13-14.94-29.44-20.21-48.7-16.5-15.49,3-27.57,11.71-36.78,24.17-13.51,18.28-18.67,39.14-17.44,61.65.77,14.13,4.26,27.55,11.53,39.83,4.55,7.7,10.26,14.42,18.14,18.83,17.73,9.93,35.56,9.08,52.9-.84,14.19-8.12,23.69-20.55,30.06-35.42A102,102,0,0,0,600,245.81Z" transform="translate(-97 -69)"/><path class="cls-10" d="M392.11,327.26c4.67,0,9.09,0,13.5,0,15.27-.1,30.5-.7,45.63-2.86,8.78-1.25,17.5-2.92,25.54-6.92,1.65-.82,3.2-1.84,5.23-3-.76,3.92-1.42,7.46-2.14,11-.8,3.94-.82,4-5,4l-91.33,0-21.63-.05h-2.52V174.65h32.72Z" transform="translate(-97 -69)"/><path class="cls-8" d="M392.11,327.26c4.67,0,9.09,0,13.5,0,15.27-.1,30.5-.7,45.63-2.86,8.78-1.25,17.5-2.92,25.54-6.92,1.65-.82,3.2-1.84,5.23-3-.76,3.92-1.42,7.46-2.14,11-.8,3.94-.82,4-5,4l-91.33,0-21.63-.05h-2.52V174.65h32.72Z" transform="translate(-97 -69)"/></g><g class="cls-3"><path class="cls-7" d="M616.59,432.68h32.72v61.9c2.5-2.12,4.67-3.94,6.82-5.78q21.43-18.32,42.88-36.62c5.93-5,11.92-10,18.09-14.71a25.8,25.8,0,0,1,18.34-5.56c3.81.32,7.67,0,11.61,0v31.78h-7.64c-8.33,0-16.67,0-25,0a1.91,1.91,0,0,1-2.2-1.52c-1.47-4.06-3.15-8.05-5-12.54l-34.11,28.42c27.6,36.38,55.1,72.62,83,109.34H751.6c-3,0-5.92.11-8.87-.1a4.86,4.86,0,0,1-3.11-1.47c-4.47-5.58-8.76-11.29-13.15-16.93q-9.76-12.51-19.58-25Q691,523.77,675,503.62l-12.75-16.16c-2.82,2.32-5.24,4.88-8.16,6.58-4.59,2.67-5.07,6.5-5,11.29.2,26.44.1,52.89.11,79.34,0,2.94,0,3-2.9,3q-28.92,0-57.84,0c-.34,0-.69,0-1,0-4.05.12-4,.08-5.48-3.44-2.89-6.7-5.87-13.35-8.83-20q-4.93-11.13-9.89-22.25c-3.93-8.79-7.89-17.57-11.81-26.37-5.21-11.68-10.38-23.39-15.61-35.06q-7.44-16.59-15-33.13c-.11-.25-.27-.47-.65-1.14-16.06,37.1-32,73.89-48.09,111.14h32.64v31H493.61c-7,0-14.07-.17-21.09.06-4.3.14-6.87-2-8.52-6.64-1.95-5.44-.87-10.87,1.06-16,3.09-8.25,6.49-16.39,10-24.48,6.29-14.55,12.74-29,19.14-43.53q8.47-19.19,17-38.37c3.59-8.12,7.19-16.25,10.74-24.39.51-1.19,1-1.89,2.51-1.88q11,.13,21.92,0a2.83,2.83,0,0,1,3.08,2q9.4,21.51,18.92,43,11.4,25.82,22.81,51.61,11.13,25.25,22.2,50.52a45.36,45.36,0,0,0,3.25,6.3Z" transform="translate(-97 -69)"/><path class="cls-13" d="M616.38,432.47h33.13v61.9c2.5-2.12,4.68-3.93,6.83-5.77,14.29-12.21,28.54-24.47,42.88-36.63,5.93-5,11.92-10,18.09-14.7a25.8,25.8,0,0,1,18.34-5.57c3.81.32,7.66.06,11.61.06v31.77h-7.64c-8.34,0-16.67,0-25,0a1.91,1.91,0,0,1-2.2-1.53c-1.47-4.06-3.16-8-4.95-12.54L673.35,477.9l83,109.35h-4.52c-3,0-5.93.1-8.87-.11a4.76,4.76,0,0,1-3.11-1.47c-4.47-5.57-8.76-11.29-13.15-16.92q-9.76-12.53-19.59-25-15.9-20.18-31.84-40.34c-4.21-5.32-8.41-10.66-12.75-16.16-2.82,2.33-5.24,4.88-8.16,6.58-4.59,2.67-5.07,6.5-5,11.29.2,26.45.11,52.9.12,79.34,0,2.95,0,3-2.9,3l-57.84,0h-1c-4,.12-4,.09-5.49-3.44-2.88-6.69-5.86-13.35-8.82-20q-4.94-11.13-9.89-22.25c-3.93-8.79-7.89-17.57-11.81-26.37C546.43,503.65,541.26,492,536,480.27q-7.44-16.57-15-33.13c-.12-.24-.27-.47-.66-1.14L472.32,557.14h32.23V588.2H493.41c-7,0-14.07-.18-21.1,0-4.3.15-6.87-2-8.52-6.64-1.94-5.44-.86-10.87,1.06-16,3.1-8.25,6.49-16.39,10-24.48,6.29-14.54,12.74-29,19.14-43.52q8.47-19.2,17-38.38c3.6-8.12,7.2-16.24,10.74-24.39.52-1.19,1-1.89,2.52-1.87q10.95.12,21.91,0a2.85,2.85,0,0,1,3.09,2q9.39,21.5,18.91,42.95,11.4,25.82,22.82,51.61,11.13,25.26,22.2,50.53a44.12,44.12,0,0,0,3.24,6.29Z" transform="translate(-97 -69)"/><path class="cls-7" d="M788.88,549.48v34.68a16.66,16.66,0,0,0,1.89.15c16.35-.55,32.72-.78,49.05-1.79a74,74,0,0,0,30-8c1.45-.75,2.78-1.72,4.39-2.72v14.51H756.57V431.44H874.2V446c-3-1.53-6-3.21-9.18-4.62-7.42-3.34-15.33-4.92-23.35-6-17.23-2.22-34.56-1.62-51.87-1.63a10.24,10.24,0,0,0-1.13.21v13.07c0,7,0,13.94,0,20.91,0,1.77.48,2.44,2.39,2.65,9,1,18,1.82,26.85,3.31a112.5,112.5,0,0,1,31.36,10c6,3,11.61,6.29,16.25,11.16,9.16,9.63,7.72,21.27-.31,30-6,6.51-13.75,10.24-21.68,13.67-13.31,5.74-27.37,8.34-41.67,9.83-4.18.43-8.38.54-12.83.82m-.11-78.22v77.21c4.33-.52,8.45-.92,12.53-1.53a172.11,172.11,0,0,0,37.77-9.62c8.57-3.37,16.69-7.51,23.28-14.18,7.74-7.81,8.08-17.45.69-25.62-7.15-7.91-16.53-12.25-26.27-15.86a169.31,169.31,0,0,0-35.43-8.8c-4.13-.58-8.29-1.07-12.57-1.61" transform="translate(-97 -69)"/><path class="cls-13" d="M789.09,549.56v34.62a18.94,18.94,0,0,0,1.89.14c16.35-.55,32.72-.77,49-1.79a74,74,0,0,0,30-8c1.44-.76,2.78-1.72,4.38-2.72v14.7h-118V431.65h118v14.51c-3-1.52-6-3.21-9.18-4.62-7.44-3.34-15.36-4.92-23.39-6-17.25-2.22-34.6-1.62-51.93-1.63a9.79,9.79,0,0,0-1.14.21v13.07c0,7,0,13.94,0,20.91,0,1.77.48,2.44,2.39,2.65,9,1,18,1.82,26.89,3.32a112.3,112.3,0,0,1,31.4,10c6,3,11.63,6.29,16.27,11.16,9.18,9.64,7.74,21.27-.31,30-6,6.52-13.76,10.24-21.71,13.67-13.32,5.74-27.4,8.34-41.72,9.83C797.75,549.17,793.54,549.28,789.09,549.56Zm0-78.37v77.22c4.33-.52,8.44-.92,12.53-1.53a172.25,172.25,0,0,0,37.77-9.62c8.57-3.37,16.68-7.51,23.28-14.18,7.73-7.81,8.07-17.45.69-25.62-7.15-7.91-16.54-12.25-26.27-15.86a169.31,169.31,0,0,0-35.43-8.8C797.52,472.22,793.37,471.73,789.09,471.19Z" transform="translate(-97 -69)"/><path class="cls-7" d="M440.15,587.58H407.43V435.76c-18.91,1.45-37.44,2.95-54.25,12.84V433.51H494v15c-16.61-9.87-35.16-11-53.84-12.61Z" transform="translate(-97 -69)"/><path class="cls-13" d="M439.94,587.79h-32.3V436c-18.92,1.44-37.45,2.95-54.26,12.84V433.72H493.79v15c-16.62-9.87-35.17-11-53.85-12.61Z" transform="translate(-97 -69)"/><path class="cls-7" d="M616.59,432.68h32.72v61.9c2.5-2.12,4.67-3.94,6.82-5.78q21.43-18.32,42.88-36.62c5.93-5,11.92-10,18.09-14.71a25.8,25.8,0,0,1,18.34-5.56c3.81.32,7.67,0,11.61,0v31.78h-7.64c-8.33,0-16.67,0-25,0a1.91,1.91,0,0,1-2.2-1.52c-1.47-4.06-3.15-8.05-5-12.54l-34.11,28.42c27.6,36.38,55.1,72.62,83,109.34H751.6c-3,0-5.92.11-8.87-.1a4.86,4.86,0,0,1-3.11-1.47c-4.47-5.58-8.76-11.29-13.15-16.93q-9.76-12.51-19.58-25Q691,523.77,675,503.62l-12.75-16.16c-2.82,2.32-5.24,4.88-8.16,6.58-4.59,2.67-5.07,6.5-5,11.29.2,26.44.1,52.89.11,79.34,0,2.94,0,3-2.9,3l-57.84,0c-.34,0-.69,0-1,0-4.05.12-4,.08-5.48-3.44-2.89-6.69-5.87-13.35-8.83-20q-4.93-11.13-9.89-22.25c-3.93-8.79-7.89-17.57-11.81-26.37-5.21-11.68-10.38-23.38-15.61-35.06q-7.44-16.59-15-33.13c-.11-.25-.27-.47-.65-1.14-16.06,37.1-32,73.89-48.09,111.14h32.64v31H493.61c-7,0-14.07-.17-21.09.06-4.3.15-6.87-2-8.52-6.64-1.95-5.44-.87-10.87,1.06-16,3.09-8.25,6.49-16.39,10-24.48,6.29-14.55,12.74-29,19.14-43.53q8.47-19.19,17-38.37c3.59-8.12,7.19-16.25,10.74-24.39.51-1.19,1-1.89,2.51-1.88,7.31.08,14.61.1,21.92,0a2.83,2.83,0,0,1,3.08,2q9.4,21.51,18.92,43,11.4,25.82,22.81,51.61,11.13,25.25,22.2,50.52a45.36,45.36,0,0,0,3.25,6.3Z" transform="translate(-97 -69)"/><path class="cls-14" d="M616.79,432.47h32.72v61.9c2.51-2.12,4.68-3.93,6.83-5.77,14.29-12.21,28.54-24.47,42.88-36.63,5.93-5,11.92-10,18.09-14.7a25.8,25.8,0,0,1,18.34-5.57c3.81.32,7.66.06,11.61.06v31.77h-7.64c-8.34,0-16.67,0-25,0a1.91,1.91,0,0,1-2.2-1.53c-1.47-4.06-3.16-8-4.95-12.54L673.35,477.9l83,109.35h-4.52c-3,0-5.93.1-8.87-.11a4.76,4.76,0,0,1-3.11-1.47c-4.47-5.57-8.76-11.29-13.15-16.92q-9.76-12.53-19.59-25-15.9-20.18-31.84-40.34c-4.21-5.32-8.41-10.66-12.75-16.16-2.82,2.33-5.24,4.88-8.16,6.58-4.59,2.67-5.07,6.5-5,11.29.2,26.45.11,52.9.12,79.34,0,2.95,0,3-2.9,3l-57.84,0h-1c-4,.11-4,.08-5.49-3.45-2.88-6.69-5.86-13.35-8.82-20q-4.94-11.13-9.89-22.25c-3.93-8.79-7.89-17.57-11.81-26.37C546.43,503.65,541.26,492,536,480.27q-7.44-16.57-15-33.13c-.12-.24-.27-.47-.66-1.14L472.32,557.14H505V588.2H493.82c-7,0-14.07-.18-21.09,0-4.3.15-6.87-2-8.52-6.64-1.95-5.44-.87-10.87,1.06-16,3.09-8.25,6.48-16.39,10-24.48,6.29-14.54,12.74-29,19.14-43.52q8.46-19.2,17-38.38c3.59-8.12,7.19-16.24,10.73-24.39.52-1.19,1-1.89,2.52-1.88q10.95.14,21.91,0a2.84,2.84,0,0,1,3.09,2q9.4,21.5,18.92,42.95,11.4,25.82,22.81,51.61,11.13,25.26,22.2,50.53a45.18,45.18,0,0,0,3.24,6.29Z" transform="translate(-97 -69)"/><path class="cls-7" d="M789.29,549.48v34.68a16.84,16.84,0,0,0,1.89.15c16.36-.55,32.73-.78,49.05-1.79a74,74,0,0,0,30-8c1.44-.75,2.78-1.72,4.38-2.72v14.51h-118V431.44H874.2v14.64c-3-1.52-6-3.2-9.18-4.61-7.42-3.35-15.33-4.93-23.35-6-17.23-2.23-34.56-1.62-51.87-1.64-.19,0-.39.08-1.13.22v13.07c0,7,0,13.94,0,20.91,0,1.77.48,2.44,2.39,2.64,9,1,18,1.82,26.85,3.32a112.17,112.17,0,0,1,31.36,10c6,2.95,11.61,6.29,16.25,11.16,9.16,9.63,7.72,21.27-.31,30-6,6.51-13.75,10.24-21.68,13.66-13.31,5.75-27.37,8.35-41.67,9.83-4.18.44-8.38.55-12.83.82m.3-78.28v77.27c4.33-.52,8.45-.91,12.53-1.52a172.67,172.67,0,0,0,37.77-9.62c8.58-3.37,16.69-7.51,23.29-14.18,7.73-7.82,8.07-17.45.68-25.62-7.15-7.91-16.53-12.25-26.27-15.86a168.6,168.6,0,0,0-35.42-8.8c-4.14-.58-8.29-1.07-12.58-1.62" transform="translate(-97 -69)"/><path class="cls-14" d="M789.09,549.56v34.68a16.49,16.49,0,0,0,1.89.15c16.35-.55,32.72-.78,49-1.79a74,74,0,0,0,30-8c1.44-.76,2.78-1.72,4.38-2.73v14.64h-118V431.65h118v14.51c-3-1.52-6-3.21-9.18-4.62-7.44-3.34-15.36-4.92-23.39-6-17.25-2.22-34.6-1.62-51.93-1.63a9.79,9.79,0,0,0-1.14.21v13.07c0,7,0,13.94,0,20.91,0,1.77.48,2.44,2.39,2.65,9,1,18,1.82,26.89,3.32a112.3,112.3,0,0,1,31.4,10c6,3,11.63,6.29,16.27,11.16,9.18,9.64,7.74,21.27-.31,30-6,6.52-13.76,10.24-21.71,13.67-13.32,5.74-27.4,8.34-41.72,9.83C797.75,549.17,793.54,549.28,789.09,549.56Zm0-78.31v77.22c4.33-.52,8.44-.91,12.53-1.52a172.81,172.81,0,0,0,37.77-9.62c8.57-3.37,16.68-7.51,23.28-14.18,7.73-7.82,8.07-17.45.69-25.62-7.15-7.91-16.54-12.25-26.27-15.86a168.69,168.69,0,0,0-35.43-8.8C797.52,472.29,793.37,471.8,789.09,471.25Z" transform="translate(-97 -69)"/><path class="cls-7" d="M440.15,587.58h-32.3V435.76c-18.92,1.45-37.45,2.95-54.26,12.84V433.51H494v15c-16.61-9.87-35.16-11-53.84-12.61Z" transform="translate(-97 -69)"/><path class="cls-14" d="M440.36,587.79H407.64V436c-18.92,1.44-37.45,2.95-54.26,12.84V433.72H494.2v15c-16.61-9.87-35.16-11-53.84-12.62Z" transform="translate(-97 -69)"/></g><g class="cls-9"><path class="cls-10" d="M629.79,384.84c3.79-1.45,5.08-3.23,5.08-6.77q0-10.14,0-20.28c0-.61.08-1.23.13-1.93h9.74v7.21a6.66,6.66,0,0,0,.68-.56c5-6.53,11.37-7.36,18.78-5.41,3.84,1,5.69,3.78,5.71,7.77,0,2.47,0,4.95,0,7.43a2.45,2.45,0,0,1-.16.54h-9a9.91,9.91,0,0,1,1.27-7.57c1.75-2.63.83-5.58-2.19-6.49-7.18-2.18-14.32,3-14.83,11.08-.38,6-.15,12-.17,18,0,4.32,0,8.65,0,13.18h-9.94V383.44c-2,1.45-3.86,2.66-5.58,4a6,6,0,0,0-1.49,1.91c-5,9.18-14.62,14-25.38,12.56a24.44,24.44,0,0,1-20.12-18.42c-2.94-12.11,5.11-25.37,17.2-28.35,12.64-3.11,24.22,2.43,29.3,14.1A22.56,22.56,0,0,1,630.17,382c-.14.87-.3,1.73-.46,2.68m-12.58,3.88c1.31-.13,2.61-.33,3.91-.38,2-.07,3-1,3.55-3,1.84-7,1.82-13.79-1.35-20.38-2.75-5.72-7.16-9.19-13.71-9.34-7.82-.17-13.8,5.37-16.84,11.73a2.13,2.13,0,0,0-.09,1.18c1.94,11.26,12.86,20.21,24.53,20.18m-25.27-19.06a21.06,21.06,0,0,0-1,2.52,28.86,28.86,0,0,0,1.6,19.42c2.79,6,7.44,9.55,14.25,9.5,6.29-.05,13.24-5,15.41-10.74a25.63,25.63,0,0,1-19.44-3.83c-5.93-3.89-9.29-9.57-10.8-16.87" transform="translate(-97 -69)"/><path class="cls-15" d="M630,384.78c3.76-1.46,5-3.25,5-6.81q0-10.19,0-20.38c0-.61.08-1.23.12-1.94H645v7.63a5.18,5.18,0,0,0,.68-.57c5-6.53,11.45-7.36,18.91-5.4,3.86,1,5.73,3.78,5.74,7.76,0,2.48,0,5,0,7.44a2.62,2.62,0,0,1-.16.54H661a9.87,9.87,0,0,1,1.27-7.56c1.77-2.64.85-5.59-2.19-6.51-7.23-2.18-14.42,3-14.93,11.08-.38,6-.15,12-.18,18,0,4.33,0,8.65,0,13.19H635V383.5c-2,1.46-3.83,2.68-5.53,4a6,6,0,0,0-1.48,1.92c-4.93,9.23-14.49,14-25.16,12.62-9.49-1.26-17.63-8.81-20-18.51C580,371.39,588,358.06,600,355.07c12.52-3.13,24,2.44,29,14.17a23,23,0,0,1,1.42,12.84C630.28,383,630.12,383.83,630,384.78Zm-12.83,3.81c1.31-.13,2.61-.33,3.91-.38,2-.07,3-1,3.55-3,1.84-7,1.82-13.79-1.35-20.38-2.75-5.72-7.16-9.19-13.71-9.34-7.82-.17-13.8,5.37-16.84,11.73a2.13,2.13,0,0,0-.09,1.18C594.54,379.67,605.46,388.62,617.13,388.59Zm-25.27-19.06a21.06,21.06,0,0,0-1,2.52,28.86,28.86,0,0,0,1.6,19.42c2.79,6,7.44,9.55,14.25,9.5,6.29-.05,13.24-5,15.41-10.74a25.63,25.63,0,0,1-19.44-3.83C596.73,382.51,593.37,376.83,591.86,369.53Z" transform="translate(-97 -69)"/></g><g class="cls-12"><path class="cls-7" d="M629.73,384.43c3.79-1.45,5.08-3.23,5.08-6.77q0-10.14,0-20.28c0-.62.08-1.23.13-1.94h9.8v7.63a6.66,6.66,0,0,0,.68-.56c5-6.53,11.37-7.36,18.78-5.41,3.84,1,5.69,3.78,5.71,7.77,0,2.47,0,4.95,0,7.43a2.45,2.45,0,0,1-.16.54h-9a9.91,9.91,0,0,1,1.27-7.57c1.75-2.63.83-5.58-2.19-6.49-7.18-2.18-14.32,3-14.83,11.08-.38,6-.15,12-.17,18,0,4.32,0,8.65,0,13.18h-9.94V383.33c-2,1.45-3.86,2.66-5.58,4a6.09,6.09,0,0,0-1.49,1.91c-5,9.19-14.62,14-25.38,12.57a24.45,24.45,0,0,1-20.12-18.42c-2.94-12.11,5.11-25.38,17.2-28.35,12.64-3.12,24.22,2.42,29.3,14.1a22.54,22.54,0,0,1,1.43,12.78c-.14.87-.3,1.74-.46,2.68m-12.64,3.89c1.3-.13,2.61-.33,3.91-.38,2-.07,3-1.05,3.55-3,1.84-7,1.82-13.79-1.35-20.38-2.75-5.73-7.16-9.2-13.71-9.34-7.83-.17-13.8,5.37-16.84,11.73a2.13,2.13,0,0,0-.09,1.18c1.94,11.26,12.86,20.21,24.53,20.18M591.8,369.41a21.77,21.77,0,0,0-1,2.53,28.86,28.86,0,0,0,1.6,19.42c2.79,6,7.44,9.55,14.25,9.5,6.29-.05,13.24-5,15.41-10.74a25.67,25.67,0,0,1-19.44-3.83c-5.93-3.89-9.29-9.57-10.8-16.88" transform="translate(-97 -69)"/><path class="cls-15" d="M630,384.51c3.76-1.45,5-3.22,5-6.74q0-10.09,0-20.19c0-.61.08-1.23.12-1.93H645v7.21a6.66,6.66,0,0,0,.68-.56c5-6.53,11.45-7.36,18.91-5.4,3.86,1,5.73,3.77,5.74,7.76q0,3.72,0,7.43a2.31,2.31,0,0,1-.16.54H661a9.86,9.86,0,0,1,1.27-7.55c1.77-2.64.85-5.59-2.19-6.51-7.23-2.18-14.42,3-14.93,11.08-.38,6-.15,12-.18,18,0,4.32,0,8.65,0,13.19H635V383.25c-2,1.44-3.83,2.65-5.53,4a6,6,0,0,0-1.48,1.9c-4.93,9.14-14.49,13.91-25.16,12.51a24.3,24.3,0,0,1-20-18.34C580,371.24,588,358,600,355.07c12.52-3.1,24,2.42,29,14.05a22.58,22.58,0,0,1,1.42,12.72C630.28,382.71,630.12,383.57,630,384.51Zm-12.89,4c1.3-.13,2.61-.33,3.91-.38,2-.07,3-1.05,3.55-3,1.84-7,1.82-13.79-1.35-20.38-2.75-5.73-7.16-9.2-13.71-9.34-7.83-.17-13.8,5.37-16.84,11.73a2.13,2.13,0,0,0-.09,1.18C594.48,379.56,605.4,388.51,617.07,388.48ZM591.8,369.41a21.77,21.77,0,0,0-1,2.53,28.86,28.86,0,0,0,1.6,19.42c2.79,6,7.44,9.55,14.25,9.5,6.29-.05,13.24-5,15.41-10.74a25.67,25.67,0,0,1-19.44-3.83C596.67,382.4,593.31,376.72,591.8,369.41Z" transform="translate(-97 -69)"/></g><g class="cls-16"><path class="cls-7" d="M629.31,384.43c3.8-1.45,5.08-3.23,5.08-6.77,0-6.76,0-13.52,0-20.28,0-.62.07-1.23.12-1.94h9.81v7.21a4.35,4.35,0,0,0,.67-.56c5-6.53,11.38-7.36,18.79-5.4,3.84,1,5.69,3.77,5.7,7.76,0,2.48,0,5,0,7.44a2.65,2.65,0,0,1-.17.53h-9a9.91,9.91,0,0,1,1.26-7.57c1.76-2.62.84-5.57-2.19-6.49-7.17-2.18-14.31,3-14.82,11.08-.38,6-.15,12-.18,18,0,4.33,0,8.65,0,13.19H634.4v-17.5c-2,1.45-3.86,2.66-5.59,4a6.12,6.12,0,0,0-1.49,1.91c-5,9.18-14.61,14-25.38,12.56a24.47,24.47,0,0,1-20.12-18.42c-2.93-12.11,5.12-25.37,17.21-28.35,12.63-3.11,24.22,2.43,29.3,14.11a22.7,22.7,0,0,1,1.43,12.78c-.14.87-.3,1.74-.47,2.68m-12.63,3.88c1.3-.13,2.6-.33,3.91-.37,2-.08,3-1.05,3.54-3,1.84-7,1.83-13.78-1.34-20.37-2.75-5.73-7.17-9.2-13.72-9.34-7.82-.18-13.8,5.36-16.84,11.72a2.05,2.05,0,0,0-.08,1.18c1.93,11.26,12.86,20.22,24.53,20.18m-25.28-19.06a20.73,20.73,0,0,0-1,2.53,28.83,28.83,0,0,0,1.6,19.41c2.78,6,7.44,9.56,14.25,9.5,6.29-.05,13.23-5,15.41-10.74a25.66,25.66,0,0,1-19.44-3.82c-5.93-3.9-9.3-9.58-10.81-16.88" transform="translate(-97 -69)"/><path class="cls-17" d="M629.55,384.51c3.75-1.45,5-3.22,5-6.74q0-10.09,0-20.19c0-.61.07-1.23.12-1.93h9.82v7.21a7.35,7.35,0,0,0,.69-.56c5-6.53,11.44-7.36,18.9-5.4,3.87,1,5.73,3.77,5.74,7.76,0,2.48,0,5,0,7.43a2.49,2.49,0,0,1-.17.54h-9.08a9.81,9.81,0,0,1,1.26-7.55c1.77-2.64.85-5.59-2.19-6.51-7.22-2.18-14.41,3-14.93,11.08-.37,6-.15,12-.17,18,0,4.32,0,8.65,0,13.19H634.6V383.25c-2,1.44-3.82,2.65-5.53,4a6.16,6.16,0,0,0-1.48,1.9c-4.92,9.14-14.49,13.91-25.16,12.51-9.48-1.25-17.62-8.73-19.94-18.34-2.91-12.06,5.07-25.26,17-28.23,12.53-3.1,24,2.42,29.05,14.05A22.66,22.66,0,0,1,630,381.84C629.87,382.71,629.71,383.57,629.55,384.51Zm-12.89,3.73c1.3-.13,2.6-.33,3.91-.37,2-.08,3-1.05,3.54-3,1.84-7,1.83-13.78-1.34-20.37-2.75-5.73-7.17-9.2-13.72-9.34-7.82-.18-13.8,5.36-16.84,11.72a2.05,2.05,0,0,0-.08,1.18C594.06,379.32,605,388.28,616.66,388.24Zm-25.28-19.06a20.73,20.73,0,0,0-1,2.53,28.83,28.83,0,0,0,1.6,19.41c2.78,6,7.44,9.56,14.25,9.5,6.29-.05,13.23-5,15.41-10.74a25.66,25.66,0,0,1-19.44-3.82C596.26,382.16,592.89,376.48,591.38,369.18Z" transform="translate(-97 -69)"/></g><g class="cls-18"><path class="cls-10" d="M629.37,384.43c3.8-1.45,5.09-3.23,5.08-6.77q0-10.14,0-20.28c0-.62.08-1.23.12-1.94h9.75v7.21a4.35,4.35,0,0,0,.67-.56c5-6.53,11.38-7.36,18.79-5.4,3.84,1,5.69,3.77,5.7,7.76,0,2.48,0,5,0,7.44a2.65,2.65,0,0,1-.17.53h-9a9.91,9.91,0,0,1,1.26-7.57c1.76-2.62.84-5.57-2.19-6.49-7.17-2.18-14.31,3-14.82,11.08-.38,6-.15,12-.18,18,0,4.33,0,8.65,0,13.19H634.4V383.21c-2,1.44-3.86,2.66-5.59,4a6.24,6.24,0,0,0-1.49,1.91c-5,9.18-14.61,14-25.38,12.56a24.47,24.47,0,0,1-20.12-18.42c-2.93-12.1,5.12-25.37,17.21-28.35,12.63-3.11,24.22,2.43,29.3,14.11a22.61,22.61,0,0,1,1.43,12.78c-.14.87-.3,1.74-.47,2.68m-12.57,3.88c1.3-.13,2.6-.32,3.91-.37,2-.08,3-1.05,3.55-3,1.83-7,1.82-13.79-1.35-20.38-2.75-5.73-7.17-9.2-13.72-9.34-7.82-.17-13.8,5.37-16.84,11.72a2.17,2.17,0,0,0-.08,1.19c1.93,11.25,12.86,20.21,24.53,20.17m-25.28-19.06a21.39,21.39,0,0,0-1,2.53,28.83,28.83,0,0,0,1.6,19.41c2.79,6,7.44,9.56,14.25,9.51,6.29-.05,13.23-5,15.41-10.74a25.66,25.66,0,0,1-19.44-3.83c-5.93-3.89-9.3-9.57-10.81-16.88" transform="translate(-97 -69)"/><path class="cls-17" d="M629.55,384.51c3.75-1.45,5-3.22,5-6.74q0-10.09,0-20.19c0-.61.07-1.23.12-1.93h9.82v7.21a7.35,7.35,0,0,0,.69-.56c5-6.53,11.44-7.36,18.9-5.4,3.87,1,5.73,3.77,5.74,7.76,0,2.48,0,5,0,7.43a2.49,2.49,0,0,1-.17.54h-9.08a9.81,9.81,0,0,1,1.26-7.55c1.77-2.64.85-5.59-2.19-6.51-7.22-2.18-14.41,3-14.93,11.08-.37,6-.15,12-.17,18,0,4.32,0,8.65,0,13.19H634.6V383.25c-2,1.44-3.82,2.65-5.53,4a6.16,6.16,0,0,0-1.48,1.9c-4.92,9.14-14.49,13.91-25.16,12.51-9.48-1.25-17.62-8.73-19.94-18.34-2.91-12.06,5.07-25.26,17-28.23,12.53-3.1,24,2.42,29.05,14.05A22.66,22.66,0,0,1,630,381.84C629.87,382.71,629.71,383.57,629.55,384.51Zm-12.83,3.84c1.3-.13,2.6-.32,3.91-.37,2-.08,3-1.05,3.55-3,1.83-7,1.82-13.79-1.35-20.38-2.75-5.73-7.17-9.2-13.72-9.34-7.82-.17-13.8,5.37-16.84,11.72a2.17,2.17,0,0,0-.08,1.19C594.12,379.43,605.05,388.39,616.72,388.35Zm-25.28-19.06a21.39,21.39,0,0,0-1,2.53,28.83,28.83,0,0,0,1.6,19.41c2.79,6,7.44,9.56,14.25,9.51,6.29-.05,13.23-5,15.41-10.74a25.66,25.66,0,0,1-19.44-3.83C596.32,382.28,593,376.6,591.44,369.29Z" transform="translate(-97 -69)"/></g><g class="cls-3"><path class="cls-10" d="M741.25,205.72H708.53V174.78H716c8.12,0,16.26.27,24.38-.06,4.94-.21,7.38,3,8.61,6.24a19.57,19.57,0,0,1,.56,11.17c-1.51,7.27-4.61,14-7.54,20.69q-8.41,19.37-17,38.68-9.62,21.79-19.28,43.56-6.3,14.24-12.56,28.48c-.72,1.63-1.36,3.32-2.23,4.87a2.56,2.56,0,0,1-1.82,1.15q-11.58.12-23.16,0a2.66,2.66,0,0,1-1.85-1.43c-3-6.43-5.82-12.9-8.68-19.38Q648.21,292.32,641,275.9q-7.66-17.37-15.38-34.7-9.71-21.87-19.39-43.75c-3.17-7.16-6.3-14.33-9.56-21.75.79-.07,1.36-.17,1.93-.17,9.79,0,19.58,0,29.37,0a2.44,2.44,0,0,1,2.68,1.63q6.58,15,13.31,30c5.65,12.6,11.37,25.18,17,37.78q10.39,23.24,20.73,46.5,5.13,11.49,10.3,23c.28.61.63,1.19,1.22,2.3l48.18-110.9" transform="translate(-97 -69)"/><path class="cls-13" d="M741.61,205.51H708.74V174.58c2.48,0,5,0,7.5,0,8.13,0,16.27.27,24.38-.07,5-.21,7.39,3,8.62,6.25a19.61,19.61,0,0,1,.56,11.16c-1.52,7.27-4.61,14-7.54,20.69q-8.43,19.38-17,38.69-9.62,21.78-19.28,43.55-6.3,14.23-12.56,28.48c-.72,1.64-1.36,3.32-2.23,4.87a2.57,2.57,0,0,1-1.83,1.16q-11.58.11-23.16,0a2.72,2.72,0,0,1-1.85-1.42c-3-6.44-5.82-12.91-8.68-19.39-4.83-10.94-9.62-21.89-14.45-32.83q-7.66-17.35-15.39-34.69-9.69-21.88-19.38-43.76c-3.17-7.16-6.3-14.33-9.56-21.75.79-.07,1.36-.17,1.93-.17,9.79,0,19.57,0,29.36,0a2.45,2.45,0,0,1,2.68,1.63q6.6,15,13.31,30c5.66,12.6,11.38,25.18,17,37.79q10.41,23.23,20.74,46.5,5.13,11.47,10.3,22.95c.28.62.63,1.2,1.22,2.31Z" transform="translate(-97 -69)"/><path class="cls-10" d="M874.61,315.89v14.49H757V175.48H875v15.2c-1.45-.77-2.43-1.45-3.45-2.06-8.37-5-17.64-7.27-27.16-8.66-13.69-2-27.47-2-41.26-2q-5.79,0-11.58,0h-2.12c0,4.15,0,8.05,0,11.95,0,7.43.07,14.87,0,22.3,0,1.72.37,2.36,2.23,2.45A177.29,177.29,0,0,1,831,220.81c11.53,3.26,22.61,7.57,32,15.31,6.61,5.45,10.48,12.22,9,21.1-1,6-4.29,10.64-8.85,14.49-8.91,7.52-19.45,11.84-30.46,15.14-13.2,4-26.77,5.76-40.5,6.41-.82,0-2.49.21-2.49.21v34.69c2.26,0,4.5,0,6.74,0,11.23-.25,22.48-.23,33.69-.87,11.42-.64,22.83-1.88,33.62-6.07,3.8-1.48,7.38-3.53,11.11-5.34m-85.16-23.75a3.06,3.06,0,0,0,.57.11c18.46-1.81,36.52-5.29,53.66-12.64,7-3,13.55-6.73,19-12.18,8.18-8.19,8.5-17.57.78-26.17-5.41-6-12.36-9.8-19.64-13A153,153,0,0,0,808.68,218c-6.22-1.08-12.5-1.84-19-2.78Z" transform="translate(-97 -69)"/><path class="cls-13" d="M874.82,316.06v14.11H757.2V175.69H874.82v16.23c-1.2-.84-2.19-1.57-3.21-2.23-8.35-5.45-17.61-7.87-27.12-9.38-13.66-2.17-27.42-2.15-41.19-2.13H791.74c-.6,0-1.47,0-2.38,0,0,4.13,0,8,0,11.93,0,7.43.07,14.86,0,22.29,0,1.73.38,2.36,2.24,2.46A178.57,178.57,0,0,1,831,221c11.54,3.27,22.64,7.58,32,15.31,6.63,5.46,10.5,12.22,9,21.11-1,6-4.3,10.64-8.86,14.48-8.94,7.53-19.49,11.85-30.52,15.15-13.23,4-26.81,5.76-40.57,6.41-.82,0-1.64.13-2.6.21v34.68c2.27,0,4.51.05,6.75,0,11.26-.25,22.52-.23,33.75-.87,11.44-.64,22.87-1.88,33.68-6.07C867.49,319.92,871.08,317.87,874.82,316.06ZM789.5,292.12a3.21,3.21,0,0,0,.57.11c18.46-1.81,36.53-5.29,53.66-12.64,7-3,13.55-6.73,19-12.18,8.18-8.19,8.51-17.57.78-26.17-5.41-6-12.36-9.8-19.64-13A153.07,153.07,0,0,0,808.48,218c-6.23-1.08-12.51-1.84-19-2.78Z" transform="translate(-97 -69)"/><path class="cls-10" d="M615.83,255.28c-.21,17-7,35.06-21,50.39-12.35,13.54-27.59,22.16-45.56,25.27-27.34,4.74-51.74-1.9-72.17-21a77.69,77.69,0,0,1-23.9-43.6,76.7,76.7,0,0,1,9.21-53.56,79.71,79.71,0,0,1,48.33-37.88,82.63,82.63,0,0,1,94.38,37.51c7.06,12.06,10.57,25.17,10.7,42.87M600,245.81a87,87,0,0,0-4-26c-2.91-9.65-7-18.66-13.67-26.32-13-14.94-29.44-20.21-48.7-16.5-15.49,3-27.57,11.71-36.78,24.17-13.51,18.28-18.67,39.14-17.44,61.65.77,14.13,4.26,27.55,11.53,39.83,4.55,7.7,10.26,14.42,18.14,18.83,17.73,9.93,35.56,9.08,52.9-.84,14.19-8.12,23.69-20.55,30.06-35.42a102,102,0,0,0,7.92-39.4" transform="translate(-97 -69)"/><path class="cls-13" d="M615.83,255.28c-.21,17-7,35.06-21,50.39-12.35,13.54-27.59,22.16-45.56,25.27-27.34,4.74-51.74-1.9-72.17-21a77.69,77.69,0,0,1-23.9-43.6,76.7,76.7,0,0,1,9.21-53.56,79.71,79.71,0,0,1,48.33-37.88,82.63,82.63,0,0,1,94.38,37.51C612.19,224.47,615.7,237.58,615.83,255.28ZM600,245.81a87,87,0,0,0-4-26c-2.91-9.65-7-18.66-13.67-26.32-13-14.94-29.44-20.21-48.7-16.5-15.49,3-27.57,11.71-36.78,24.17-13.51,18.28-18.67,39.14-17.44,61.65.77,14.13,4.26,27.55,11.53,39.83,4.55,7.7,10.26,14.42,18.14,18.83,17.73,9.93,35.56,9.08,52.9-.84,14.19-8.12,23.69-20.55,30.06-35.42A102,102,0,0,0,600,245.81Z" transform="translate(-97 -69)"/><path class="cls-10" d="M392.11,327.26c4.67,0,9.09,0,13.5,0,15.27-.1,30.5-.7,45.63-2.86,8.78-1.25,17.5-2.92,25.54-6.92,1.65-.82,3.2-1.84,5.23-3-.76,3.92-1.42,7.46-2.14,11-.8,3.94-.82,4-5,4l-91.33,0-21.63-.05h-2.52V174.65h32.72Z" transform="translate(-97 -69)"/><path class="cls-13" d="M391.9,327.46c4.67,0,9.09,0,13.51,0,15.26-.11,30.5-.7,45.62-2.86,8.78-1.26,17.5-2.92,25.54-6.92,1.65-.82,3.2-1.84,5.23-3-.76,3.92-1.41,7.46-2.13,11-.8,3.94-.83,4-5,4l-91.33,0c-7.21,0-14.42,0-21.63,0h-2.52V174.86H391.9Z" transform="translate(-97 -69)"/><path class="cls-10" d="M740.84,205.72H708.12V174.78h7.5c8.13,0,16.27.27,24.38-.06,5-.21,7.39,3,8.62,6.24a19.65,19.65,0,0,1,.56,11.17c-1.52,7.27-4.61,14-7.54,20.69q-8.43,19.37-17,38.68-9.63,21.79-19.29,43.56-6.29,14.24-12.55,28.48c-.72,1.63-1.36,3.32-2.23,4.87a2.56,2.56,0,0,1-1.83,1.15q-11.58.12-23.16,0a2.68,2.68,0,0,1-1.85-1.43c-3-6.43-5.82-12.9-8.68-19.38-4.83-10.94-9.62-21.9-14.45-32.83q-7.68-17.37-15.39-34.7-9.69-21.87-19.38-43.75c-3.17-7.16-6.3-14.33-9.56-21.75.79-.07,1.35-.17,1.93-.17,9.78,0,19.57,0,29.36,0a2.44,2.44,0,0,1,2.68,1.63q6.6,15,13.31,30c5.66,12.6,11.38,25.18,17,37.78Q671,268.1,681.3,291.36q5.13,11.49,10.3,23c.27.61.63,1.19,1.22,2.3,16.1-37.06,32-73.73,48.17-110.9" transform="translate(-97 -69)"/><path class="cls-14" d="M741.2,205.51H708.32V174.58c2.48,0,5,0,7.51,0,8.13,0,16.27.27,24.38-.07,4.95-.21,7.38,3,8.62,6.25a19.61,19.61,0,0,1,.55,11.16c-1.51,7.27-4.6,14-7.53,20.69q-8.43,19.38-17,38.69-9.63,21.78-19.29,43.55-6.3,14.23-12.56,28.48c-.72,1.64-1.35,3.32-2.22,4.87a2.57,2.57,0,0,1-1.83,1.16q-11.58.11-23.16,0a2.67,2.67,0,0,1-1.85-1.42c-3-6.44-5.82-12.91-8.68-19.39-4.83-10.94-9.62-21.89-14.46-32.83q-7.66-17.35-15.38-34.69-9.7-21.88-19.39-43.76c-3.16-7.16-6.29-14.33-9.55-21.75.78-.07,1.35-.17,1.92-.17,9.79,0,19.58,0,29.37,0a2.45,2.45,0,0,1,2.68,1.63q6.59,15,13.31,30c5.65,12.6,11.37,25.18,17,37.79q10.41,23.23,20.74,46.5,5.13,11.47,10.3,22.95c.27.62.62,1.2,1.21,2.31C709.13,279.35,725.05,242.68,741.2,205.51Z" transform="translate(-97 -69)"/><path class="cls-10" d="M874.2,315.89v14.49H756.57V175.48h118v15.2c-1.44-.77-2.43-1.45-3.45-2.06-8.36-5-17.63-7.27-27.16-8.66-13.68-2-27.47-2-41.25-2q-5.79,0-11.58,0h-2.12v11.95c0,7.43.08,14.87,0,22.3,0,1.72.37,2.36,2.23,2.45a177.38,177.38,0,0,1,39.32,6.14c11.52,3.26,22.6,7.57,32,15.31,6.62,5.45,10.49,12.22,9,21.1-1,6-4.29,10.64-8.84,14.49-8.92,7.52-19.45,11.84-30.46,15.14-13.21,4-26.77,5.76-40.51,6.41-.81,0-2.49.21-2.49.21v34.69c2.27,0,4.51,0,6.75,0,11.23-.25,22.47-.23,33.69-.87,11.41-.64,22.83-1.88,33.62-6.07,3.8-1.48,7.38-3.53,11.11-5.34m-85.17-23.75a3.11,3.11,0,0,0,.58.11c18.45-1.81,36.52-5.29,53.65-12.64,7-3,13.56-6.73,19-12.18,8.18-8.19,8.51-17.57.78-26.17-5.41-6-12.35-9.8-19.64-13A153.07,153.07,0,0,0,808.27,218c-6.23-1.08-12.51-1.84-19-2.78Z" transform="translate(-97 -69)"/><path class="cls-14" d="M874.4,316.06v14.11H756.78V175.69H874.4v16.23c-1.2-.84-2.18-1.57-3.2-2.23-8.35-5.45-17.61-7.87-27.12-9.38-13.66-2.17-27.43-2.15-41.19-2.13H791.33c-.6,0-1.47,0-2.39,0v11.93c0,7.43.08,14.86,0,22.29,0,1.73.37,2.36,2.23,2.46A178.38,178.38,0,0,1,830.56,221c11.55,3.27,22.65,7.58,32.05,15.31,6.62,5.46,10.5,12.22,9,21.11-1,6-4.3,10.64-8.86,14.48-8.93,7.53-19.49,11.85-30.52,15.15-13.22,4-26.81,5.76-40.57,6.41-.82,0-1.63.13-2.59.21v34.68c2.26,0,4.51.05,6.75,0,11.25-.25,22.52-.23,33.75-.87,11.44-.64,22.87-1.88,33.68-6.07C867.08,319.92,870.67,317.87,874.4,316.06Zm-85.31-23.94a3.06,3.06,0,0,0,.57.11c18.45-1.81,36.52-5.29,53.66-12.64,7-3,13.55-6.73,19-12.18,8.18-8.19,8.5-17.57.77-26.17-5.4-6-12.35-9.8-19.63-13A153,153,0,0,0,808.06,218c-6.22-1.08-12.51-1.84-19-2.78Z" transform="translate(-97 -69)"/><path class="cls-10" d="M615.42,255.28c-.21,17-7,35.06-21,50.39-12.35,13.54-27.59,22.16-45.56,25.27-27.35,4.74-51.75-1.9-72.18-21a77.69,77.69,0,0,1-23.9-43.6A76.76,76.76,0,0,1,462,212.78c11-19.05,27.24-31.76,48.34-37.88a82.63,82.63,0,0,1,94.38,37.51c7,12.06,10.57,25.17,10.7,42.87m-15.88-9.47a86.94,86.94,0,0,0-3.95-26c-2.92-9.65-7-18.66-13.68-26.32-13-14.94-29.43-20.21-48.69-16.5-15.49,3-27.57,11.71-36.78,24.17-13.51,18.28-18.68,39.14-17.45,61.65.78,14.13,4.27,27.55,11.53,39.83,4.56,7.7,10.26,14.42,18.14,18.83,17.74,9.93,35.57,9.08,52.91-.84,14.19-8.12,23.69-20.55,30-35.42a101.85,101.85,0,0,0,7.92-39.4" transform="translate(-97 -69)"/><path class="cls-14" d="M615.42,255.28c-.21,17-7,35.06-21,50.39-12.35,13.54-27.59,22.16-45.56,25.27-27.35,4.74-51.75-1.9-72.18-21a77.69,77.69,0,0,1-23.9-43.6A76.76,76.76,0,0,1,462,212.78c11-19.05,27.24-31.76,48.34-37.88a82.63,82.63,0,0,1,94.38,37.51C611.77,224.47,615.29,237.58,615.42,255.28Zm-15.88-9.47a86.94,86.94,0,0,0-3.95-26c-2.92-9.65-7-18.66-13.68-26.32-13-14.94-29.43-20.21-48.69-16.5-15.49,3-27.57,11.71-36.78,24.17-13.51,18.28-18.68,39.14-17.45,61.65.78,14.13,4.27,27.55,11.53,39.83,4.56,7.7,10.26,14.42,18.14,18.83,17.74,9.93,35.57,9.08,52.91-.84,14.19-8.12,23.69-20.55,30-35.42A101.85,101.85,0,0,0,599.54,245.81Z" transform="translate(-97 -69)"/><path class="cls-10" d="M391.69,327.26c4.67,0,9.09,0,13.51,0,15.26-.1,30.5-.7,45.62-2.86,8.78-1.25,17.5-2.92,25.54-6.92,1.65-.82,3.2-1.84,5.23-3-.76,3.92-1.41,7.46-2.13,11-.8,3.94-.82,4-5,4l-91.32,0-21.63-.05H359V174.65h32.72Z" transform="translate(-97 -69)"/><path class="cls-14" d="M391.49,327.46c4.67,0,9.09,0,13.5,0,15.26-.11,30.5-.7,45.62-2.86,8.79-1.26,17.51-2.92,25.55-6.92,1.65-.82,3.19-1.84,5.23-3-.76,3.92-1.42,7.46-2.14,11-.8,3.94-.82,4-5,4l-91.33,0c-7.21,0-14.42,0-21.63,0h-2.52V174.86h32.72Z" transform="translate(-97 -69)"/></g><rect class="cls-19" x="0.5" y="261.5" width="215" height="17"/><rect class="cls-19" x="180.5" y="291.5" width="215" height="9"/><circle class="cls-19" cx="158" cy="193" r="24.5"/><circle class="cls-20" cx="971" cy="538" r="24.5"/><circle class="cls-21" cx="1008.5" cy="478.5" r="12"/><circle class="cls-19" cx="194.5" cy="253.5" r="14"/><circle class="cls-19" cx="208.5" cy="213.5" r="7"/><circle class="cls-22" cx="222.5" cy="7.5" r="7"/><circle class="cls-22" cx="904" cy="267" r="19.5"/><path class="cls-22" d="M305.5,476.5a12,12,0,0,0-12,12,12.52,12.52,0,0,0,.25,2.46,11.88,11.88,0,0,0-7.25-2.46,12,12,0,1,0,12,12,12.52,12.52,0,0,0-.25-2.46,11.88,11.88,0,0,0,7.25,2.46,12,12,0,0,0,0-24Z" transform="translate(-97 -69)"/><circle class="cls-22" cx="872.5" cy="323.5" r="12"/><circle class="cls-22" cx="913.5" cy="313.5" r="10"/><circle class="cls-22" cx="246.5" cy="453.5" r="5"/><rect class="cls-22" x="51.5" y="0.5" width="143" height="14"/><rect class="cls-22" x="930.5" y="183.5" width="121" height="9"/><path class="cls-23" d="M918.67,164.82A51.13,51.13,0,0,0,946.91,173c24.48,0,44.5-16,44.5-36s-20-36-44.5-36-44.5,16-44.5,36c0,9.14,4.2,17.46,11.1,23.79l-2.37,5.32-.43,1,1-.3Z" transform="translate(-97 -69)"/><path class="cls-24" d="M926.67,128.83c6-14.55,20.5-7.05,20.5,0,0-7.05,16-14.55,19.5,0,3.2,13.2-11.67,22.17-19.5,25C940.33,151.66,922,142.87,926.67,128.83Z" transform="translate(-97 -69)"/><path class="cls-25" d="M233.55,600.49A24.92,24.92,0,0,0,218,603.7a20.52,20.52,0,1,0-12.12,17.69c-.05.3-.09.61-.13.92a25,25,0,1,0,27.82-21.82Z" transform="translate(-97 -69)"/><circle class="cls-26" cx="180.5" cy="597.5" r="7"/></svg>