<svg width="474" height="93" viewBox="0 0 474 93" fill="none" xmlns="http://www.w3.org/2000/svg">
<g filter="url(#filter0_di)">
<path d="M15.6 71.1C10.1333 71.1 6.4 67.9667 4.4 61.7C2.46667 55.4333 1.5 47.4333 1.5 37.7C1.5 31.3667 2.63333 25.4333 4.9 19.9C7.23333 14.3 10.7667 9.8 15.5 6.4C20.2333 2.93333 26 1.2 32.8 1.2C38.2667 1.2 43.2333 2.36666 47.7 4.7C52.1667 6.96666 55.7 10.2333 58.3 14.5C60.9667 18.7667 62.3 23.7 62.3 29.3C62.3 35.7667 61 41.2 58.4 45.6C55.8 50 52.4333 53.2667 48.3 55.4C44.1667 57.5333 39.8 58.6 35.2 58.6C31.4667 58.6 28.0333 57.9667 24.9 56.7C25.3 58.8333 25.5 60.4667 25.5 61.6C25.5 67.9333 22.2 71.1 15.6 71.1ZM33.8 43.1C36.2 43.1 38.2667 42.2333 40 40.5C41.8 38.7 42.7 36.6333 42.7 34.3C42.7 31.9 41.8 29.8333 40 28.1C38.2667 26.3 36.2 25.4 33.8 25.4C31.4667 25.4 29.4 26.3 27.6 28.1C25.8 29.8333 24.9 31.9 24.9 34.3C24.9 36.6333 25.8 38.7 27.6 40.5C29.4 42.2333 31.4667 43.1 33.8 43.1ZM95.4164 71C90.4831 71 86.1164 70.0333 82.3164 68.1C78.5164 66.1667 75.5497 63.4667 73.4164 60C71.3497 56.4667 70.3164 52.5 70.3164 48.1C70.3164 43.7667 71.3497 39.7667 73.4164 36.1C75.5497 32.4333 78.4831 29.5 82.2164 27.3C85.9497 25.1 90.1831 24 94.9164 24C99.1831 24 102.95 24.8667 106.216 26.6C109.483 28.3333 111.983 30.6333 113.716 33.5C115.45 36.3 116.316 39.2333 116.316 42.3C116.316 47.3 114.416 50.9667 110.616 53.3C106.883 55.5667 102.416 56.7 97.2164 56.7C93.7497 56.7 90.8164 56.2667 88.4164 55.4C90.4164 58.6667 93.7164 60.3 98.3164 60.3C100.183 60.3 102.183 60.0667 104.316 59.6C105.116 59.4 105.883 59.3 106.616 59.3C108.083 59.3 109.25 59.6667 110.116 60.4C111.05 61.1333 111.516 62.1333 111.516 63.4C111.516 65.4667 110.25 67.2667 107.716 68.8C105.183 70.2667 101.083 71 95.4164 71ZM88.7164 43.2C89.3164 44.1333 90.1164 44.8333 91.1164 45.3C92.1831 45.7 93.3497 45.9 94.6164 45.9C96.0831 45.9 97.3497 45.5667 98.4164 44.9C99.5497 44.2333 100.116 43.3667 100.116 42.3C100.116 41.1 99.6164 40.0667 98.6164 39.2C97.6831 38.3333 96.3164 37.9 94.5164 37.9C92.7164 37.9 91.2831 38.4667 90.2164 39.6C89.2164 40.6667 88.7164 41.8667 88.7164 43.2ZM165.84 71C163.44 71 161.64 70.3333 160.44 69C159.307 67.6667 158.607 66.0333 158.34 64.1C158.073 62.1667 157.94 59.6667 157.94 56.6C157.94 52.6667 157.407 49.6333 156.34 47.5C155.273 45.3667 153.54 44.3 151.14 44.3C148.94 44.3 147.273 45.3667 146.14 47.5C145.073 49.5667 144.54 52.4333 144.54 56.1C144.54 59.6333 144.44 62.3 144.24 64.1C144.04 65.9 143.373 67.5 142.24 68.9C141.107 70.2333 139.24 70.9 136.64 70.9C132.84 70.9 130.173 68.4667 128.64 63.6C127.107 58.6667 126.34 52.9 126.34 46.3C126.34 30.3 129.707 22.3 136.44 22.3C138.307 22.3 139.84 22.7667 141.04 23.7C142.24 24.5667 143.073 25.8333 143.54 27.5C144.407 26.5667 145.74 25.7333 147.54 25C149.407 24.2667 151.373 23.9 153.44 23.9C160.773 23.9 166.24 26.5667 169.84 31.9C173.507 37.2333 175.34 44.4667 175.34 53.6C175.34 59 174.64 63.2667 173.24 66.4C171.84 69.4667 169.373 71 165.84 71ZM232.14 27.7C232.14 31.1667 230.507 33.5333 227.24 34.8C223.973 36 219.507 36.6333 213.84 36.7C213.773 38.3667 213.74 41.0667 213.74 44.8C213.74 48.6 214.007 51.3 214.54 52.9C214.873 54.0333 215.373 54.7667 216.04 55.1C216.773 55.4333 217.84 55.6667 219.24 55.8C219.707 55.8667 220.207 55.9667 220.74 56.1C221.34 56.1667 222.007 56.2667 222.74 56.4C224.273 56.7333 225.473 57.5667 226.34 58.9C227.207 60.1667 227.64 61.8 227.64 63.8C227.64 66.0667 226.473 67.8333 224.14 69.1C221.807 70.3667 218.607 71 214.54 71C210.807 71 207.24 69.9333 203.84 67.8C200.44 65.6 198.107 62.6667 196.84 59C195.507 55.0667 194.84 47.6333 194.84 36.7C190.173 36.5667 186.407 35.9667 183.54 34.9C180.74 33.7667 179.34 31.7667 179.34 28.9C179.34 25.3 180.673 22.9 183.34 21.7C186.007 20.4333 189.84 19.7667 194.84 19.7C195.04 14.3667 195.873 9.93333 197.34 6.4C198.807 2.8 201.44 0.999995 205.24 0.999995C209.107 0.999995 211.607 2.66666 212.74 6C213.94 9.33333 214.473 13.9 214.34 19.7C220.407 19.6333 224.873 20.1 227.74 21.1C230.673 22.1 232.14 24.3 232.14 27.7ZM258.145 71C252.945 71 248.678 69.8333 245.345 67.5C242.011 65.1 240.345 61.6667 240.345 57.2C240.345 53.3333 242.045 50.2667 245.445 48C248.845 45.7333 253.078 44.6 258.145 44.6C260.011 44.6 261.745 44.7667 263.345 45.1C265.011 45.3667 266.145 45.7 266.745 46.1C266.745 44.4333 266.045 43.0667 264.645 42C263.245 40.8667 261.111 40.3 258.245 40.3C256.978 40.3 255.945 40.4 255.145 40.6C254.345 40.8 253.478 41.1 252.545 41.5C251.611 41.9 250.745 42.2 249.945 42.4C249.211 42.6 248.211 42.7 246.945 42.7C244.811 42.7 243.145 42.1667 241.945 41.1C240.745 39.9667 240.145 38.2667 240.145 36C240.145 33.4 241.078 31.2 242.945 29.4C244.878 27.6 247.278 26.2667 250.145 25.4C253.011 24.4667 255.878 24 258.745 24C264.411 24 269.145 25.0667 272.945 27.2C276.811 29.2667 279.645 32.0333 281.445 35.5C283.311 38.9667 284.245 42.8 284.245 47C284.245 49.2667 284.045 51.3667 283.645 53.3C283.311 55.2333 282.845 56.7333 282.245 57.8C283.178 58.6 283.878 59.5333 284.345 60.6C284.878 61.6667 285.145 62.7667 285.145 63.9C285.145 65.8333 284.478 67.5 283.145 68.9C281.878 70.3 280.178 71 278.045 71C276.445 71 275.145 70.7667 274.145 70.3C273.145 69.8333 272.078 69.1 270.945 68.1C269.278 69.1 267.445 69.8333 265.445 70.3C263.511 70.7667 261.078 71 258.145 71ZM260.145 60.9C261.545 60.9 262.645 60.6 263.445 60C264.311 59.4 264.745 58.6667 264.745 57.8C264.745 56.9333 264.311 56.2 263.445 55.6C262.645 55 261.545 54.7 260.145 54.7C258.745 54.7 257.611 55 256.745 55.6C255.945 56.2 255.545 56.9333 255.545 57.8C255.545 58.6667 255.945 59.4 256.745 60C257.611 60.6 258.745 60.9 260.145 60.9ZM316.991 88.1C313.125 88.1 309.958 87.3667 307.491 85.9C305.025 84.5 303.791 82.5667 303.791 80.1C303.791 77.9 304.625 76.1 306.291 74.7C308.025 73.3667 310.191 72.7 312.791 72.7C313.258 72.7 314.025 72.7667 315.091 72.9C316.425 73.1 317.658 73.2 318.791 73.2C321.658 73.2 324.125 72.7 326.191 71.7C328.325 70.7667 329.625 69.5 330.091 67.9C329.025 68.5 327.525 69 325.591 69.4C323.658 69.8 321.591 70 319.391 70C313.725 70 309.058 68.9 305.391 66.7C301.791 64.5 299.191 61.8 297.591 58.6C295.991 55.3333 295.191 52.1333 295.191 49C295.191 43.8 296.325 39.3 298.591 35.5C300.925 31.7 303.925 28.8 307.591 26.8C311.258 24.8 315.091 23.8 319.091 23.8C320.425 23.8 321.958 23.9 323.691 24.1C325.491 24.3 326.991 24.5333 328.191 24.8C328.725 23 329.625 21.6 330.891 20.6C332.225 19.6 334.191 19.1 336.791 19.1C341.125 19.1 344.258 21.8 346.191 27.2C348.191 32.6 349.191 39.2667 349.191 47.2C349.191 50.9333 348.991 54.4667 348.591 57.8C347.591 67.2 344.291 74.6 338.691 80C333.091 85.4 325.858 88.1 316.991 88.1ZM320.691 55C322.758 55 324.558 54.2667 326.091 52.8C327.625 51.2667 328.391 49.4667 328.391 47.4C328.391 45.3333 327.625 43.5333 326.091 42C324.558 40.4667 322.758 39.7 320.691 39.7C318.625 39.7 316.825 40.4667 315.291 42C313.825 43.5333 313.091 45.3333 313.091 47.4C313.091 49.4667 313.825 51.2667 315.291 52.8C316.825 54.2667 318.625 55 320.691 55ZM385.102 71.1C380.302 71.1667 376.002 70.1667 372.202 68.1C368.468 66.0333 365.535 63.2 363.402 59.6C361.335 55.9333 360.235 51.8667 360.102 47.4C360.035 42.9333 361.068 38.9333 363.202 35.4C365.335 31.8667 368.302 29.0667 372.102 27C375.968 24.9333 380.302 23.9 385.102 23.9C389.768 23.9 393.968 24.9 397.702 26.9C401.502 28.9 404.502 31.7 406.702 35.3C408.902 38.9 410.068 42.9333 410.202 47.4C410.268 51.7333 409.235 55.7 407.102 59.3C404.968 62.8333 401.968 65.6667 398.102 67.8C394.302 69.9333 389.968 71.0333 385.102 71.1ZM385.402 56.5C387.202 56.5 388.768 55.8 390.102 54.4C391.435 53 392.102 51.3667 392.102 49.5C392.102 47.6333 391.435 46.0333 390.102 44.7C388.768 43.3 387.202 42.6 385.402 42.6C383.602 42.6 382.035 43.3 380.702 44.7C379.368 46.0333 378.702 47.6333 378.702 49.5C378.702 51.3667 379.368 53 380.702 54.4C382.035 55.8 383.602 56.5 385.402 56.5ZM459.727 71C457.327 71 455.527 70.3333 454.327 69C453.193 67.6667 452.493 66.0333 452.227 64.1C451.96 62.1667 451.827 59.6667 451.827 56.6C451.827 52.6667 451.293 49.6333 450.227 47.5C449.16 45.3667 447.427 44.3 445.027 44.3C442.827 44.3 441.16 45.3667 440.027 47.5C438.96 49.5667 438.427 52.4333 438.427 56.1C438.427 59.6333 438.327 62.3 438.127 64.1C437.927 65.9 437.26 67.5 436.127 68.9C434.993 70.2333 433.127 70.9 430.527 70.9C426.727 70.9 424.06 68.4667 422.527 63.6C420.993 58.6667 420.227 52.9 420.227 46.3C420.227 30.3 423.593 22.3 430.327 22.3C432.193 22.3 433.727 22.7667 434.927 23.7C436.127 24.5667 436.96 25.8333 437.427 27.5C438.293 26.5667 439.627 25.7333 441.427 25C443.293 24.2667 445.26 23.9 447.327 23.9C454.66 23.9 460.127 26.5667 463.727 31.9C467.393 37.2333 469.227 44.4667 469.227 53.6C469.227 59 468.527 63.2667 467.127 66.4C465.727 69.4667 463.26 71 459.727 71Z" fill="#F75573"/>
<path d="M4.4 61.7L3.4444 61.9948L3.44734 62.004L4.4 61.7ZM4.9 19.9L3.97691 19.5154L3.97463 19.5209L4.9 19.9ZM15.5 6.4L16.0834 7.21222L16.0909 7.20676L15.5 6.4ZM47.7 4.7L47.237 5.58641L47.2475 5.59175L47.7 4.7ZM58.3 14.5L57.446 15.0204L57.452 15.03L58.3 14.5ZM58.4 45.6L59.2609 46.1087V46.1087L58.4 45.6ZM48.3 55.4L48.7586 56.2886H48.7586L48.3 55.4ZM24.9 56.7L25.2748 55.7729L23.5803 55.0879L23.9171 56.8843L24.9 56.7ZM40 40.5L40.7071 41.2071H40.7071L40 40.5ZM40 28.1L39.2797 28.7936L39.2928 28.8072L39.3064 28.8203L40 28.1ZM27.6 28.1L28.2936 28.8203L28.3004 28.8138L28.3071 28.8071L27.6 28.1ZM27.6 40.5L26.8929 41.2071L26.8996 41.2138L26.9064 41.2203L27.6 40.5ZM15.6 70.1C13.0714 70.1 11.0074 69.381 9.34287 67.984C7.66343 66.5745 6.31467 64.4103 5.35266 61.396L3.44734 62.004C4.48533 65.2564 6.00323 67.7922 8.05713 69.516C10.1259 71.2523 12.662 72.1 15.6 72.1V70.1ZM5.35556 61.4052C3.46222 55.2682 2.5 47.3769 2.5 37.7H0.5C0.5 47.4898 1.47111 55.5985 3.44444 61.9948L5.35556 61.4052ZM2.5 37.7C2.5 31.4889 3.61086 25.6851 5.82537 20.2791L3.97463 19.5209C1.65581 25.1816 0.5 31.2445 0.5 37.7H2.5ZM5.82308 20.2846C8.08811 14.8485 11.5071 10.4994 16.0834 7.21218L14.9166 5.58781C10.0262 9.10062 6.37855 13.7515 3.97692 19.5154L5.82308 20.2846ZM16.0909 7.20676C20.6265 3.88487 26.1775 2.2 32.8 2.2V0.199999C25.8225 0.199999 19.8401 1.98179 14.9091 5.59323L16.0909 7.20676ZM32.8 2.2C38.1194 2.2 42.9251 3.33389 47.237 5.58634L48.163 3.81365C43.5415 1.39944 38.4139 0.199999 32.8 0.199999V2.2ZM47.2475 5.59175C51.5489 7.77454 54.943 10.9128 57.4461 15.0204L59.1539 13.9796C56.457 9.55386 52.7845 6.15878 48.1525 3.80825L47.2475 5.59175ZM57.452 15.03C60.0084 19.1202 61.3 23.8656 61.3 29.3H63.3C63.3 23.5344 61.925 18.4132 59.148 13.97L57.452 15.03ZM61.3 29.3C61.3 35.6345 60.0268 40.8812 57.5391 45.0913L59.2609 46.1087C61.9732 41.5188 63.3 35.8988 63.3 29.3H61.3ZM57.5391 45.0913C55.025 49.3459 51.7912 52.4727 47.8414 54.5114L48.7586 56.2886C53.0754 54.0606 56.575 50.6541 59.2609 46.1087L57.5391 45.0913ZM47.8414 54.5114C43.8482 56.5724 39.6386 57.6 35.2 57.6V59.6C39.9614 59.6 44.4852 58.4943 48.7586 56.2886L47.8414 54.5114ZM35.2 57.6C31.5817 57.6 28.2772 56.9866 25.2748 55.7729L24.5252 57.6271C27.7895 58.9467 31.3517 59.6 35.2 59.6V57.6ZM23.9171 56.8843C24.3141 59.0013 24.5 60.5614 24.5 61.6H26.5C26.5 60.3719 26.2859 58.6654 25.8829 56.5157L23.9171 56.8843ZM24.5 61.6C24.5 64.6018 23.7201 66.672 22.3326 68.0035C20.9374 69.3423 18.7559 70.1 15.6 70.1V72.1C19.0441 72.1 21.8126 71.2744 23.7174 69.4465C25.6299 67.6113 26.5 64.9315 26.5 61.6H24.5ZM33.8 44.1C36.4715 44.1 38.7907 43.1235 40.7071 41.2071L39.2929 39.7929C37.7426 41.3432 35.9285 42.1 33.8 42.1V44.1ZM40.7071 41.2071C42.6759 39.2384 43.7 36.924 43.7 34.3H41.7C41.7 36.3427 40.9241 38.1616 39.2929 39.7929L40.7071 41.2071ZM43.7 34.3C43.7 31.6159 42.6803 29.2928 40.6936 27.3797L39.3064 28.8203C40.9197 30.3739 41.7 32.1841 41.7 34.3H43.7ZM40.7203 27.4064C38.8072 25.4197 36.4841 24.4 33.8 24.4V26.4C35.9159 26.4 37.7261 27.1803 39.2797 28.7936L40.7203 27.4064ZM33.8 24.4C31.176 24.4 28.8616 25.4241 26.8929 27.3929L28.3071 28.8071C29.9384 27.1759 31.7573 26.4 33.8 26.4V24.4ZM26.9064 27.3797C24.9197 29.2928 23.9 31.6159 23.9 34.3H25.9C25.9 32.1841 26.6803 30.3739 28.2936 28.8203L26.9064 27.3797ZM23.9 34.3C23.9 36.924 24.9241 39.2384 26.8929 41.2071L28.3071 39.7929C26.6759 38.1616 25.9 36.3427 25.9 34.3H23.9ZM26.9064 41.2203C28.8781 43.1191 31.1885 44.1 33.8 44.1V42.1C31.7449 42.1 29.9219 41.3476 28.2936 39.7797L26.9064 41.2203ZM82.3164 68.1L82.7699 67.2087L82.3164 68.1ZM73.4164 60L72.5532 60.5049L72.5589 60.5146L72.5648 60.5241L73.4164 60ZM73.4164 36.1L72.552 35.5971L72.5453 35.609L73.4164 36.1ZM82.2164 27.3L82.7241 28.1615L82.2164 27.3ZM106.216 26.6L106.685 25.7166L106.216 26.6ZM113.716 33.5L112.861 34.0174L112.866 34.0264L113.716 33.5ZM110.616 53.3L111.135 54.1548L111.14 54.1522L110.616 53.3ZM88.4164 55.4L88.7561 54.4594L86.0753 53.4914L87.5636 55.9222L88.4164 55.4ZM104.316 59.6L104.53 60.5769L104.545 60.5737L104.559 60.5701L104.316 59.6ZM110.116 60.4L109.47 61.1634L109.484 61.1751L109.499 61.1863L110.116 60.4ZM107.716 68.8L108.217 69.6654L108.226 69.6605L108.234 69.6555L107.716 68.8ZM88.7164 43.2H87.7164V43.4937L87.8752 43.7408L88.7164 43.2ZM91.1164 45.3L90.6935 46.2062L90.7288 46.2227L90.7653 46.2363L91.1164 45.3ZM98.4164 44.9L97.9094 44.0381L97.8978 44.0449L97.8864 44.052L98.4164 44.9ZM98.6164 39.2L97.936 39.9328L97.9485 39.9445L97.9615 39.9557L98.6164 39.2ZM90.2164 39.6L89.4882 38.9146L89.4869 38.9161L90.2164 39.6ZM95.4164 70C90.6159 70 86.4088 69.0601 82.7699 67.2087L81.863 68.9913C85.824 71.0065 90.3503 72 95.4164 72V70ZM82.7699 67.2087C79.1257 65.3547 76.3003 62.7783 74.2681 59.4759L72.5648 60.5241C74.7992 64.1551 77.9071 66.9787 81.863 68.9913L82.7699 67.2087ZM74.2796 59.4951C72.3092 56.1264 71.3164 52.3363 71.3164 48.1H69.3164C69.3164 52.6637 70.3903 56.8069 72.5532 60.5049L74.2796 59.4951ZM71.3164 48.1C71.3164 43.9334 72.3079 40.1033 74.2876 36.591L72.5453 35.609C70.3916 39.4301 69.3164 43.5999 69.3164 48.1H71.3164ZM74.2808 36.6029C76.326 33.0877 79.1351 30.2765 82.7241 28.1615L81.7087 26.4385C77.831 28.7235 74.7735 31.779 72.5521 35.5971L74.2808 36.6029ZM82.7241 28.1615C86.2896 26.0604 90.3446 25 94.9164 25V23C90.0215 23 85.6099 24.1396 81.7087 26.4385L82.7241 28.1615ZM94.9164 25C99.0449 25 102.646 25.8376 105.748 27.4833L106.685 25.7166C103.253 23.8957 99.3212 23 94.9164 23V25ZM105.748 27.4833C108.872 29.141 111.23 31.3212 112.861 34.0174L114.572 32.9826C112.736 29.9454 110.094 27.5257 106.685 25.7166L105.748 27.4833ZM112.866 34.0264C114.509 36.6804 115.316 39.4331 115.316 42.3H117.316C117.316 39.0336 116.39 35.9196 114.567 32.9736L112.866 34.0264ZM115.316 42.3C115.316 47.0026 113.556 50.3212 110.093 52.4478L111.14 54.1522C115.276 51.6121 117.316 47.5974 117.316 42.3H115.316ZM110.097 52.4452C106.548 54.6002 102.269 55.7 97.2164 55.7V57.7C102.564 57.7 107.218 56.5332 111.135 54.1548L110.097 52.4452ZM97.2164 55.7C93.8268 55.7 91.0158 55.2755 88.7561 54.4594L88.0768 56.3406C90.617 57.2579 93.6727 57.7 97.2164 57.7V55.7ZM87.5636 55.9222C89.7842 59.5492 93.45 61.3 98.3164 61.3V59.3C93.9828 59.3 91.0486 57.7841 89.2693 54.8778L87.5636 55.9222ZM98.3164 61.3C100.266 61.3 102.338 61.0564 104.53 60.5769L104.103 58.6231C102.028 59.0769 100.1 59.3 98.3164 59.3V61.3ZM104.559 60.5701C105.289 60.3876 105.974 60.3 106.616 60.3V58.3C105.792 58.3 104.944 58.4124 104.074 58.6299L104.559 60.5701ZM106.616 60.3C107.917 60.3 108.832 60.6229 109.47 61.1634L110.762 59.6366C109.668 58.7105 108.249 58.3 106.616 58.3V60.3ZM109.499 61.1863C110.173 61.7158 110.516 62.4164 110.516 63.4H112.516C112.516 61.8503 111.927 60.5508 110.734 59.6137L109.499 61.1863ZM110.516 63.4C110.516 64.9776 109.575 66.5062 107.199 67.9445L108.234 69.6555C110.925 68.0271 112.516 65.9557 112.516 63.4H110.516ZM107.215 67.9346C104.92 69.2635 101.044 70 95.4164 70V72C101.123 72 105.446 71.2699 108.217 69.6654L107.215 67.9346ZM87.8752 43.7408C88.5768 44.832 89.5214 45.6592 90.6935 46.2062L91.5393 44.3938C90.7114 44.0075 90.0561 43.4346 89.5576 42.6592L87.8752 43.7408ZM90.7653 46.2363C91.9561 46.6829 93.2432 46.9 94.6164 46.9V44.9C93.4563 44.9 92.4101 44.7171 91.4675 44.3637L90.7653 46.2363ZM94.6164 46.9C96.2388 46.9 97.696 46.5295 98.9464 45.748L97.8864 44.052C97.0035 44.6038 95.9273 44.9 94.6164 44.9V46.9ZM98.9234 45.7619C100.279 44.9643 101.116 43.8077 101.116 42.3H99.1164C99.1164 42.9257 98.8202 43.5023 97.9094 44.0381L98.9234 45.7619ZM101.116 42.3C101.116 40.7781 100.465 39.479 99.2713 38.4443L97.9615 39.9557C98.7676 40.6544 99.1164 41.4219 99.1164 42.3H101.116ZM99.2969 38.4672C98.1142 37.369 96.4645 36.9 94.5164 36.9V38.9C96.1683 38.9 97.252 39.2977 97.936 39.9328L99.2969 38.4672ZM94.5164 36.9C92.4879 36.9 90.7739 37.5486 89.4882 38.9146L90.9446 40.2854C91.7922 39.3848 92.9449 38.9 94.5164 38.9V36.9ZM89.4869 38.9161C88.3314 40.1486 87.7164 41.5871 87.7164 43.2H89.7164C89.7164 42.1462 90.1014 41.1848 90.9459 40.2839L89.4869 38.9161ZM160.44 69L159.678 69.6477L159.687 69.6584L159.697 69.669L160.44 69ZM158.34 64.1L159.33 63.9634L158.34 64.1ZM146.14 47.5L145.257 47.0308L145.251 47.0414L146.14 47.5ZM144.24 64.1L143.246 63.9896L144.24 64.1ZM142.24 68.9L143.002 69.5476L143.01 69.5385L143.017 69.5292L142.24 68.9ZM128.64 63.6L127.685 63.8968L127.686 63.9005L128.64 63.6ZM141.04 23.7L140.426 24.4893L140.44 24.5003L140.454 24.5107L141.04 23.7ZM143.54 27.5L142.577 27.7696L143.058 29.4884L144.273 28.1804L143.54 27.5ZM147.54 25L147.174 24.0692L147.163 24.0739L147.54 25ZM169.84 31.9L169.011 32.4595L169.016 32.4665L169.84 31.9ZM173.24 66.4L174.15 66.8153L174.153 66.8079L173.24 66.4ZM165.84 70C163.623 70 162.135 69.389 161.183 68.331L159.697 69.669C161.144 71.2777 163.257 72 165.84 72V70ZM161.202 68.3523C160.206 67.1805 159.574 65.7305 159.33 63.9634L157.349 64.2366C157.639 66.3362 158.407 68.1529 159.678 69.6477L161.202 68.3523ZM159.33 63.9634C159.073 62.0933 158.94 59.6436 158.94 56.6H156.94C156.94 59.6897 157.074 62.2401 157.349 64.2366L159.33 63.9634ZM158.94 56.6C158.94 52.6002 158.401 49.3871 157.234 47.0528L155.445 47.9472C156.412 49.8796 156.94 52.7331 156.94 56.6H158.94ZM157.234 47.0528C156.632 45.8485 155.815 44.8951 154.764 44.2483C153.713 43.6018 152.491 43.3 151.14 43.3V45.3C152.188 45.3 153.033 45.5315 153.716 45.9517C154.398 46.3716 154.981 47.0182 155.445 47.9472L157.234 47.0528ZM151.14 43.3C149.871 43.3 148.713 43.6101 147.701 44.2577C146.694 44.9022 145.886 45.8456 145.257 47.0308L147.023 47.9692C147.527 47.0211 148.119 46.3645 148.779 45.9423C149.434 45.5232 150.209 45.3 151.14 45.3V43.3ZM145.251 47.0414C144.081 49.3086 143.54 52.3565 143.54 56.1H145.54C145.54 52.5101 146.065 49.8247 147.028 47.9586L145.251 47.0414ZM143.54 56.1C143.54 59.6241 143.44 62.2461 143.246 63.9896L145.234 64.2104C145.44 62.3539 145.54 59.6426 145.54 56.1H143.54ZM143.246 63.9896C143.067 65.6006 142.475 67.0203 141.463 68.2708L143.017 69.5292C144.271 67.9797 145.013 66.1994 145.234 64.2104L143.246 63.9896ZM141.478 68.2523C140.612 69.2712 139.092 69.9 136.64 69.9V71.9C139.388 71.9 141.601 71.1954 143.002 69.5476L141.478 68.2523ZM136.64 69.9C134.975 69.9 133.603 69.3754 132.464 68.3363C131.304 67.2777 130.328 65.6305 129.594 63.2995L127.686 63.9005C128.485 66.4361 129.609 68.439 131.116 69.8137C132.644 71.2079 134.505 71.9 136.64 71.9V69.9ZM129.595 63.3032C128.098 58.4883 127.34 52.8258 127.34 46.3H125.34C125.34 52.9742 126.115 58.845 127.685 63.8968L129.595 63.3032ZM127.34 46.3C127.34 38.3399 128.182 32.5013 129.787 28.6879C130.585 26.7914 131.549 25.4493 132.642 24.5839C133.719 23.7305 134.971 23.3 136.44 23.3V21.3C134.542 21.3 132.848 21.8695 131.4 23.0161C129.968 24.1507 128.828 25.8086 127.943 27.9121C126.181 32.0987 125.34 38.2601 125.34 46.3H127.34ZM136.44 23.3C138.136 23.3 139.438 23.7213 140.426 24.4893L141.654 22.9106C140.241 21.812 138.477 21.3 136.44 21.3V23.3ZM140.454 24.5107C141.441 25.2232 142.16 26.2823 142.577 27.7696L144.503 27.2304C143.986 25.3844 143.039 23.9101 141.625 22.8893L140.454 24.5107ZM144.273 28.1804C145.002 27.3952 146.188 26.6306 147.917 25.9261L147.163 24.0739C145.292 24.836 143.811 25.7381 142.807 26.8195L144.273 28.1804ZM147.906 25.9308C149.652 25.2446 151.494 24.9 153.44 24.9V22.9C151.252 22.9 149.161 23.2888 147.174 24.0692L147.906 25.9308ZM153.44 24.9C160.495 24.9 165.625 27.4436 169.011 32.4595L170.669 31.3405C166.854 25.6898 161.051 22.9 153.44 22.9V24.9ZM169.016 32.4665C172.53 37.5775 174.34 44.5888 174.34 53.6H176.34C176.34 44.3445 174.483 36.8892 170.664 31.3335L169.016 32.4665ZM174.34 53.6C174.34 58.9313 173.646 63.0396 172.327 65.9921L174.153 66.8079C175.634 63.4938 176.34 59.0687 176.34 53.6H174.34ZM172.33 65.9847C171.698 67.3684 170.852 68.3539 169.812 69.0007C168.768 69.6495 167.46 70 165.84 70V72C167.753 72 169.445 71.5839 170.868 70.6993C172.294 69.8128 173.381 68.4982 174.15 66.8153L172.33 65.9847ZM227.24 34.8L227.585 35.7387L227.593 35.7356L227.601 35.7324L227.24 34.8ZM213.84 36.7L213.828 35.7001L212.879 35.7112L212.841 36.66L213.84 36.7ZM214.54 52.9L215.499 52.6178L215.494 52.6007L215.489 52.5838L214.54 52.9ZM216.04 55.1L215.593 55.9944L215.609 56.0027L215.626 56.0104L216.04 55.1ZM219.24 55.8L219.381 54.8101L219.358 54.8067L219.335 54.8045L219.24 55.8ZM220.74 56.1L220.497 57.0701L220.563 57.0865L220.629 57.0939L220.74 56.1ZM222.74 56.4L222.952 55.4228L222.936 55.4192L222.919 55.4161L222.74 56.4ZM226.34 58.9L225.501 59.445L225.508 59.4549L225.515 59.4647L226.34 58.9ZM203.84 67.8L203.297 68.6396L203.308 68.6471L203.84 67.8ZM196.84 59L195.893 59.321L195.895 59.3265L196.84 59ZM194.84 36.7H195.84V35.7282L194.868 35.7004L194.84 36.7ZM183.54 34.9L183.165 35.8269L183.178 35.8323L183.191 35.8372L183.54 34.9ZM183.34 21.7L183.75 22.6119L183.76 22.6077L183.769 22.6033L183.34 21.7ZM194.84 19.7L194.853 20.6999L195.804 20.6872L195.839 19.7375L194.84 19.7ZM197.34 6.4L198.263 6.78338L198.266 6.77729L197.34 6.4ZM212.74 6L211.793 6.3219L211.796 6.33033L211.799 6.33872L212.74 6ZM214.34 19.7L213.34 19.677L213.316 20.7113L214.351 20.6999L214.34 19.7ZM227.74 21.1L227.41 22.0442L227.417 22.0465L227.74 21.1ZM231.14 27.7C231.14 29.2729 230.771 30.5225 230.092 31.507C229.412 32.4923 228.366 33.2907 226.878 33.8676L227.601 35.7324C229.38 35.0426 230.785 34.0243 231.738 32.643C232.692 31.2609 233.14 29.5938 233.14 27.7H231.14ZM226.895 33.8613C223.781 35.0053 219.443 35.634 213.828 35.7001L213.852 37.6999C219.57 37.6327 224.165 36.9947 227.585 35.7387L226.895 33.8613ZM212.841 36.66C212.773 38.3483 212.74 41.0655 212.74 44.8H214.74C214.74 41.0678 214.773 38.3851 214.839 36.74L212.841 36.66ZM212.74 44.8C212.74 48.607 213.002 51.4497 213.591 53.2162L215.489 52.5838C215.011 51.1503 214.74 48.593 214.74 44.8H212.74ZM213.58 53.1822C213.947 54.4296 214.565 55.4804 215.593 55.9944L216.487 54.2056C216.182 54.0529 215.799 53.637 215.499 52.6178L213.58 53.1822ZM215.626 56.0104C216.509 56.4115 217.704 56.6583 219.145 56.7955L219.335 54.8045C217.976 54.6751 217.038 54.4552 216.454 54.1896L215.626 56.0104ZM219.098 56.7899C219.526 56.851 219.992 56.9438 220.497 57.0701L220.982 55.1299C220.421 54.9895 219.887 54.8823 219.381 54.8101L219.098 56.7899ZM220.629 57.0939C221.202 57.1575 221.845 57.2537 222.561 57.3839L222.919 55.4161C222.168 55.2796 221.478 55.1758 220.85 55.1061L220.629 57.0939ZM222.527 57.3772C223.799 57.6537 224.776 58.3292 225.501 59.445L227.178 58.355C226.17 56.8041 224.747 55.813 222.952 55.4228L222.527 57.3772ZM225.515 59.4647C226.237 60.5212 226.64 61.941 226.64 63.8H228.64C228.64 61.659 228.176 59.8121 227.165 58.3353L225.515 59.4647ZM226.64 63.8C226.64 65.6301 225.74 67.0933 223.663 68.2211L224.617 69.9789C227.206 68.5733 228.64 66.5032 228.64 63.8H226.64ZM223.663 68.2211C221.534 69.377 218.521 70 214.54 70V72C218.692 72 222.08 71.3563 224.617 69.9789L223.663 68.2211ZM214.54 70C211.009 70 207.625 68.9942 204.371 66.9529L203.308 68.6471C206.855 70.8725 210.604 72 214.54 72V70ZM204.383 66.9604C201.162 64.876 198.975 62.1193 197.785 58.6735L195.895 59.3265C197.238 63.2141 199.718 66.324 203.297 68.6396L204.383 66.9604ZM197.787 58.679C196.513 54.9224 195.84 47.6464 195.84 36.7H193.84C193.84 47.6202 194.5 55.2109 195.893 59.321L197.787 58.679ZM194.868 35.7004C190.26 35.5687 186.614 34.9767 183.889 33.9628L183.191 35.8372C186.199 36.9566 190.087 37.5646 194.811 37.6996L194.868 35.7004ZM183.915 33.973C182.652 33.4616 181.775 32.7845 181.209 31.9765C180.646 31.1724 180.34 30.1649 180.34 28.9H178.34C178.34 30.5018 178.734 31.9276 179.571 33.1235C180.405 34.3155 181.628 35.205 183.165 35.8269L183.915 33.973ZM180.34 28.9C180.34 27.2187 180.652 25.8979 181.214 24.8856C181.769 23.8866 182.6 23.1296 183.75 22.6119L182.929 20.7881C181.413 21.4704 180.244 22.5134 179.466 23.9144C178.695 25.3021 178.34 26.9813 178.34 28.9H180.34ZM183.769 22.6033C186.245 21.427 189.911 20.7658 194.853 20.6999L194.827 18.7001C189.769 18.7675 185.768 19.4396 182.911 20.7967L183.769 22.6033ZM195.839 19.7375C196.036 14.4796 196.857 10.1728 198.263 6.78337L196.416 6.01662C194.89 9.69388 194.043 14.2538 193.841 19.6625L195.839 19.7375ZM198.266 6.77729C198.942 5.11888 199.857 3.94272 200.979 3.17556C202.1 2.40952 203.502 2 205.24 2V-3.8147e-06C203.178 -3.8147e-06 201.363 0.490475 199.851 1.52443C198.34 2.55727 197.205 4.08112 196.414 6.0227L198.266 6.77729ZM205.24 2C207.032 2 208.416 2.38572 209.46 3.08205C210.497 3.77301 211.285 4.8266 211.793 6.3219L213.687 5.67809C213.062 3.84006 212.033 2.39365 210.57 1.41795C209.114 0.447607 207.314 -3.8147e-06 205.24 -3.8147e-06V2ZM211.799 6.33872C212.939 9.50564 213.472 13.9318 213.34 19.677L215.34 19.723C215.474 13.8682 214.941 9.16102 213.681 5.66128L211.799 6.33872ZM214.351 20.6999C220.394 20.6335 224.715 21.104 227.41 22.0442L228.069 20.1558C225.031 19.096 220.419 18.6331 214.329 18.7001L214.351 20.6999ZM227.417 22.0465C228.713 22.4882 229.617 23.168 230.208 24.0547C230.804 24.9493 231.14 26.1414 231.14 27.7H233.14C233.14 25.8586 232.742 24.2507 231.872 22.9453C230.996 21.632 229.7 20.7118 228.063 20.1535L227.417 22.0465ZM245.345 67.5L244.76 68.3116L244.771 68.3192L245.345 67.5ZM245.445 48L244.89 47.1679L245.445 48ZM263.345 45.1L263.141 46.079L263.163 46.0837L263.187 46.0874L263.345 45.1ZM266.745 46.1L266.19 46.932L267.745 47.9685V46.1H266.745ZM264.645 42L264.015 42.7772L264.027 42.7865L264.038 42.7954L264.645 42ZM255.145 40.6L255.387 41.5701L255.145 40.6ZM249.945 42.4L249.702 41.4299L249.692 41.4324L249.681 41.4352L249.945 42.4ZM241.945 41.1L241.258 41.827L241.269 41.8374L241.28 41.8474L241.945 41.1ZM242.945 29.4L242.263 28.6681L242.257 28.6741L242.25 28.6802L242.945 29.4ZM250.145 25.4L250.434 26.3572L250.444 26.3541L250.454 26.3509L250.145 25.4ZM272.945 27.2L272.455 28.072L272.464 28.077L272.473 28.0819L272.945 27.2ZM281.445 35.5L280.557 35.9608L280.56 35.9675L280.564 35.9741L281.445 35.5ZM283.645 53.3L282.665 53.0974L282.662 53.1137L282.659 53.1301L283.645 53.3ZM282.245 57.8L281.373 57.3097L280.971 58.0251L281.594 58.5593L282.245 57.8ZM284.345 60.6L283.428 61.0008L283.439 61.0243L283.45 61.0472L284.345 60.6ZM283.145 68.9L282.42 68.2103L282.412 68.2196L282.403 68.2291L283.145 68.9ZM274.145 70.3L273.722 71.2062L274.145 70.3ZM270.945 68.1L271.606 67.3502L271.057 66.866L270.43 67.2425L270.945 68.1ZM265.445 70.3L265.217 69.3261L265.21 69.3279L265.445 70.3ZM263.445 60L262.875 59.1778L262.86 59.1886L262.845 59.2L263.445 60ZM263.445 55.6L262.845 56.4L262.86 56.4114L262.875 56.4222L263.445 55.6ZM256.745 55.6L256.175 54.7778L256.16 54.7886L256.145 54.8L256.745 55.6ZM256.745 60L256.145 60.8L256.16 60.8114L256.175 60.8222L256.745 60ZM258.145 70C253.093 70 249.042 68.8675 245.918 66.6808L244.771 68.3192C248.314 70.7992 252.796 72 258.145 72V70ZM245.929 66.6885C242.882 64.4948 241.345 61.3779 241.345 57.2H239.345C239.345 61.9555 241.14 65.7052 244.76 68.3115L245.929 66.6885ZM241.345 57.2C241.345 53.6897 242.859 50.9258 245.999 48.832L244.89 47.1679C241.23 49.6075 239.345 52.9769 239.345 57.2H241.345ZM245.999 48.832C249.199 46.6986 253.228 45.6 258.145 45.6V43.6C252.928 43.6 248.49 44.7681 244.89 47.1679L245.999 48.832ZM258.145 45.6C259.952 45.6 261.616 45.7614 263.141 46.079L263.548 44.121C261.873 43.7719 260.07 43.6 258.145 43.6V45.6ZM263.187 46.0874C264.852 46.354 265.789 46.6645 266.19 46.932L267.299 45.2679C266.501 44.7355 265.17 44.3794 263.503 44.1126L263.187 46.0874ZM267.745 46.1C267.745 44.1014 266.883 42.448 265.251 41.2046L264.038 42.7954C265.206 43.6853 265.745 44.7652 265.745 46.1H267.745ZM265.274 41.2228C263.617 39.8818 261.213 39.3 258.245 39.3V41.3C261.009 41.3 262.872 41.8515 264.015 42.7772L265.274 41.2228ZM258.245 39.3C256.935 39.3 255.812 39.4024 254.902 39.6299L255.387 41.5701C256.077 41.3976 257.021 41.3 258.245 41.3V39.3ZM254.902 39.6299C254.04 39.8453 253.122 40.1644 252.151 40.5809L252.938 42.4191C253.834 42.0355 254.649 41.7547 255.387 41.5701L254.902 39.6299ZM252.151 40.5809C251.256 40.9645 250.44 41.2453 249.702 41.4299L250.187 43.3701C251.049 43.1547 251.967 42.8355 252.938 42.4191L252.151 40.5809ZM249.681 41.4352C249.072 41.6015 248.173 41.7 246.945 41.7V43.7C248.249 43.7 249.351 43.5985 250.208 43.3648L249.681 41.4352ZM246.945 41.7C244.974 41.7 243.573 41.2093 242.609 40.3526L241.28 41.8474C242.716 43.124 244.648 43.7 246.945 43.7V41.7ZM242.631 40.373C241.697 39.4907 241.145 38.0975 241.145 36H239.145C239.145 38.4359 239.792 40.4426 241.258 41.827L242.631 40.373ZM241.145 36C241.145 33.6707 241.968 31.7308 243.639 30.1198L242.25 28.6802C240.188 30.6692 239.145 33.1293 239.145 36H241.145ZM243.626 30.1319C245.433 28.4491 247.694 27.1856 250.434 26.3572L249.855 24.4428C246.862 25.3477 244.322 26.7509 242.263 28.6681L243.626 30.1319ZM250.454 26.3509C253.226 25.4484 255.988 25 258.745 25V23C255.767 23 252.796 23.4849 249.835 24.4491L250.454 26.3509ZM258.745 25C264.29 25 268.843 26.0441 272.455 28.072L273.434 26.328C269.446 24.0892 264.533 23 258.745 23V25ZM272.473 28.0819C276.184 30.0655 278.861 32.6948 280.557 35.9608L282.332 35.0392C280.428 31.3719 277.438 28.4678 273.416 26.3181L272.473 28.0819ZM280.564 35.9741C282.347 39.2854 283.245 42.9541 283.245 47H285.245C285.245 42.6459 284.275 38.648 282.325 35.0259L280.564 35.9741ZM283.245 47C283.245 49.2084 283.05 51.2397 282.665 53.0974L284.624 53.5026C285.039 51.4937 285.245 49.3249 285.245 47H283.245ZM282.659 53.1301C282.335 55.0103 281.894 56.3842 281.373 57.3097L283.116 58.2903C283.796 57.0825 284.288 55.4563 284.63 53.4699L282.659 53.1301ZM281.594 58.5593C282.419 59.2669 283.025 60.0798 283.428 61.0008L285.261 60.1992C284.73 58.9869 283.936 57.9331 282.895 57.0407L281.594 58.5593ZM283.45 61.0472C283.918 61.9825 284.145 62.93 284.145 63.9H286.145C286.145 62.6033 285.838 61.3508 285.239 60.1528L283.45 61.0472ZM284.145 63.9C284.145 65.5766 283.577 66.9963 282.42 68.2103L283.869 69.5897C285.379 68.0037 286.145 66.0901 286.145 63.9H284.145ZM282.403 68.2291C281.352 69.3912 279.936 70 278.045 70V72C280.42 72 282.404 71.2088 283.886 69.5709L282.403 68.2291ZM278.045 70C276.53 70 275.389 69.7773 274.567 69.3938L273.722 71.2062C274.9 71.756 276.359 72 278.045 72V70ZM274.567 69.3938C273.679 68.9794 272.692 68.3085 271.606 67.3502L270.283 68.8498C271.463 69.8915 272.61 70.6873 273.722 71.2062L274.567 69.3938ZM270.43 67.2425C268.857 68.1861 267.122 68.8818 265.217 69.3262L265.672 71.2738C267.767 70.7849 269.698 70.0139 271.459 68.9575L270.43 67.2425ZM265.21 69.3279C263.38 69.7695 261.032 70 258.145 70V72C261.123 72 263.642 71.7638 265.679 71.2721L265.21 69.3279ZM260.145 61.9C261.676 61.9 263.014 61.5727 264.045 60.8L262.845 59.2C262.275 59.6273 261.413 59.9 260.145 59.9V61.9ZM264.014 60.8222C265.084 60.0813 265.745 59.0679 265.745 57.8H263.745C263.745 58.2654 263.538 58.7187 262.875 59.1778L264.014 60.8222ZM265.745 57.8C265.745 56.5321 265.084 55.5187 264.014 54.7778L262.875 56.4222C263.538 56.8813 263.745 57.3346 263.745 57.8H265.745ZM264.045 54.8C263.014 54.0273 261.676 53.7 260.145 53.7V55.7C261.413 55.7 262.275 55.9727 262.845 56.4L264.045 54.8ZM260.145 53.7C258.607 53.7 257.256 54.0295 256.175 54.7778L257.314 56.4222C257.966 55.9705 258.882 55.7 260.145 55.7V53.7ZM256.145 54.8C255.137 55.5558 254.545 56.5673 254.545 57.8H256.545C256.545 57.2994 256.752 56.8442 257.345 56.4L256.145 54.8ZM254.545 57.8C254.545 59.0327 255.137 60.0442 256.145 60.8L257.345 59.2C256.752 58.7558 256.545 58.3006 256.545 57.8H254.545ZM256.175 60.8222C257.256 61.5705 258.607 61.9 260.145 61.9V59.9C258.882 59.9 257.966 59.6295 257.314 59.1778L256.175 60.8222ZM307.491 85.9L308.002 85.0405L307.994 85.0353L307.985 85.0303L307.491 85.9ZM306.291 74.7L305.682 73.9074L305.665 73.9205L305.648 73.9343L306.291 74.7ZM315.091 72.9L315.24 71.9111L315.228 71.9092L315.215 71.9077L315.091 72.9ZM326.191 71.7L325.791 70.7838L325.773 70.7915L325.756 70.7998L326.191 71.7ZM330.091 67.9L331.051 68.18L331.738 65.8265L329.601 67.0284L330.091 67.9ZM325.591 69.4L325.794 70.3793L325.591 69.4ZM305.391 66.7L304.87 67.5533L304.877 67.5575L305.391 66.7ZM297.591 58.6L296.693 59.0399L296.697 59.0472L297.591 58.6ZM298.591 35.5L297.739 34.9767L297.733 34.9877L298.591 35.5ZM307.591 26.8L307.113 25.9221L307.591 26.8ZM323.691 24.1L323.577 25.0934L323.581 25.0939L323.691 24.1ZM328.191 24.8L327.974 25.7762L328.885 25.9786L329.15 25.0841L328.191 24.8ZM330.891 20.6L330.291 19.8L330.281 19.8074L330.272 19.8151L330.891 20.6ZM346.191 27.2L345.25 27.5371L345.254 27.5473L346.191 27.2ZM348.591 57.8L347.598 57.6808L347.597 57.6942L348.591 57.8ZM338.691 80L337.997 79.2802L338.691 80ZM326.091 52.8L326.783 53.5226L326.791 53.515L326.799 53.5071L326.091 52.8ZM326.091 42L325.384 42.7071L326.091 42ZM315.291 42L314.584 41.2929L314.576 41.3007L314.569 41.3088L315.291 42ZM315.291 52.8L314.569 53.4912L314.584 53.5073L314.6 53.5226L315.291 52.8ZM316.991 87.1C313.244 87.1 310.27 86.3886 308.002 85.0405L306.98 86.7595C309.646 88.3447 313.005 89.1 316.991 89.1V87.1ZM307.985 85.0303C305.775 83.776 304.791 82.1464 304.791 80.1H302.791C302.791 82.987 304.274 85.224 306.998 86.7697L307.985 85.0303ZM304.791 80.1C304.791 78.1917 305.497 76.6734 306.935 75.4657L305.648 73.9343C303.753 75.5266 302.791 77.6083 302.791 80.1H304.791ZM306.901 75.4926C308.428 74.3179 310.369 73.7 312.791 73.7V71.7C310.014 71.7 307.621 72.4155 305.682 73.9074L306.901 75.4926ZM312.791 73.7C313.19 73.7 313.903 73.7592 314.967 73.8923L315.215 71.9077C314.147 71.7741 313.326 71.7 312.791 71.7V73.7ZM314.943 73.8889C316.317 74.095 317.6 74.2 318.791 74.2V72.2C317.716 72.2 316.533 72.105 315.24 71.9111L314.943 73.8889ZM318.791 74.2C321.772 74.2 324.395 73.6801 326.627 72.6002L325.756 70.7998C323.854 71.7199 321.544 72.2 318.791 72.2V74.2ZM326.592 72.6162C328.884 71.6134 330.473 70.1645 331.051 68.18L329.131 67.62C328.777 68.8355 327.765 69.9199 325.791 70.7838L326.592 72.6162ZM329.601 67.0284C328.662 67.5566 327.275 68.0305 325.389 68.4207L325.794 70.3793C327.774 69.9695 329.387 69.4434 330.582 68.7716L329.601 67.0284ZM325.389 68.4207C323.529 68.8055 321.531 69 319.391 69V71C321.652 71 323.787 70.7945 325.794 70.3793L325.389 68.4207ZM319.391 69C313.849 69 309.374 67.9236 305.906 65.8425L304.877 67.5575C308.742 69.8764 313.601 71 319.391 71V69ZM305.913 65.8467C302.444 63.7267 299.988 61.1571 298.486 58.1528L296.697 59.0472C298.395 62.4429 301.139 65.2733 304.87 67.5533L305.913 65.8467ZM298.489 58.1601C296.946 55.0084 296.191 51.9581 296.191 49H294.191C294.191 52.3085 295.037 55.6583 296.693 59.0399L298.489 58.1601ZM296.191 49C296.191 43.9484 297.291 39.6321 299.45 36.0123L297.733 34.9877C295.358 38.9679 294.191 43.6516 294.191 49H296.191ZM299.444 36.0233C301.692 32.3616 304.567 29.5886 308.07 27.6779L307.113 25.9221C303.282 28.0114 300.158 31.0384 297.739 34.9767L299.444 36.0233ZM308.07 27.6779C311.597 25.7543 315.266 24.8 319.091 24.8V22.8C314.917 22.8 310.919 23.8456 307.113 25.9221L308.07 27.6779ZM319.091 24.8C320.377 24.8 321.871 24.8965 323.577 25.0934L323.806 23.1066C322.046 22.9035 320.473 22.8 319.091 22.8V24.8ZM323.581 25.0939C325.36 25.2916 326.822 25.52 327.974 25.7762L328.408 23.8238C327.161 23.5466 325.623 23.3084 323.802 23.1061L323.581 25.0939ZM329.15 25.0841C329.635 23.4487 330.432 22.237 331.511 21.3849L330.272 19.8151C328.818 20.963 327.815 22.5513 327.233 24.5159L329.15 25.0841ZM331.491 21.4C332.579 20.5844 334.294 20.1 336.791 20.1V18.1C334.088 18.1 331.871 18.6155 330.291 19.8L331.491 21.4ZM336.791 20.1C338.731 20.1 340.363 20.6969 341.739 21.8825C343.133 23.0844 344.32 24.9399 345.25 27.5371L347.133 26.8629C346.129 24.0601 344.783 21.8656 343.044 20.3674C341.287 18.8531 339.185 18.1 336.791 18.1V20.1ZM345.254 27.5473C347.2 32.8029 348.191 39.3436 348.191 47.2H350.191C350.191 39.1897 349.183 32.3971 347.129 26.8527L345.254 27.5473ZM348.191 47.2C348.191 50.8979 347.993 54.3912 347.599 57.6809L349.584 57.9191C349.99 54.5422 350.191 50.9688 350.191 47.2H348.191ZM347.597 57.6942C346.616 66.9128 343.394 74.0763 337.997 79.2802L339.386 80.7198C345.189 75.1237 348.566 67.4872 349.586 57.9058L347.597 57.6942ZM337.997 79.2802C332.61 84.475 325.638 87.1 316.991 87.1V89.1C326.078 89.1 333.573 86.325 339.386 80.7198L337.997 79.2802ZM320.691 56C323.023 56 325.069 55.162 326.783 53.5226L325.4 52.0774C324.047 53.3713 322.493 54 320.691 54V56ZM326.799 53.5071C328.509 51.7965 329.391 49.7461 329.391 47.4H327.391C327.391 49.1873 326.74 50.7368 325.384 52.0929L326.799 53.5071ZM329.391 47.4C329.391 45.0539 328.509 43.0035 326.799 41.2929L325.384 42.7071C326.74 44.0632 327.391 45.6127 327.391 47.4H329.391ZM326.799 41.2929C325.088 39.5823 323.037 38.7 320.691 38.7V40.7C322.479 40.7 324.028 41.351 325.384 42.7071L326.799 41.2929ZM320.691 38.7C318.345 38.7 316.295 39.5823 314.584 41.2929L315.999 42.7071C317.355 41.351 318.904 40.7 320.691 40.7V38.7ZM314.569 41.3088C312.929 43.0227 312.091 45.0683 312.091 47.4H314.091C314.091 45.5984 314.72 44.044 316.014 42.6912L314.569 41.3088ZM312.091 47.4C312.091 49.7317 312.929 51.7773 314.569 53.4912L316.014 52.1088C314.72 50.756 314.091 49.2016 314.091 47.4H312.091ZM314.6 53.5226C316.314 55.162 318.36 56 320.691 56V54C318.89 54 317.335 53.3713 315.983 52.0774L314.6 53.5226ZM385.102 71.1L385.088 70.1001L385.088 70.1001L385.102 71.1ZM372.202 68.1L371.717 68.9749L371.724 68.9785L372.202 68.1ZM363.402 59.6L362.53 60.091L362.536 60.1005L362.541 60.1098L363.402 59.6ZM360.102 47.4L359.102 47.4149L359.102 47.4224L359.102 47.4298L360.102 47.4ZM363.202 35.4L362.345 34.8831L363.202 35.4ZM372.102 27L371.63 26.118L371.624 26.1215L372.102 27ZM397.702 26.9L397.229 27.7815L397.236 27.7849L397.702 26.9ZM406.702 35.3L405.848 35.8214L406.702 35.3ZM410.202 47.4L411.201 47.3846L411.201 47.3774L411.201 47.3702L410.202 47.4ZM407.102 59.3L407.958 59.8169L407.962 59.8098L407.102 59.3ZM398.102 67.8L397.618 66.9244L397.612 66.928L398.102 67.8ZM390.102 54.4L390.826 55.0897L390.102 54.4ZM390.102 44.7L389.377 45.3897L389.386 45.3985L389.394 45.4071L390.102 44.7ZM380.702 44.7L381.409 45.4071L381.417 45.3985L381.426 45.3897L380.702 44.7ZM380.702 54.4L379.977 55.0897L380.702 54.4ZM385.088 70.1001C380.44 70.1646 376.313 69.1975 372.679 67.2215L371.724 68.9785C375.691 71.1359 380.163 72.1687 385.115 72.0999L385.088 70.1001ZM372.686 67.2251C369.105 65.2428 366.303 62.5341 364.262 59.0902L362.541 60.1098C364.767 63.8659 367.832 66.8239 371.717 68.9749L372.686 67.2251ZM364.273 59.109C362.29 55.5921 361.23 51.6852 361.101 47.3702L359.102 47.4298C359.24 52.0481 360.379 56.2746 362.53 60.091L364.273 59.109ZM361.101 47.3851C361.037 43.0896 362.029 39.2767 364.058 35.9169L362.345 34.8831C360.107 38.5899 359.032 42.777 359.102 47.4149L361.101 47.3851ZM364.058 35.9169C366.095 32.5429 368.927 29.8646 372.579 27.8785L371.624 26.1215C367.676 28.2688 364.575 31.1904 362.345 34.8831L364.058 35.9169ZM372.573 27.8819C376.281 25.9 380.45 24.9 385.102 24.9V22.9C380.153 22.9 375.655 23.9667 371.63 26.1181L372.573 27.8819ZM385.102 24.9C389.621 24.9 393.656 25.867 397.229 27.7815L398.174 26.0185C394.281 23.933 389.916 22.9 385.102 22.9V24.9ZM397.236 27.7849C400.879 29.7025 403.744 32.3782 405.848 35.8214L407.555 34.7785C405.259 31.0218 402.124 28.0975 398.167 26.0151L397.236 27.7849ZM405.848 35.8214C407.952 39.2642 409.074 43.1263 409.202 47.4298L411.201 47.3702C411.063 42.7404 409.851 38.5358 407.555 34.7785L405.848 35.8214ZM409.202 47.4154C409.266 51.571 408.277 55.3549 406.241 58.7902L407.962 59.8098C410.193 56.0451 411.271 51.8956 411.201 47.3846L409.202 47.4154ZM406.246 58.7831C404.209 62.1557 401.343 64.8697 397.618 66.9244L398.585 68.6756C402.594 66.4636 405.727 63.5109 407.958 59.8169L406.246 58.7831ZM397.612 66.928C393.974 68.9705 389.808 70.0354 385.088 70.1001L385.115 72.0999C390.129 72.0312 394.629 70.8962 398.591 68.672L397.612 66.928ZM385.402 57.5C387.497 57.5 389.319 56.6715 390.826 55.0897L389.377 53.7103C388.217 54.9285 386.906 55.5 385.402 55.5V57.5ZM390.826 55.0897C392.329 53.5111 393.102 51.6334 393.102 49.5H391.102C391.102 51.0999 390.541 52.4889 389.377 53.7103L390.826 55.0897ZM393.102 49.5C393.102 47.3651 392.327 45.5116 390.809 43.9929L389.394 45.4071C390.542 46.555 391.102 47.9016 391.102 49.5H393.102ZM390.826 44.0103C389.319 42.4285 387.497 41.6 385.402 41.6V43.6C386.906 43.6 388.217 44.1715 389.377 45.3897L390.826 44.0103ZM385.402 41.6C383.306 41.6 381.484 42.4285 379.977 44.0103L381.426 45.3897C382.586 44.1715 383.897 43.6 385.402 43.6V41.6ZM379.994 43.9929C378.476 45.5116 377.702 47.3651 377.702 49.5H379.702C379.702 47.9016 380.261 46.555 381.409 45.4071L379.994 43.9929ZM377.702 49.5C377.702 51.6334 378.474 53.5111 379.977 55.0897L381.426 53.7103C380.262 52.4889 379.702 51.0999 379.702 49.5H377.702ZM379.977 55.0897C381.484 56.6715 383.306 57.5 385.402 57.5V55.5C383.897 55.5 382.586 54.9285 381.426 53.7103L379.977 55.0897ZM454.327 69L453.565 69.6477L453.574 69.6584L453.583 69.669L454.327 69ZM452.227 64.1L453.217 63.9634L452.227 64.1ZM440.027 47.5L439.143 47.0308L439.138 47.0414L440.027 47.5ZM438.127 64.1L437.133 63.9896L438.127 64.1ZM436.127 68.9L436.888 69.5476L436.896 69.5385L436.904 69.5292L436.127 68.9ZM422.527 63.6L421.572 63.8968L421.573 63.9005L422.527 63.6ZM434.927 23.7L434.313 24.4893L434.327 24.5003L434.341 24.5107L434.927 23.7ZM437.427 27.5L436.464 27.7696L436.945 29.4884L438.159 28.1804L437.427 27.5ZM441.427 25L441.061 24.0692L441.049 24.0739L441.427 25ZM463.727 31.9L462.898 32.4595L462.903 32.4665L463.727 31.9ZM467.127 66.4L468.036 66.8153L468.04 66.8079L467.127 66.4ZM459.727 70C457.51 70 456.022 69.389 455.07 68.331L453.583 69.669C455.031 71.2777 457.144 72 459.727 72V70ZM455.089 68.3523C454.092 67.1805 453.461 65.7305 453.217 63.9634L451.236 64.2366C451.526 66.3362 452.294 68.1529 453.565 69.6477L455.089 68.3523ZM453.217 63.9634C452.959 62.0933 452.827 59.6436 452.827 56.6H450.827C450.827 59.6897 450.961 62.2401 451.236 64.2366L453.217 63.9634ZM452.827 56.6C452.827 52.6002 452.288 49.3871 451.121 47.0528L449.332 47.9472C450.298 49.8796 450.827 52.7331 450.827 56.6H452.827ZM451.121 47.0528C450.519 45.8485 449.702 44.8951 448.651 44.2483C447.6 43.6018 446.378 43.3 445.027 43.3V45.3C446.075 45.3 446.92 45.5315 447.602 45.9517C448.285 46.3716 448.868 47.0182 449.332 47.9472L451.121 47.0528ZM445.027 43.3C443.758 43.3 442.599 43.6101 441.588 44.2577C440.581 44.9022 439.773 45.8456 439.143 47.0308L440.91 47.9692C441.413 47.0211 442.006 46.3645 442.666 45.9423C443.32 45.5232 444.096 45.3 445.027 45.3V43.3ZM439.138 47.0414C437.968 49.3086 437.427 52.3565 437.427 56.1H439.427C439.427 52.5101 439.952 49.8247 440.915 47.9586L439.138 47.0414ZM437.427 56.1C437.427 59.6241 437.326 62.2461 437.133 63.9896L439.12 64.2104C439.327 62.3539 439.427 59.6426 439.427 56.1H437.427ZM437.133 63.9896C436.954 65.6006 436.362 67.0203 435.349 68.2708L436.904 69.5292C438.158 67.9797 438.899 66.1994 439.12 64.2104L437.133 63.9896ZM435.365 68.2523C434.499 69.2712 432.978 69.9 430.527 69.9V71.9C433.275 71.9 435.488 71.1954 436.888 69.5476L435.365 68.2523ZM430.527 69.9C428.862 69.9 427.489 69.3754 426.351 68.3363C425.19 67.2777 424.215 65.6305 423.48 63.2995L421.573 63.9005C422.372 66.4361 423.496 68.439 425.003 69.8137C426.53 71.2079 428.392 71.9 430.527 71.9V69.9ZM423.482 63.3032C421.985 58.4883 421.227 52.8258 421.227 46.3H419.227C419.227 52.9742 420.001 58.845 421.572 63.8968L423.482 63.3032ZM421.227 46.3C421.227 38.3399 422.068 32.5013 423.673 28.6879C424.471 26.7914 425.436 25.4493 426.529 24.5839C427.606 23.7305 428.858 23.3 430.327 23.3V21.3C428.429 21.3 426.735 21.8695 425.287 23.0161C423.854 24.1507 422.715 25.8086 421.83 27.9121C420.068 32.0987 419.227 38.2601 419.227 46.3H421.227ZM430.327 23.3C432.023 23.3 433.325 23.7213 434.313 24.4893L435.54 22.9106C434.128 21.812 432.364 21.3 430.327 21.3V23.3ZM434.341 24.5107C435.328 25.2232 436.047 26.2823 436.464 27.7696L438.39 27.2304C437.873 25.3844 436.925 23.9101 435.512 22.8893L434.341 24.5107ZM438.159 28.1804C438.889 27.3952 440.075 26.6306 441.804 25.9261L441.049 24.0739C439.179 24.836 437.698 25.7381 436.694 26.8195L438.159 28.1804ZM441.792 25.9308C443.539 25.2446 445.381 24.9 447.327 24.9V22.9C445.139 22.9 443.048 23.2888 441.061 24.0692L441.792 25.9308ZM447.327 24.9C454.382 24.9 459.512 27.4436 462.898 32.4595L464.555 31.3405C460.741 25.6898 454.938 22.9 447.327 22.9V24.9ZM462.903 32.4665C466.416 37.5775 468.227 44.5888 468.227 53.6H470.227C470.227 44.3445 468.37 36.8892 464.551 31.3335L462.903 32.4665ZM468.227 53.6C468.227 58.9313 467.533 63.0396 466.214 65.9921L468.04 66.8079C469.52 63.4938 470.227 59.0687 470.227 53.6H468.227ZM466.217 65.9847C465.585 67.3684 464.739 68.3539 463.699 69.0007C462.655 69.6495 461.347 70 459.727 70V72C461.639 72 463.331 71.5839 464.754 70.6993C466.181 69.8128 467.268 68.4982 468.036 66.8153L466.217 65.9847Z" fill="black"/>
</g>
<defs>
<filter id="filter0_di" x="0.5" y="0" width="472.727" height="94.1" filterUnits="userSpaceOnUse" color-interpolation-filters="sRGB">
<feFlood flood-opacity="0" result="BackgroundImageFix"/>
<feColorMatrix in="SourceAlpha" type="matrix" values="0 0 0 0 0 0 0 0 0 0 0 0 0 0 0 0 0 0 127 0"/>
<feOffset dx="3" dy="3"/>
<feColorMatrix type="matrix" values="0 0 0 0 0.968627 0 0 0 0 0.333333 0 0 0 0 0.45098 0 0 0 0.2 0"/>
<feBlend mode="normal" in2="BackgroundImageFix" result="effect1_dropShadow"/>
<feBlend mode="normal" in="SourceGraphic" in2="effect1_dropShadow" result="shape"/>
<feColorMatrix in="SourceAlpha" type="matrix" values="0 0 0 0 0 0 0 0 0 0 0 0 0 0 0 0 0 0 127 0" result="hardAlpha"/>
<feOffset dx="3" dy="5"/>
<feGaussianBlur stdDeviation="5"/>
<feComposite in2="hardAlpha" operator="arithmetic" k2="-1" k3="1"/>
<feColorMatrix type="matrix" values="0 0 0 0 1 0 0 0 0 1 0 0 0 0 0.618333 0 0 0 1 0"/>
<feBlend mode="normal" in2="shape" result="effect2_innerShadow"/>
</filter>
</defs>
</svg>
